<svg width="440" height="956" viewBox="0 0 440 956" fill="none" xmlns="http://www.w3.org/2000/svg">
<g clip-path="url(#clip0_1_2)">
<rect width="440" height="956" fill="white"/>
<rect width="440" height="80" fill="#D9D9D9"/>
<path d="M117.636 61V14.4545H133.364C137 14.4545 139.985 15.0758 142.318 16.3182C144.652 17.5455 146.379 19.2348 147.5 21.3864C148.621 23.5379 149.182 25.9848 149.182 28.7273C149.182 31.4697 148.621 33.9015 147.5 36.0227C146.379 38.1439 144.659 39.8106 142.341 41.0227C140.023 42.2197 137.061 42.8182 133.455 42.8182H120.727V37.7273H133.273C135.758 37.7273 137.758 37.3636 139.273 36.6364C140.803 35.9091 141.909 34.8788 142.591 33.5455C143.288 32.197 143.636 30.5909 143.636 28.7273C143.636 26.8636 143.288 25.2348 142.591 23.8409C141.894 22.447 140.78 21.3712 139.25 20.6136C137.72 19.8409 135.697 19.4545 133.182 19.4545H123.273V61H117.636ZM139.545 40.0909L151 61H144.455L133.182 40.0909H139.545ZM157.028 61V56.9091L182.119 19.4545H156.756V14.4545H188.847V18.5455L163.756 56H189.119V61H157.028ZM200.483 61H194.574L211.665 14.4545H217.483L234.574 61H228.665L214.756 21.8182H214.392L200.483 61ZM202.665 42.8182H226.483V47.8182H202.665V42.8182Z" fill="black"/>
<rect x="256" y="-1" width="92" height="81" fill="#F8F8F8"/>
<path d="M256 79.5H347.5M256 79.5V0M256 79.5L347.5 0M347.5 79.5V0M347.5 79.5L256 0M347.5 0H256" stroke="black"/>
<path d="M272.227 76V67.2727H273.523V68.5909H273.614C273.773 68.1591 274.061 67.8087 274.477 67.5398C274.894 67.2708 275.364 67.1364 275.886 67.1364C275.985 67.1364 276.108 67.1383 276.256 67.142C276.403 67.1458 276.515 67.1515 276.591 67.1591V68.5227C276.545 68.5114 276.441 68.4943 276.278 68.4716C276.119 68.4451 275.951 68.4318 275.773 68.4318C275.348 68.4318 274.97 68.5208 274.636 68.6989C274.307 68.8731 274.045 69.1155 273.852 69.4261C273.663 69.733 273.568 70.0833 273.568 70.4773V76H272.227ZM277.93 76V74.9773L282.885 68.6136V68.5227H278.089V67.2727H284.612V68.3409L279.794 74.6591V74.75H284.771V76H277.93ZM289.405 76.2045C288.852 76.2045 288.35 76.1004 287.899 75.892C287.448 75.6799 287.09 75.375 286.825 74.9773C286.56 74.5758 286.428 74.0909 286.428 73.5227C286.428 73.0227 286.526 72.6174 286.723 72.3068C286.92 71.9924 287.183 71.7462 287.513 71.5682C287.842 71.3902 288.206 71.2576 288.604 71.1705C289.005 71.0795 289.409 71.0076 289.814 70.9545C290.344 70.8864 290.774 70.8352 291.104 70.8011C291.437 70.7633 291.679 70.7008 291.831 70.6136C291.986 70.5265 292.064 70.375 292.064 70.1591V70.1136C292.064 69.553 291.911 69.1174 291.604 68.8068C291.301 68.4962 290.84 68.3409 290.223 68.3409C289.583 68.3409 289.081 68.4811 288.717 68.7614C288.354 69.0417 288.098 69.3409 287.95 69.6591L286.678 69.2045C286.905 68.6742 287.208 68.2614 287.587 67.9659C287.969 67.6667 288.386 67.4583 288.837 67.3409C289.291 67.2197 289.738 67.1591 290.178 67.1591C290.458 67.1591 290.78 67.1932 291.143 67.2614C291.511 67.3258 291.865 67.4602 292.206 67.6648C292.551 67.8693 292.837 68.178 293.064 68.5909C293.291 69.0038 293.405 69.5568 293.405 70.25V76H292.064V74.8182H291.996C291.905 75.0076 291.753 75.2102 291.541 75.4261C291.329 75.642 291.047 75.8258 290.695 75.9773C290.342 76.1288 289.912 76.2045 289.405 76.2045ZM289.609 75C290.14 75 290.587 74.8958 290.95 74.6875C291.318 74.4792 291.594 74.2102 291.78 73.8807C291.969 73.5511 292.064 73.2045 292.064 72.8409V71.6136C292.007 71.6818 291.882 71.7443 291.689 71.8011C291.5 71.8542 291.28 71.9015 291.03 71.9432C290.784 71.9811 290.543 72.0152 290.308 72.0455C290.077 72.072 289.89 72.0947 289.746 72.1136C289.397 72.1591 289.071 72.233 288.768 72.3352C288.469 72.4337 288.227 72.5833 288.041 72.7841C287.859 72.9811 287.768 73.25 287.768 73.5909C287.768 74.0568 287.941 74.4091 288.286 74.6477C288.634 74.8826 289.075 75 289.609 75ZM301.693 64.3636V76H300.352V64.3636H301.693ZM307.695 76.1818C306.907 76.1818 306.215 75.9943 305.621 75.6193C305.03 75.2443 304.568 74.7197 304.234 74.0455C303.905 73.3712 303.74 72.5833 303.74 71.6818C303.74 70.7727 303.905 69.9792 304.234 69.3011C304.568 68.6231 305.03 68.0966 305.621 67.7216C306.215 67.3466 306.907 67.1591 307.695 67.1591C308.482 67.1591 309.172 67.3466 309.763 67.7216C310.357 68.0966 310.82 68.6231 311.149 69.3011C311.482 69.9792 311.649 70.7727 311.649 71.6818C311.649 72.5833 311.482 73.3712 311.149 74.0455C310.82 74.7197 310.357 75.2443 309.763 75.6193C309.172 75.9943 308.482 76.1818 307.695 76.1818ZM307.695 74.9773C308.293 74.9773 308.786 74.8239 309.172 74.517C309.558 74.2102 309.844 73.8068 310.03 73.3068C310.215 72.8068 310.308 72.2652 310.308 71.6818C310.308 71.0985 310.215 70.5549 310.03 70.0511C309.844 69.5473 309.558 69.1402 309.172 68.8295C308.786 68.5189 308.293 68.3636 307.695 68.3636C307.096 68.3636 306.604 68.5189 306.217 68.8295C305.831 69.1402 305.545 69.5473 305.359 70.0511C305.174 70.5549 305.081 71.0985 305.081 71.6818C305.081 72.2652 305.174 72.8068 305.359 73.3068C305.545 73.8068 305.831 74.2102 306.217 74.517C306.604 74.8239 307.096 74.9773 307.695 74.9773ZM317.219 79.4545C316.571 79.4545 316.014 79.3712 315.548 79.2045C315.082 79.0417 314.694 78.8258 314.384 78.5568C314.077 78.2917 313.832 78.0076 313.651 77.7045L314.719 76.9545C314.84 77.1136 314.993 77.2955 315.179 77.5C315.365 77.7083 315.618 77.8883 315.94 78.0398C316.266 78.1951 316.692 78.2727 317.219 78.2727C317.923 78.2727 318.505 78.1023 318.963 77.7614C319.421 77.4205 319.651 76.8864 319.651 76.1591V74.3864H319.537C319.438 74.5455 319.298 74.7424 319.116 74.9773C318.938 75.2083 318.681 75.4148 318.344 75.5966C318.01 75.7746 317.56 75.8636 316.991 75.8636C316.287 75.8636 315.654 75.697 315.094 75.3636C314.537 75.0303 314.096 74.5455 313.77 73.9091C313.448 73.2727 313.287 72.5 313.287 71.5909C313.287 70.697 313.444 69.9186 313.759 69.2557C314.073 68.589 314.51 68.0739 315.071 67.7102C315.632 67.3428 316.279 67.1591 317.014 67.1591C317.582 67.1591 318.033 67.2538 318.366 67.4432C318.704 67.6288 318.961 67.8409 319.139 68.0795C319.321 68.3144 319.461 68.5076 319.56 68.6591H319.696V67.2727H320.991V76.25C320.991 77 320.821 77.6098 320.48 78.0795C320.143 78.553 319.688 78.8996 319.116 79.1193C318.548 79.3428 317.916 79.4545 317.219 79.4545ZM317.173 74.6591C317.711 74.6591 318.166 74.536 318.537 74.2898C318.908 74.0436 319.19 73.6894 319.384 73.2273C319.577 72.7652 319.673 72.2121 319.673 71.5682C319.673 70.9394 319.579 70.3845 319.389 69.9034C319.2 69.4223 318.92 69.0455 318.548 68.7727C318.177 68.5 317.719 68.3636 317.173 68.3636C316.605 68.3636 316.132 68.5076 315.753 68.7955C315.378 69.0833 315.096 69.4697 314.906 69.9545C314.721 70.4394 314.628 70.9773 314.628 71.5682C314.628 72.1742 314.723 72.7102 314.912 73.1761C315.105 73.6383 315.389 74.0019 315.764 74.267C316.143 74.5284 316.613 74.6591 317.173 74.6591ZM326.991 76.1818C326.204 76.1818 325.512 75.9943 324.918 75.6193C324.327 75.2443 323.865 74.7197 323.531 74.0455C323.202 73.3712 323.037 72.5833 323.037 71.6818C323.037 70.7727 323.202 69.9792 323.531 69.3011C323.865 68.6231 324.327 68.0966 324.918 67.7216C325.512 67.3466 326.204 67.1591 326.991 67.1591C327.779 67.1591 328.469 67.3466 329.06 67.7216C329.654 68.0966 330.116 68.6231 330.446 69.3011C330.779 69.9792 330.946 70.7727 330.946 71.6818C330.946 72.5833 330.779 73.3712 330.446 74.0455C330.116 74.7197 329.654 75.2443 329.06 75.6193C328.469 75.9943 327.779 76.1818 326.991 76.1818ZM326.991 74.9773C327.59 74.9773 328.082 74.8239 328.469 74.517C328.855 74.2102 329.141 73.8068 329.327 73.3068C329.512 72.8068 329.605 72.2652 329.605 71.6818C329.605 71.0985 329.512 70.5549 329.327 70.0511C329.141 69.5473 328.855 69.1402 328.469 68.8295C328.082 68.5189 327.59 68.3636 326.991 68.3636C326.393 68.3636 325.901 68.5189 325.514 68.8295C325.128 69.1402 324.842 69.5473 324.656 70.0511C324.471 70.5549 324.378 71.0985 324.378 71.6818C324.378 72.2652 324.471 72.8068 324.656 73.3068C324.842 73.8068 325.128 74.2102 325.514 74.517C325.901 74.8239 326.393 74.9773 326.991 74.9773Z" fill="black"/>
<path d="M11 22H72M72 41.5652H11M11 58H72" stroke="black" stroke-width="4"/>
<rect y="80" width="440" height="450" fill="#B5B5B5"/>
<path d="M3.71591 244H0.0227273L10.7045 214.909H14.3409L25.0227 244H21.3295L12.6364 219.511H12.4091L3.71591 244ZM5.07955 232.636H19.9659V235.761H5.07955V232.636ZM37.2209 222.182V225.023H25.9141V222.182H37.2209ZM29.2095 216.955H32.5618V237.75C32.5618 238.697 32.6991 239.407 32.9737 239.881C33.2578 240.345 33.6177 240.657 34.0533 240.818C34.4983 240.97 34.9671 241.045 35.4595 241.045C35.8288 241.045 36.1319 241.027 36.3686 240.989C36.6054 240.941 36.7947 240.903 36.9368 240.875L37.6186 243.886C37.3913 243.972 37.0741 244.057 36.6669 244.142C36.2597 244.237 35.7436 244.284 35.1186 244.284C34.1716 244.284 33.2436 244.08 32.3345 243.673C31.4349 243.266 30.6868 242.646 30.0902 241.812C29.5031 240.979 29.2095 239.928 29.2095 238.659V216.955ZM51.7521 222.182V225.023H40.4453V222.182H51.7521ZM43.7408 216.955H47.093V237.75C47.093 238.697 47.2304 239.407 47.505 239.881C47.7891 240.345 48.1489 240.657 48.5845 240.818C49.0296 240.97 49.4983 241.045 49.9908 241.045C50.3601 241.045 50.6631 241.027 50.8999 240.989C51.1366 240.941 51.326 240.903 51.468 240.875L52.1499 243.886C51.9226 243.972 51.6054 244.057 51.1982 244.142C50.791 244.237 50.2749 244.284 49.6499 244.284C48.7029 244.284 47.7749 244.08 46.8658 243.673C45.9661 243.266 45.218 242.646 44.6214 241.812C44.0343 240.979 43.7408 239.928 43.7408 238.659V216.955ZM56.7947 244V222.182H60.0334V225.477H60.2607C60.6584 224.398 61.3781 223.522 62.4197 222.849C63.4614 222.177 64.6357 221.841 65.9425 221.841C66.1887 221.841 66.4964 221.846 66.8658 221.855C67.2351 221.865 67.5144 221.879 67.7038 221.898V225.307C67.5902 225.278 67.3298 225.236 66.9226 225.179C66.5249 225.113 66.1035 225.08 65.6584 225.08C64.5978 225.08 63.6508 225.302 62.8175 225.747C61.9936 226.183 61.3402 226.789 60.8572 227.565C60.3838 228.332 60.147 229.208 60.147 230.193V244H56.7947ZM78.098 244.511C76.7154 244.511 75.4607 244.251 74.3338 243.73C73.2069 243.2 72.312 242.438 71.6491 241.443C70.9863 240.439 70.6548 239.227 70.6548 237.807C70.6548 236.557 70.901 235.544 71.3935 234.767C71.8859 233.981 72.544 233.366 73.3679 232.92C74.1918 232.475 75.1009 232.144 76.0952 231.926C77.099 231.699 78.1075 231.519 79.1207 231.386C80.4465 231.216 81.5213 231.088 82.3452 231.003C83.1785 230.908 83.7846 230.752 84.1634 230.534C84.5516 230.316 84.7457 229.937 84.7457 229.398V229.284C84.7457 227.883 84.3622 226.794 83.5952 226.017C82.8376 225.241 81.687 224.852 80.1435 224.852C78.5431 224.852 77.2884 225.203 76.3793 225.903C75.4702 226.604 74.831 227.352 74.4616 228.148L71.2798 227.011C71.848 225.686 72.6056 224.653 73.5526 223.915C74.509 223.167 75.5507 222.646 76.6776 222.352C77.8139 222.049 78.9313 221.898 80.0298 221.898C80.7306 221.898 81.5355 221.983 82.4446 222.153C83.3632 222.314 84.2486 222.651 85.1009 223.162C85.9626 223.673 86.6776 224.445 87.2457 225.477C87.8139 226.509 88.098 227.892 88.098 229.625V244H84.7457V241.045H84.5753C84.348 241.519 83.9692 242.026 83.4389 242.565C82.9086 243.105 82.2031 243.564 81.3224 243.943C80.4418 244.322 79.367 244.511 78.098 244.511ZM78.6094 241.5C79.9351 241.5 81.0526 241.24 81.9616 240.719C82.8802 240.198 83.5715 239.526 84.0355 238.702C84.509 237.878 84.7457 237.011 84.7457 236.102V233.034C84.6037 233.205 84.2912 233.361 83.8082 233.503C83.3348 233.635 82.7855 233.754 82.1605 233.858C81.545 233.953 80.9437 234.038 80.3565 234.114C79.7789 234.18 79.3101 234.237 78.9503 234.284C78.0791 234.398 77.2647 234.582 76.5071 234.838C75.759 235.084 75.1529 235.458 74.6889 235.96C74.2344 236.453 74.0071 237.125 74.0071 237.977C74.0071 239.142 74.438 240.023 75.2997 240.619C76.1709 241.206 77.2741 241.5 78.6094 241.5ZM103.08 244.455C101.035 244.455 99.2734 243.972 97.7962 243.006C96.3189 242.04 95.1825 240.709 94.3871 239.014C93.5916 237.319 93.1939 235.383 93.1939 233.205C93.1939 230.989 93.6011 229.033 94.4155 227.338C95.2393 225.634 96.3852 224.303 97.853 223.347C99.3303 222.381 101.054 221.898 103.023 221.898C104.558 221.898 105.94 222.182 107.171 222.75C108.402 223.318 109.411 224.114 110.197 225.136C110.983 226.159 111.47 227.352 111.66 228.716H108.308C108.052 227.722 107.484 226.841 106.603 226.074C105.732 225.297 104.558 224.909 103.08 224.909C101.773 224.909 100.628 225.25 99.6428 225.932C98.6674 226.604 97.9051 227.556 97.3558 228.787C96.8161 230.009 96.5462 231.443 96.5462 233.091C96.5462 234.777 96.8113 236.244 97.3416 237.494C97.8814 238.744 98.639 239.715 99.6143 240.406C100.599 241.098 101.754 241.443 103.08 241.443C103.951 241.443 104.742 241.292 105.452 240.989C106.163 240.686 106.764 240.25 107.256 239.682C107.749 239.114 108.099 238.432 108.308 237.636H111.66C111.47 238.924 111.002 240.084 110.254 241.116C109.515 242.139 108.535 242.954 107.313 243.56C106.101 244.156 104.69 244.455 103.08 244.455ZM126.049 222.182V225.023H114.742V222.182H126.049ZM118.038 216.955H121.39V237.75C121.39 238.697 121.527 239.407 121.802 239.881C122.086 240.345 122.446 240.657 122.881 240.818C123.326 240.97 123.795 241.045 124.288 241.045C124.657 241.045 124.96 241.027 125.197 240.989C125.433 240.941 125.623 240.903 125.765 240.875L126.447 243.886C126.219 243.972 125.902 244.057 125.495 244.142C125.088 244.237 124.572 244.284 123.947 244.284C123 244.284 122.072 244.08 121.163 243.673C120.263 243.266 119.515 242.646 118.918 241.812C118.331 240.979 118.038 239.928 118.038 238.659V216.955ZM131.092 244V222.182H134.444V244H131.092ZM132.796 218.545C132.143 218.545 131.579 218.323 131.106 217.878C130.642 217.433 130.41 216.898 130.41 216.273C130.41 215.648 130.642 215.113 131.106 214.668C131.579 214.223 132.143 214 132.796 214C133.45 214 134.008 214.223 134.472 214.668C134.946 215.113 135.183 215.648 135.183 216.273C135.183 216.898 134.946 217.433 134.472 217.878C134.008 218.323 133.45 218.545 132.796 218.545ZM149.447 244.455C147.478 244.455 145.75 243.986 144.263 243.048C142.786 242.111 141.63 240.799 140.797 239.114C139.973 237.428 139.561 235.458 139.561 233.205C139.561 230.932 139.973 228.948 140.797 227.253C141.63 225.558 142.786 224.241 144.263 223.304C145.75 222.366 147.478 221.898 149.447 221.898C151.417 221.898 153.141 222.366 154.618 223.304C156.105 224.241 157.26 225.558 158.084 227.253C158.917 228.948 159.334 230.932 159.334 233.205C159.334 235.458 158.917 237.428 158.084 239.114C157.26 240.799 156.105 242.111 154.618 243.048C153.141 243.986 151.417 244.455 149.447 244.455ZM149.447 241.443C150.944 241.443 152.175 241.06 153.141 240.293C154.107 239.526 154.821 238.517 155.286 237.267C155.75 236.017 155.982 234.663 155.982 233.205C155.982 231.746 155.75 230.387 155.286 229.128C154.821 227.868 154.107 226.85 153.141 226.074C152.175 225.297 150.944 224.909 149.447 224.909C147.951 224.909 146.72 225.297 145.754 226.074C144.788 226.85 144.073 227.868 143.609 229.128C143.145 230.387 142.913 231.746 142.913 233.205C142.913 234.663 143.145 236.017 143.609 237.267C144.073 238.517 144.788 239.526 145.754 240.293C146.72 241.06 147.951 241.443 149.447 241.443ZM167.803 230.875V244H164.451V222.182H167.69V225.591H167.974C168.485 224.483 169.262 223.593 170.303 222.92C171.345 222.239 172.69 221.898 174.337 221.898C175.815 221.898 177.107 222.201 178.215 222.807C179.323 223.403 180.185 224.312 180.8 225.534C181.416 226.746 181.724 228.28 181.724 230.136V244H178.371V230.364C178.371 228.65 177.926 227.314 177.036 226.358C176.146 225.392 174.924 224.909 173.371 224.909C172.301 224.909 171.345 225.141 170.502 225.605C169.669 226.069 169.011 226.746 168.528 227.636C168.045 228.527 167.803 229.606 167.803 230.875ZM203.304 227.068L200.293 227.92C200.103 227.419 199.824 226.931 199.455 226.457C199.095 225.974 198.602 225.577 197.977 225.264C197.352 224.952 196.552 224.795 195.577 224.795C194.241 224.795 193.129 225.103 192.239 225.719C191.358 226.325 190.918 227.097 190.918 228.034C190.918 228.867 191.221 229.526 191.827 230.009C192.433 230.491 193.38 230.894 194.668 231.216L197.906 232.011C199.857 232.485 201.311 233.209 202.267 234.185C203.223 235.151 203.702 236.396 203.702 237.92C203.702 239.17 203.342 240.288 202.622 241.273C201.912 242.258 200.918 243.034 199.639 243.602C198.361 244.17 196.874 244.455 195.179 244.455C192.954 244.455 191.112 243.972 189.653 243.006C188.195 242.04 187.272 240.629 186.884 238.773L190.065 237.977C190.368 239.152 190.941 240.032 191.784 240.619C192.636 241.206 193.749 241.5 195.122 241.5C196.685 241.5 197.925 241.169 198.844 240.506C199.772 239.833 200.236 239.028 200.236 238.091C200.236 237.333 199.971 236.699 199.44 236.188C198.91 235.667 198.096 235.278 196.997 235.023L193.361 234.17C191.363 233.697 189.895 232.963 188.957 231.969C188.029 230.965 187.565 229.71 187.565 228.205C187.565 226.973 187.911 225.884 188.602 224.938C189.303 223.991 190.255 223.247 191.457 222.707C192.67 222.168 194.043 221.898 195.577 221.898C197.736 221.898 199.431 222.371 200.662 223.318C201.902 224.265 202.783 225.515 203.304 227.068Z" fill="black"/>
<path d="M2.52273 361V331.909H6.04545V357.875H19.5682V361H2.52273ZM33.7159 361.455C31.6136 361.455 29.8002 360.991 28.2756 360.062C26.7604 359.125 25.5909 357.818 24.767 356.142C23.9527 354.456 23.5455 352.496 23.5455 350.261C23.5455 348.027 23.9527 346.057 24.767 344.352C25.5909 342.638 26.7367 341.303 28.2045 340.347C29.6818 339.381 31.4053 338.898 33.375 338.898C34.5114 338.898 35.6335 339.087 36.7415 339.466C37.8494 339.845 38.858 340.46 39.767 341.312C40.6761 342.155 41.4006 343.273 41.9403 344.665C42.4801 346.057 42.75 347.771 42.75 349.807V351.227H25.9318V348.33H39.3409C39.3409 347.098 39.0947 346 38.6023 345.034C38.1193 344.068 37.428 343.306 36.5284 342.747C35.6383 342.188 34.5871 341.909 33.375 341.909C32.0398 341.909 30.8845 342.241 29.9091 342.903C28.9432 343.557 28.1998 344.409 27.679 345.46C27.1581 346.511 26.8977 347.638 26.8977 348.841V350.773C26.8977 352.42 27.1818 353.817 27.75 354.963C28.3277 356.099 29.1278 356.966 30.1506 357.562C31.1733 358.15 32.3617 358.443 33.7159 358.443C34.5966 358.443 35.392 358.32 36.1023 358.074C36.822 357.818 37.4422 357.439 37.9631 356.938C38.4839 356.426 38.8864 355.792 39.1705 355.034L42.4091 355.943C42.0682 357.042 41.4953 358.008 40.6903 358.841C39.8854 359.665 38.8911 360.309 37.7074 360.773C36.5237 361.227 35.1932 361.455 33.7159 361.455ZM54.2699 361.511C52.8873 361.511 51.6326 361.251 50.5057 360.73C49.3788 360.2 48.4839 359.438 47.821 358.443C47.1581 357.439 46.8267 356.227 46.8267 354.807C46.8267 353.557 47.0729 352.544 47.5653 351.767C48.0578 350.981 48.7159 350.366 49.5398 349.92C50.3636 349.475 51.2727 349.144 52.267 348.926C53.2708 348.699 54.2794 348.519 55.2926 348.386C56.6184 348.216 57.6932 348.088 58.517 348.003C59.3504 347.908 59.9564 347.752 60.3352 347.534C60.7235 347.316 60.9176 346.937 60.9176 346.398V346.284C60.9176 344.883 60.5341 343.794 59.767 343.017C59.0095 342.241 57.8589 341.852 56.3153 341.852C54.715 341.852 53.4602 342.203 52.5511 342.903C51.642 343.604 51.0028 344.352 50.6335 345.148L47.4517 344.011C48.0199 342.686 48.7775 341.653 49.7244 340.915C50.6809 340.167 51.7225 339.646 52.8494 339.352C53.9858 339.049 55.1032 338.898 56.2017 338.898C56.9025 338.898 57.7074 338.983 58.6165 339.153C59.535 339.314 60.4205 339.651 61.2727 340.162C62.1345 340.673 62.8494 341.445 63.4176 342.477C63.9858 343.509 64.2699 344.892 64.2699 346.625V361H60.9176V358.045H60.7472C60.5199 358.519 60.1411 359.026 59.6108 359.565C59.0805 360.105 58.375 360.564 57.4943 360.943C56.6136 361.322 55.5388 361.511 54.2699 361.511ZM54.7812 358.5C56.107 358.5 57.2244 358.24 58.1335 357.719C59.0521 357.198 59.7434 356.526 60.2074 355.702C60.6809 354.878 60.9176 354.011 60.9176 353.102V350.034C60.7756 350.205 60.4631 350.361 59.9801 350.503C59.5066 350.635 58.9574 350.754 58.3324 350.858C57.7169 350.953 57.1155 351.038 56.5284 351.114C55.9508 351.18 55.482 351.237 55.1222 351.284C54.2509 351.398 53.4366 351.582 52.679 351.838C51.9309 352.084 51.3248 352.458 50.8608 352.96C50.4063 353.453 50.179 354.125 50.179 354.977C50.179 356.142 50.6098 357.023 51.4716 357.619C52.3428 358.206 53.446 358.5 54.7812 358.5ZM70.3885 361V339.182H73.6271V342.477H73.8544C74.2521 341.398 74.9718 340.522 76.0135 339.849C77.0552 339.177 78.2294 338.841 79.5362 338.841C79.7824 338.841 80.0902 338.846 80.4595 338.855C80.8288 338.865 81.1082 338.879 81.2976 338.898V342.307C81.1839 342.278 80.9235 342.236 80.5163 342.179C80.1186 342.113 79.6972 342.08 79.2521 342.08C78.1915 342.08 77.2446 342.302 76.4112 342.747C75.5874 343.183 74.9339 343.789 74.451 344.565C73.9775 345.332 73.7408 346.208 73.7408 347.193V361H70.3885ZM88.6236 347.875V361H85.2713V339.182H88.5099V342.591H88.794C89.3054 341.483 90.0819 340.593 91.1236 339.92C92.1652 339.239 93.5099 338.898 95.1577 338.898C96.6349 338.898 97.9276 339.201 99.0355 339.807C100.143 340.403 101.005 341.312 101.621 342.534C102.236 343.746 102.544 345.28 102.544 347.136V361H99.1918V347.364C99.1918 345.65 98.7467 344.314 97.8565 343.358C96.9664 342.392 95.7448 341.909 94.1918 341.909C93.1217 341.909 92.1652 342.141 91.3224 342.605C90.4891 343.069 89.831 343.746 89.348 344.636C88.8651 345.527 88.6236 346.606 88.6236 347.875ZM108.67 361V339.182H112.022V361H108.67ZM110.374 335.545C109.721 335.545 109.157 335.323 108.684 334.878C108.22 334.433 107.988 333.898 107.988 333.273C107.988 332.648 108.22 332.113 108.684 331.668C109.157 331.223 109.721 331 110.374 331C111.028 331 111.586 331.223 112.05 331.668C112.524 332.113 112.761 332.648 112.761 333.273C112.761 333.898 112.524 334.433 112.05 334.878C111.586 335.323 111.028 335.545 110.374 335.545ZM121.514 347.875V361H118.162V339.182H121.401V342.591H121.685C122.196 341.483 122.973 340.593 124.014 339.92C125.056 339.239 126.401 338.898 128.048 338.898C129.526 338.898 130.818 339.201 131.926 339.807C133.034 340.403 133.896 341.312 134.511 342.534C135.127 343.746 135.435 345.28 135.435 347.136V361H132.082V347.364C132.082 345.65 131.637 344.314 130.747 343.358C129.857 342.392 128.635 341.909 127.082 341.909C126.012 341.909 125.056 342.141 124.213 342.605C123.38 343.069 122.722 343.746 122.239 344.636C121.756 345.527 121.514 346.606 121.514 347.875ZM150.367 369.636C148.748 369.636 147.356 369.428 146.191 369.011C145.026 368.604 144.056 368.064 143.279 367.392C142.512 366.729 141.901 366.019 141.447 365.261L144.117 363.386C144.42 363.784 144.804 364.239 145.268 364.75C145.732 365.271 146.366 365.721 147.171 366.099C147.986 366.488 149.051 366.682 150.367 366.682C152.129 366.682 153.582 366.256 154.728 365.403C155.874 364.551 156.447 363.216 156.447 361.398V356.966H156.163C155.916 357.364 155.566 357.856 155.112 358.443C154.666 359.021 154.022 359.537 153.18 359.991C152.346 360.437 151.219 360.659 149.799 360.659C148.038 360.659 146.456 360.242 145.055 359.409C143.663 358.576 142.559 357.364 141.745 355.773C140.94 354.182 140.538 352.25 140.538 349.977C140.538 347.742 140.931 345.796 141.717 344.139C142.503 342.473 143.596 341.185 144.998 340.276C146.399 339.357 148.019 338.898 149.856 338.898C151.276 338.898 152.403 339.134 153.237 339.608C154.079 340.072 154.723 340.602 155.168 341.199C155.623 341.786 155.973 342.269 156.219 342.648H156.56V339.182H159.799V361.625C159.799 363.5 159.373 365.025 158.521 366.199C157.678 367.383 156.541 368.249 155.112 368.798C153.691 369.357 152.11 369.636 150.367 369.636ZM150.254 357.648C151.598 357.648 152.735 357.34 153.663 356.724C154.591 356.109 155.296 355.223 155.779 354.068C156.262 352.913 156.504 351.53 156.504 349.92C156.504 348.348 156.267 346.961 155.793 345.759C155.32 344.556 154.619 343.614 153.691 342.932C152.763 342.25 151.617 341.909 150.254 341.909C148.833 341.909 147.649 342.269 146.702 342.989C145.765 343.708 145.059 344.674 144.586 345.886C144.122 347.098 143.89 348.443 143.89 349.92C143.89 351.436 144.127 352.776 144.6 353.94C145.083 355.096 145.793 356.005 146.731 356.668C147.678 357.321 148.852 357.648 150.254 357.648ZM177.185 361V339.182H180.424V342.591H180.708C181.163 341.426 181.897 340.522 182.91 339.878C183.923 339.224 185.14 338.898 186.56 338.898C188 338.898 189.198 339.224 190.154 339.878C191.12 340.522 191.873 341.426 192.413 342.591H192.64C193.199 341.464 194.037 340.569 195.154 339.906C196.272 339.234 197.612 338.898 199.174 338.898C201.125 338.898 202.72 339.509 203.961 340.73C205.201 341.942 205.822 343.831 205.822 346.398V361H202.469V346.398C202.469 344.788 202.029 343.637 201.148 342.946C200.268 342.255 199.231 341.909 198.038 341.909C196.504 341.909 195.315 342.373 194.472 343.301C193.629 344.22 193.208 345.384 193.208 346.795V361H189.799V346.057C189.799 344.816 189.397 343.817 188.592 343.06C187.787 342.293 186.75 341.909 185.481 341.909C184.61 341.909 183.795 342.141 183.038 342.605C182.29 343.069 181.683 343.713 181.219 344.537C180.765 345.351 180.538 346.294 180.538 347.364V361H177.185ZM218.371 361.511C216.989 361.511 215.734 361.251 214.607 360.73C213.48 360.2 212.585 359.438 211.923 358.443C211.26 357.439 210.928 356.227 210.928 354.807C210.928 353.557 211.174 352.544 211.667 351.767C212.159 350.981 212.817 350.366 213.641 349.92C214.465 349.475 215.374 349.144 216.369 348.926C217.372 348.699 218.381 348.519 219.394 348.386C220.72 348.216 221.795 348.088 222.619 348.003C223.452 347.908 224.058 347.752 224.437 347.534C224.825 347.316 225.019 346.937 225.019 346.398V346.284C225.019 344.883 224.636 343.794 223.869 343.017C223.111 342.241 221.96 341.852 220.417 341.852C218.817 341.852 217.562 342.203 216.653 342.903C215.744 343.604 215.104 344.352 214.735 345.148L211.553 344.011C212.121 342.686 212.879 341.653 213.826 340.915C214.782 340.167 215.824 339.646 216.951 339.352C218.087 339.049 219.205 338.898 220.303 338.898C221.004 338.898 221.809 338.983 222.718 339.153C223.637 339.314 224.522 339.651 225.374 340.162C226.236 340.673 226.951 341.445 227.519 342.477C228.087 343.509 228.371 344.892 228.371 346.625V361H225.019V358.045H224.849C224.621 358.519 224.243 359.026 223.712 359.565C223.182 360.105 222.477 360.564 221.596 360.943C220.715 361.322 219.64 361.511 218.371 361.511ZM218.883 358.5C220.209 358.5 221.326 358.24 222.235 357.719C223.154 357.198 223.845 356.526 224.309 355.702C224.782 354.878 225.019 354.011 225.019 353.102V350.034C224.877 350.205 224.565 350.361 224.082 350.503C223.608 350.635 223.059 350.754 222.434 350.858C221.818 350.953 221.217 351.038 220.63 351.114C220.052 351.18 219.584 351.237 219.224 351.284C218.353 351.398 217.538 351.582 216.781 351.838C216.032 352.084 215.426 352.458 214.962 352.96C214.508 353.453 214.281 354.125 214.281 354.977C214.281 356.142 214.711 357.023 215.573 357.619C216.444 358.206 217.548 358.5 218.883 358.5ZM243.979 339.182V342.023H232.672V339.182H243.979ZM235.967 333.955H239.32V354.75C239.32 355.697 239.457 356.407 239.732 356.881C240.016 357.345 240.375 357.657 240.811 357.818C241.256 357.97 241.725 358.045 242.217 358.045C242.587 358.045 242.89 358.027 243.126 357.989C243.363 357.941 243.553 357.903 243.695 357.875L244.376 360.886C244.149 360.972 243.832 361.057 243.425 361.142C243.018 361.237 242.501 361.284 241.876 361.284C240.929 361.284 240.001 361.08 239.092 360.673C238.193 360.266 237.445 359.646 236.848 358.812C236.261 357.979 235.967 356.928 235.967 355.659V333.955ZM257.935 361.455C255.832 361.455 254.019 360.991 252.494 360.062C250.979 359.125 249.81 357.818 248.986 356.142C248.171 354.456 247.764 352.496 247.764 350.261C247.764 348.027 248.171 346.057 248.986 344.352C249.81 342.638 250.955 341.303 252.423 340.347C253.901 339.381 255.624 338.898 257.594 338.898C258.73 338.898 259.852 339.087 260.96 339.466C262.068 339.845 263.077 340.46 263.986 341.312C264.895 342.155 265.619 343.273 266.159 344.665C266.699 346.057 266.969 347.771 266.969 349.807V351.227H250.151V348.33H263.56C263.56 347.098 263.313 346 262.821 345.034C262.338 344.068 261.647 343.306 260.747 342.747C259.857 342.188 258.806 341.909 257.594 341.909C256.259 341.909 255.103 342.241 254.128 342.903C253.162 343.557 252.419 344.409 251.898 345.46C251.377 346.511 251.116 347.638 251.116 348.841V350.773C251.116 352.42 251.401 353.817 251.969 354.963C252.546 356.099 253.347 356.966 254.369 357.562C255.392 358.15 256.58 358.443 257.935 358.443C258.815 358.443 259.611 358.32 260.321 358.074C261.041 357.818 261.661 357.439 262.182 356.938C262.703 356.426 263.105 355.792 263.389 355.034L266.628 355.943C266.287 357.042 265.714 358.008 264.909 358.841C264.104 359.665 263.11 360.309 261.926 360.773C260.742 361.227 259.412 361.455 257.935 361.455ZM272.068 361V339.182H275.307V342.477H275.534C275.932 341.398 276.652 340.522 277.693 339.849C278.735 339.177 279.909 338.841 281.216 338.841C281.462 338.841 281.77 338.846 282.139 338.855C282.509 338.865 282.788 338.879 282.977 338.898V342.307C282.864 342.278 282.603 342.236 282.196 342.179C281.798 342.113 281.377 342.08 280.932 342.08C279.871 342.08 278.924 342.302 278.091 342.747C277.267 343.183 276.614 343.789 276.131 344.565C275.657 345.332 275.42 346.208 275.42 347.193V361H272.068ZM286.951 361V339.182H290.303V361H286.951ZM288.656 335.545C288.002 335.545 287.439 335.323 286.965 334.878C286.501 334.433 286.269 333.898 286.269 333.273C286.269 332.648 286.501 332.113 286.965 331.668C287.439 331.223 288.002 331 288.656 331C289.309 331 289.868 331.223 290.332 331.668C290.805 332.113 291.042 332.648 291.042 333.273C291.042 333.898 290.805 334.433 290.332 334.878C289.868 335.323 289.309 335.545 288.656 335.545ZM302.864 361.511C301.481 361.511 300.226 361.251 299.099 360.73C297.973 360.2 297.078 359.438 296.415 358.443C295.752 357.439 295.42 356.227 295.42 354.807C295.42 353.557 295.667 352.544 296.159 351.767C296.652 350.981 297.31 350.366 298.134 349.92C298.957 349.475 299.866 349.144 300.861 348.926C301.865 348.699 302.873 348.519 303.886 348.386C305.212 348.216 306.287 348.088 307.111 348.003C307.944 347.908 308.55 347.752 308.929 347.534C309.317 347.316 309.511 346.937 309.511 346.398V346.284C309.511 344.883 309.128 343.794 308.361 343.017C307.603 342.241 306.453 341.852 304.909 341.852C303.309 341.852 302.054 342.203 301.145 342.903C300.236 343.604 299.597 344.352 299.227 345.148L296.045 344.011C296.614 342.686 297.371 341.653 298.318 340.915C299.275 340.167 300.316 339.646 301.443 339.352C302.58 339.049 303.697 338.898 304.795 338.898C305.496 338.898 306.301 338.983 307.21 339.153C308.129 339.314 309.014 339.651 309.866 340.162C310.728 340.673 311.443 341.445 312.011 342.477C312.58 343.509 312.864 344.892 312.864 346.625V361H309.511V358.045H309.341C309.114 358.519 308.735 359.026 308.205 359.565C307.674 360.105 306.969 360.564 306.088 360.943C305.207 361.322 304.133 361.511 302.864 361.511ZM303.375 358.5C304.701 358.5 305.818 358.24 306.727 357.719C307.646 357.198 308.337 356.526 308.801 355.702C309.275 354.878 309.511 354.011 309.511 353.102V350.034C309.369 350.205 309.057 350.361 308.574 350.503C308.1 350.635 307.551 350.754 306.926 350.858C306.311 350.953 305.709 351.038 305.122 351.114C304.545 351.18 304.076 351.237 303.716 351.284C302.845 351.398 302.03 351.582 301.273 351.838C300.525 352.084 299.919 352.458 299.455 352.96C299 353.453 298.773 354.125 298.773 354.977C298.773 356.142 299.204 357.023 300.065 357.619C300.937 358.206 302.04 358.5 303.375 358.5ZM322.335 331.909V361H318.982V331.909H322.335Z" fill="black"/>
<path d="M4.52273 478V448.909H14.6932C16.7197 448.909 18.3911 449.259 19.7074 449.96C21.0237 450.652 22.0038 451.584 22.6477 452.759C23.2917 453.923 23.6136 455.216 23.6136 456.636C23.6136 457.886 23.3911 458.919 22.946 459.733C22.5104 460.547 21.9328 461.191 21.2131 461.665C20.5028 462.138 19.7311 462.489 18.8977 462.716V463C19.7879 463.057 20.6828 463.369 21.5824 463.938C22.482 464.506 23.2348 465.32 23.8409 466.381C24.447 467.441 24.75 468.739 24.75 470.273C24.75 471.731 24.4186 473.043 23.7557 474.207C23.0928 475.372 22.0464 476.295 20.6165 476.977C19.1866 477.659 17.3258 478 15.0341 478H4.52273ZM8.04545 474.875H15.0341C17.3352 474.875 18.9688 474.43 19.9347 473.54C20.91 472.64 21.3977 471.551 21.3977 470.273C21.3977 469.288 21.1468 468.379 20.6449 467.545C20.143 466.703 19.428 466.03 18.5 465.528C17.572 465.017 16.4735 464.761 15.2045 464.761H8.04545V474.875ZM8.04545 461.693H14.5795C15.6402 461.693 16.5966 461.485 17.4489 461.068C18.3106 460.652 18.9924 460.064 19.4943 459.307C20.0057 458.549 20.2614 457.659 20.2614 456.636C20.2614 455.358 19.8163 454.274 18.9261 453.384C18.036 452.484 16.625 452.034 14.6932 452.034H8.04545V461.693ZM38.9474 478.455C36.9777 478.455 35.2495 477.986 33.7628 477.048C32.2855 476.111 31.1302 474.799 30.2969 473.114C29.473 471.428 29.0611 469.458 29.0611 467.205C29.0611 464.932 29.473 462.948 30.2969 461.253C31.1302 459.558 32.2855 458.241 33.7628 457.304C35.2495 456.366 36.9777 455.898 38.9474 455.898C40.9171 455.898 42.6406 456.366 44.1179 457.304C45.6046 458.241 46.7599 459.558 47.5838 461.253C48.4171 462.948 48.8338 464.932 48.8338 467.205C48.8338 469.458 48.4171 471.428 47.5838 473.114C46.7599 474.799 45.6046 476.111 44.1179 477.048C42.6406 477.986 40.9171 478.455 38.9474 478.455ZM38.9474 475.443C40.4437 475.443 41.6747 475.06 42.6406 474.293C43.6065 473.526 44.3215 472.517 44.7855 471.267C45.2495 470.017 45.4815 468.663 45.4815 467.205C45.4815 465.746 45.2495 464.387 44.7855 463.128C44.3215 461.868 43.6065 460.85 42.6406 460.074C41.6747 459.297 40.4437 458.909 38.9474 458.909C37.4512 458.909 36.2202 459.297 35.2543 460.074C34.2884 460.85 33.5734 461.868 33.1094 463.128C32.6454 464.387 32.4134 465.746 32.4134 467.205C32.4134 468.663 32.6454 470.017 33.1094 471.267C33.5734 472.517 34.2884 473.526 35.2543 474.293C36.2202 475.06 37.4512 475.443 38.9474 475.443ZM62.8146 478.455C60.8449 478.455 59.1167 477.986 57.63 477.048C56.1527 476.111 54.9974 474.799 54.1641 473.114C53.3402 471.428 52.9283 469.458 52.9283 467.205C52.9283 464.932 53.3402 462.948 54.1641 461.253C54.9974 459.558 56.1527 458.241 57.63 457.304C59.1167 456.366 60.8449 455.898 62.8146 455.898C64.7843 455.898 66.5078 456.366 67.9851 457.304C69.4718 458.241 70.6271 459.558 71.451 461.253C72.2843 462.948 72.701 464.932 72.701 467.205C72.701 469.458 72.2843 471.428 71.451 473.114C70.6271 474.799 69.4718 476.111 67.9851 477.048C66.5078 477.986 64.7843 478.455 62.8146 478.455ZM62.8146 475.443C64.3108 475.443 65.5419 475.06 66.5078 474.293C67.4737 473.526 68.1887 472.517 68.6527 471.267C69.1167 470.017 69.3487 468.663 69.3487 467.205C69.3487 465.746 69.1167 464.387 68.6527 463.128C68.1887 461.868 67.4737 460.85 66.5078 460.074C65.5419 459.297 64.3108 458.909 62.8146 458.909C61.3184 458.909 60.0874 459.297 59.1214 460.074C58.1555 460.85 57.4406 461.868 56.9766 463.128C56.5125 464.387 56.2805 465.746 56.2805 467.205C56.2805 468.663 56.5125 470.017 56.9766 471.267C57.4406 472.517 58.1555 473.526 59.1214 474.293C60.0874 475.06 61.3184 475.443 62.8146 475.443ZM80.9432 470.045L80.8864 465.898H81.5682L91.1136 456.182H95.2614L85.0909 466.466H84.8068L80.9432 470.045ZM77.8182 478V448.909H81.1705V478H77.8182ZM91.6818 478L83.1591 467.205L85.5455 464.875L95.9432 478H91.6818ZM99.576 478V456.182H102.928V478H99.576ZM101.281 452.545C100.627 452.545 100.064 452.323 99.5902 451.878C99.1262 451.433 98.8942 450.898 98.8942 450.273C98.8942 449.648 99.1262 449.113 99.5902 448.668C100.064 448.223 100.627 448 101.281 448C101.934 448 102.493 448.223 102.957 448.668C103.43 449.113 103.667 449.648 103.667 450.273C103.667 450.898 103.43 451.433 102.957 451.878C102.493 452.323 101.934 452.545 101.281 452.545ZM112.42 464.875V478H109.068V456.182H112.307V459.591H112.591C113.102 458.483 113.879 457.593 114.92 456.92C115.962 456.239 117.307 455.898 118.955 455.898C120.432 455.898 121.724 456.201 122.832 456.807C123.94 457.403 124.802 458.312 125.418 459.534C126.033 460.746 126.341 462.28 126.341 464.136V478H122.989V464.364C122.989 462.65 122.544 461.314 121.653 460.358C120.763 459.392 119.542 458.909 117.989 458.909C116.919 458.909 115.962 459.141 115.119 459.605C114.286 460.069 113.628 460.746 113.145 461.636C112.662 462.527 112.42 463.606 112.42 464.875ZM141.273 486.636C139.654 486.636 138.262 486.428 137.097 486.011C135.933 485.604 134.962 485.064 134.185 484.392C133.418 483.729 132.808 483.019 132.353 482.261L135.023 480.386C135.326 480.784 135.71 481.239 136.174 481.75C136.638 482.271 137.272 482.721 138.077 483.099C138.892 483.488 139.957 483.682 141.273 483.682C143.035 483.682 144.488 483.256 145.634 482.403C146.78 481.551 147.353 480.216 147.353 478.398V473.966H147.069C146.823 474.364 146.472 474.856 146.018 475.443C145.573 476.021 144.929 476.537 144.086 476.991C143.253 477.437 142.126 477.659 140.705 477.659C138.944 477.659 137.362 477.242 135.961 476.409C134.569 475.576 133.466 474.364 132.651 472.773C131.846 471.182 131.444 469.25 131.444 466.977C131.444 464.742 131.837 462.796 132.623 461.139C133.409 459.473 134.503 458.185 135.904 457.276C137.306 456.357 138.925 455.898 140.762 455.898C142.183 455.898 143.309 456.134 144.143 456.608C144.986 457.072 145.629 457.602 146.075 458.199C146.529 458.786 146.879 459.269 147.126 459.648H147.467V456.182H150.705V478.625C150.705 480.5 150.279 482.025 149.427 483.199C148.584 484.383 147.448 485.249 146.018 485.798C144.597 486.357 143.016 486.636 141.273 486.636ZM141.16 474.648C142.504 474.648 143.641 474.34 144.569 473.724C145.497 473.109 146.202 472.223 146.685 471.068C147.168 469.913 147.41 468.53 147.41 466.92C147.41 465.348 147.173 463.961 146.7 462.759C146.226 461.556 145.525 460.614 144.597 459.932C143.669 459.25 142.523 458.909 141.16 458.909C139.739 458.909 138.556 459.269 137.609 459.989C136.671 460.708 135.966 461.674 135.492 462.886C135.028 464.098 134.796 465.443 134.796 466.92C134.796 468.436 135.033 469.776 135.506 470.94C135.989 472.096 136.7 473.005 137.637 473.668C138.584 474.321 139.758 474.648 141.16 474.648ZM172.296 461.068L169.285 461.92C169.095 461.419 168.816 460.931 168.447 460.457C168.087 459.974 167.594 459.577 166.969 459.264C166.344 458.952 165.544 458.795 164.569 458.795C163.234 458.795 162.121 459.103 161.231 459.719C160.35 460.325 159.91 461.097 159.91 462.034C159.91 462.867 160.213 463.526 160.819 464.009C161.425 464.491 162.372 464.894 163.66 465.216L166.898 466.011C168.849 466.485 170.303 467.209 171.259 468.185C172.216 469.151 172.694 470.396 172.694 471.92C172.694 473.17 172.334 474.288 171.614 475.273C170.904 476.258 169.91 477.034 168.631 477.602C167.353 478.17 165.866 478.455 164.171 478.455C161.946 478.455 160.104 477.972 158.646 477.006C157.187 476.04 156.264 474.629 155.876 472.773L159.058 471.977C159.361 473.152 159.933 474.032 160.776 474.619C161.629 475.206 162.741 475.5 164.114 475.5C165.677 475.5 166.917 475.169 167.836 474.506C168.764 473.833 169.228 473.028 169.228 472.091C169.228 471.333 168.963 470.699 168.433 470.188C167.902 469.667 167.088 469.278 165.989 469.023L162.353 468.17C160.355 467.697 158.887 466.963 157.95 465.969C157.022 464.965 156.558 463.71 156.558 462.205C156.558 460.973 156.903 459.884 157.594 458.938C158.295 457.991 159.247 457.247 160.45 456.707C161.662 456.168 163.035 455.898 164.569 455.898C166.728 455.898 168.423 456.371 169.654 457.318C170.895 458.265 171.775 459.515 172.296 461.068Z" fill="black"/>
<rect x="1" y="102" width="88" height="80" fill="#393939"/>
<rect x="1" y="102" width="88" height="80" fill="#FFFCFC"/>
<path d="M2 183V102H91V183H2Z" stroke="black"/>
<path d="M90 182.5L1.5 102M90 102L1.5 182.5" stroke="black"/>
<path d="M27.0568 178V169.273H30.0057C30.6903 169.273 31.25 169.396 31.6847 169.643C32.1222 169.888 32.446 170.219 32.6562 170.636C32.8665 171.054 32.9716 171.52 32.9716 172.034C32.9716 172.548 32.8665 173.016 32.6562 173.436C32.4489 173.857 32.1278 174.192 31.6932 174.442C31.2585 174.689 30.7017 174.812 30.0227 174.812H27.9091V173.875H29.9886C30.4574 173.875 30.8338 173.794 31.1179 173.632C31.402 173.47 31.608 173.251 31.7358 172.976C31.8665 172.697 31.9318 172.384 31.9318 172.034C31.9318 171.685 31.8665 171.372 31.7358 171.097C31.608 170.821 31.4006 170.605 31.1136 170.449C30.8267 170.29 30.446 170.21 29.9716 170.21H28.1136V178H27.0568ZM34.5376 178V171.455H35.5092V172.443H35.5774C35.6967 172.119 35.9126 171.857 36.2251 171.655C36.5376 171.453 36.8899 171.352 37.282 171.352C37.3558 171.352 37.4482 171.354 37.5589 171.357C37.6697 171.359 37.7536 171.364 37.8104 171.369V172.392C37.7763 172.384 37.6982 172.371 37.576 172.354C37.4567 172.334 37.3303 172.324 37.1967 172.324C36.8786 172.324 36.5945 172.391 36.3445 172.524C36.0973 172.655 35.9013 172.837 35.7564 173.07C35.6143 173.3 35.5433 173.562 35.5433 173.858V178H34.5376ZM41.4624 178.136C40.8714 178.136 40.353 177.996 39.907 177.714C39.4638 177.433 39.1172 177.04 38.8672 176.534C38.62 176.028 38.4964 175.437 38.4964 174.761C38.4964 174.08 38.62 173.484 38.8672 172.976C39.1172 172.467 39.4638 172.072 39.907 171.791C40.353 171.51 40.8714 171.369 41.4624 171.369C42.0533 171.369 42.5703 171.51 43.0135 171.791C43.4595 172.072 43.8061 172.467 44.0533 172.976C44.3033 173.484 44.4283 174.08 44.4283 174.761C44.4283 175.437 44.3033 176.028 44.0533 176.534C43.8061 177.04 43.4595 177.433 43.0135 177.714C42.5703 177.996 42.0533 178.136 41.4624 178.136ZM41.4624 177.233C41.9112 177.233 42.2805 177.118 42.5703 176.888C42.8601 176.658 43.0746 176.355 43.2138 175.98C43.353 175.605 43.4226 175.199 43.4226 174.761C43.4226 174.324 43.353 173.916 43.2138 173.538C43.0746 173.161 42.8601 172.855 42.5703 172.622C42.2805 172.389 41.9112 172.273 41.4624 172.273C41.0135 172.273 40.6442 172.389 40.3544 172.622C40.0646 172.855 39.8501 173.161 39.7109 173.538C39.5717 173.916 39.5021 174.324 39.5021 174.761C39.5021 175.199 39.5717 175.605 39.7109 175.98C39.8501 176.355 40.0646 176.658 40.3544 176.888C40.6442 177.118 41.0135 177.233 41.4624 177.233ZM48.8782 171.455V172.307H45.3498V171.455H48.8782ZM46.4066 178V170.551C46.4066 170.176 46.4947 169.864 46.6708 169.614C46.8469 169.364 47.0756 169.176 47.3569 169.051C47.6381 168.926 47.935 168.864 48.2475 168.864C48.4947 168.864 48.6964 168.884 48.8526 168.923C49.0089 168.963 49.1254 169 49.2021 169.034L48.9123 169.903C48.8612 169.886 48.7901 169.865 48.6992 169.839C48.6112 169.814 48.4947 169.801 48.3498 169.801C48.0174 169.801 47.7773 169.885 47.6296 170.053C47.4847 170.22 47.4123 170.466 47.4123 170.79V178H46.4066ZM50.2876 178V171.455H51.2933V178H50.2876ZM50.799 170.364C50.603 170.364 50.4339 170.297 50.2919 170.163C50.1527 170.03 50.0831 169.869 50.0831 169.682C50.0831 169.494 50.1527 169.334 50.2919 169.2C50.4339 169.067 50.603 169 50.799 169C50.995 169 51.1626 169.067 51.3018 169.2C51.4439 169.334 51.5149 169.494 51.5149 169.682C51.5149 169.869 51.4439 170.03 51.3018 170.163C51.1626 170.297 50.995 170.364 50.799 170.364ZM54.141 169.273V178H53.1353V169.273H54.141ZM58.7273 178.136C58.0966 178.136 57.5526 177.997 57.0952 177.719C56.6406 177.438 56.2898 177.045 56.0426 176.543C55.7983 176.037 55.6761 175.449 55.6761 174.778C55.6761 174.108 55.7983 173.517 56.0426 173.006C56.2898 172.491 56.6335 172.091 57.0739 171.804C57.517 171.514 58.0341 171.369 58.625 171.369C58.9659 171.369 59.3026 171.426 59.6349 171.54C59.9673 171.653 60.2699 171.838 60.5426 172.094C60.8153 172.347 61.0327 172.682 61.1946 173.099C61.3565 173.517 61.4375 174.031 61.4375 174.642V175.068H56.392V174.199H60.4148C60.4148 173.83 60.3409 173.5 60.1932 173.21C60.0483 172.92 59.8409 172.692 59.571 172.524C59.304 172.357 58.9886 172.273 58.625 172.273C58.2244 172.273 57.8778 172.372 57.5852 172.571C57.2955 172.767 57.0724 173.023 56.9162 173.338C56.7599 173.653 56.6818 173.991 56.6818 174.352V174.932C56.6818 175.426 56.767 175.845 56.9375 176.189C57.1108 176.53 57.3509 176.79 57.6577 176.969C57.9645 177.145 58.321 177.233 58.7273 177.233C58.9915 177.233 59.2301 177.196 59.4432 177.122C59.6591 177.045 59.8452 176.932 60.0014 176.781C60.1577 176.628 60.2784 176.437 60.3636 176.21L61.3352 176.483C61.233 176.812 61.0611 177.102 60.8196 177.352C60.5781 177.599 60.2798 177.793 59.9247 177.932C59.5696 178.068 59.1705 178.136 58.7273 178.136Z" fill="black"/>
</g>
<defs>
<clipPath id="clip0_1_2">
<rect width="440" height="956" fill="white"/>
</clipPath>
</defs>
</svg>
