<svg width="1920" height="1080" viewBox="0 0 1920 1080" fill="none" xmlns="http://www.w3.org/2000/svg">
<rect width="1920" height="1080" fill="#F5F5F5"/>
<g clip-path="url(#clip0_0_1)">
<rect width="1920" height="1080" fill="white"/>
<rect width="1920" height="80" fill="#D9D9D9"/>
<path d="M19.6364 62V15.4545H35.3636C39 15.4545 41.9848 16.0758 44.3182 17.3182C46.6515 18.5455 48.3788 20.2348 49.5 22.3864C50.6212 24.5379 51.1818 26.9848 51.1818 29.7273C51.1818 32.4697 50.6212 34.9015 49.5 37.0227C48.3788 39.1439 46.6591 40.8106 44.3409 42.0227C42.0227 43.2197 39.0606 43.8182 35.4545 43.8182H22.7273V38.7273H35.2727C37.7576 38.7273 39.7576 38.3636 41.2727 37.6364C42.803 36.9091 43.9091 35.8788 44.5909 34.5455C45.2879 33.197 45.6364 31.5909 45.6364 29.7273C45.6364 27.8636 45.2879 26.2348 44.5909 24.8409C43.8939 23.447 42.7803 22.3712 41.25 21.6136C39.7197 20.8409 37.697 20.4545 35.1818 20.4545H25.2727V62H19.6364ZM41.5455 41.0909L53 62H46.4545L35.1818 41.0909H41.5455ZM59.0284 62V57.9091L84.1193 20.4545H58.7557V15.4545H90.8466V19.5455L65.7557 57H91.1193V62H59.0284ZM102.483 62H96.5739L113.665 15.4545H119.483L136.574 62H130.665L116.756 22.8182H116.392L102.483 62ZM104.665 43.8182H128.483V48.8182H104.665V43.8182Z" fill="black"/>
<path d="M1437.64 62V15.4545H1453.91C1457.15 15.4545 1459.83 16.0152 1461.93 17.1364C1464.04 18.2424 1465.61 19.7348 1466.64 21.6136C1467.67 23.4773 1468.18 25.5455 1468.18 27.8182C1468.18 29.8182 1467.83 31.4697 1467.11 32.7727C1466.42 34.0758 1465.49 35.1061 1464.34 35.8636C1463.2 36.6212 1461.97 37.1818 1460.64 37.5455V38C1462.06 38.0909 1463.49 38.5909 1464.93 39.5C1466.37 40.4091 1467.58 41.7121 1468.55 43.4091C1469.52 45.1061 1470 47.1818 1470 49.6364C1470 51.9697 1469.47 54.0682 1468.41 55.9318C1467.35 57.7955 1465.67 59.2727 1463.39 60.3636C1461.1 61.4545 1458.12 62 1454.45 62H1437.64ZM1443.27 57H1454.45C1458.14 57 1460.75 56.2879 1462.3 54.8636C1463.86 53.4242 1464.64 51.6818 1464.64 49.6364C1464.64 48.0606 1464.23 46.6061 1463.43 45.2727C1462.63 43.9242 1461.48 42.8485 1460 42.0455C1458.52 41.2273 1456.76 40.8182 1454.73 40.8182H1443.27V57ZM1443.27 35.9091H1453.73C1455.42 35.9091 1456.95 35.5758 1458.32 34.9091C1459.7 34.2424 1460.79 33.303 1461.59 32.0909C1462.41 30.8788 1462.82 29.4545 1462.82 27.8182C1462.82 25.7727 1462.11 24.0379 1460.68 22.6136C1459.26 21.1742 1457 20.4545 1453.91 20.4545H1443.27V35.9091ZM1492.72 62.7273C1489.56 62.7273 1486.8 61.9773 1484.42 60.4773C1482.06 58.9773 1480.21 56.8788 1478.88 54.1818C1477.56 51.4848 1476.9 48.3333 1476.9 44.7273C1476.9 41.0909 1477.56 37.9167 1478.88 35.2045C1480.21 32.4924 1482.06 30.3864 1484.42 28.8864C1486.8 27.3864 1489.56 26.6364 1492.72 26.6364C1495.87 26.6364 1498.63 27.3864 1500.99 28.8864C1503.37 30.3864 1505.22 32.4924 1506.53 35.2045C1507.87 37.9167 1508.53 41.0909 1508.53 44.7273C1508.53 48.3333 1507.87 51.4848 1506.53 54.1818C1505.22 56.8788 1503.37 58.9773 1500.99 60.4773C1498.63 61.9773 1495.87 62.7273 1492.72 62.7273ZM1492.72 57.9091C1495.11 57.9091 1497.08 57.2955 1498.62 56.0682C1500.17 54.8409 1501.31 53.2273 1502.06 51.2273C1502.8 49.2273 1503.17 47.0606 1503.17 44.7273C1503.17 42.3939 1502.8 40.2197 1502.06 38.2045C1501.31 36.1894 1500.17 34.5606 1498.62 33.3182C1497.08 32.0758 1495.11 31.4545 1492.72 31.4545C1490.32 31.4545 1488.35 32.0758 1486.81 33.3182C1485.26 34.5606 1484.12 36.1894 1483.38 38.2045C1482.63 40.2197 1482.26 42.3939 1482.26 44.7273C1482.26 47.0606 1482.63 49.2273 1483.38 51.2273C1484.12 53.2273 1485.26 54.8409 1486.81 56.0682C1488.35 57.2955 1490.32 57.9091 1492.72 57.9091ZM1530.9 62.7273C1527.75 62.7273 1524.99 61.9773 1522.61 60.4773C1520.24 58.9773 1518.4 56.8788 1517.06 54.1818C1515.74 51.4848 1515.09 48.3333 1515.09 44.7273C1515.09 41.0909 1515.74 37.9167 1517.06 35.2045C1518.4 32.4924 1520.24 30.3864 1522.61 28.8864C1524.99 27.3864 1527.75 26.6364 1530.9 26.6364C1534.05 26.6364 1536.81 27.3864 1539.18 28.8864C1541.55 30.3864 1543.4 32.4924 1544.72 35.2045C1546.05 37.9167 1546.72 41.0909 1546.72 44.7273C1546.72 48.3333 1546.05 51.4848 1544.72 54.1818C1543.4 56.8788 1541.55 58.9773 1539.18 60.4773C1536.81 61.9773 1534.05 62.7273 1530.9 62.7273ZM1530.9 57.9091C1533.3 57.9091 1535.27 57.2955 1536.81 56.0682C1538.36 54.8409 1539.5 53.2273 1540.24 51.2273C1540.99 49.2273 1541.36 47.0606 1541.36 44.7273C1541.36 42.3939 1540.99 40.2197 1540.24 38.2045C1539.5 36.1894 1538.36 34.5606 1536.81 33.3182C1535.27 32.0758 1533.3 31.4545 1530.9 31.4545C1528.51 31.4545 1526.54 32.0758 1524.99 33.3182C1523.45 34.5606 1522.3 36.1894 1521.56 38.2045C1520.82 40.2197 1520.45 42.3939 1520.45 44.7273C1520.45 47.0606 1520.82 49.2273 1521.56 51.2273C1522.3 53.2273 1523.45 54.8409 1524.99 56.0682C1526.54 57.2955 1528.51 57.9091 1530.9 57.9091ZM1559.91 49.2727L1559.82 42.6364H1560.91L1576.18 27.0909H1582.82L1566.55 43.5455H1566.09L1559.91 49.2727ZM1554.91 62V15.4545H1560.27V62H1554.91ZM1577.09 62L1563.45 44.7273L1567.27 41L1583.91 62H1577.09ZM1589.72 62V27.0909H1595.09V62H1589.72ZM1592.45 21.2727C1591.4 21.2727 1590.5 20.9167 1589.74 20.2045C1589 19.4924 1588.63 18.6364 1588.63 17.6364C1588.63 16.6364 1589 15.7803 1589.74 15.0682C1590.5 14.3561 1591.4 14 1592.45 14C1593.49 14 1594.39 14.3561 1595.13 15.0682C1595.89 15.7803 1596.27 16.6364 1596.27 17.6364C1596.27 18.6364 1595.89 19.4924 1595.13 20.2045C1594.39 20.9167 1593.49 21.2727 1592.45 21.2727ZM1610.27 41V62H1604.91V27.0909H1610.09V32.5455H1610.55C1611.36 30.7727 1612.61 29.3485 1614.27 28.2727C1615.94 27.1818 1618.09 26.6364 1620.73 26.6364C1623.09 26.6364 1625.16 27.1212 1626.93 28.0909C1628.7 29.0455 1630.08 30.5 1631.07 32.4545C1632.05 34.3939 1632.55 36.8485 1632.55 39.8182V62H1627.18V40.1818C1627.18 37.4394 1626.47 35.303 1625.05 33.7727C1623.62 32.2273 1621.67 31.4545 1619.18 31.4545C1617.47 31.4545 1615.94 31.8258 1614.59 32.5682C1613.26 33.3106 1612.2 34.3939 1611.43 35.8182C1610.66 37.2424 1610.27 38.9697 1610.27 41ZM1656.44 75.8182C1653.85 75.8182 1651.62 75.4848 1649.76 74.8182C1647.89 74.1667 1646.34 73.303 1645.1 72.2273C1643.87 71.1667 1642.89 70.0303 1642.16 68.8182L1646.44 65.8182C1646.92 66.4545 1647.54 67.1818 1648.28 68C1649.02 68.8333 1650.04 69.553 1651.32 70.1591C1652.63 70.7803 1654.33 71.0909 1656.44 71.0909C1659.26 71.0909 1661.58 70.4091 1663.41 69.0455C1665.25 67.6818 1666.16 65.5455 1666.16 62.6364V55.5455H1665.71C1665.32 56.1818 1664.76 56.9697 1664.03 57.9091C1663.32 58.8333 1662.29 59.6591 1660.94 60.3864C1659.6 61.0985 1657.8 61.4545 1655.53 61.4545C1652.71 61.4545 1650.18 60.7879 1647.94 59.4545C1645.71 58.1212 1643.95 56.1818 1642.64 53.6364C1641.35 51.0909 1640.71 48 1640.71 44.3636C1640.71 40.7879 1641.34 37.6742 1642.6 35.0227C1643.85 32.3561 1645.6 30.2955 1647.85 28.8409C1650.09 27.3712 1652.68 26.6364 1655.62 26.6364C1657.89 26.6364 1659.7 27.0152 1661.03 27.7727C1662.38 28.5152 1663.41 29.3636 1664.12 30.3182C1664.85 31.2576 1665.41 32.0303 1665.8 32.6364H1666.35V27.0909H1671.53V63C1671.53 66 1670.85 68.4394 1669.48 70.3182C1668.13 72.2121 1666.32 73.5985 1664.03 74.4773C1661.76 75.3712 1659.23 75.8182 1656.44 75.8182ZM1656.26 56.6364C1658.41 56.6364 1660.23 56.1439 1661.71 55.1591C1663.2 54.1742 1664.32 52.7576 1665.1 50.9091C1665.87 49.0606 1666.26 46.8485 1666.26 44.2727C1666.26 41.7576 1665.88 39.5379 1665.12 37.6136C1664.36 35.6894 1663.24 34.1818 1661.76 33.0909C1660.27 32 1658.44 31.4545 1656.26 31.4545C1653.98 31.4545 1652.09 32.0303 1650.57 33.1818C1649.07 34.3333 1647.95 35.8788 1647.19 37.8182C1646.45 39.7576 1646.07 41.9091 1646.07 44.2727C1646.07 46.697 1646.45 48.8409 1647.21 50.7045C1647.98 52.553 1649.12 54.0076 1650.62 55.0682C1652.13 56.1136 1654.01 56.6364 1656.26 56.6364ZM1706.07 34.9091L1701.26 36.2727C1700.95 35.4697 1700.51 34.6894 1699.91 33.9318C1699.34 33.1591 1698.55 32.5227 1697.55 32.0227C1696.55 31.5227 1695.27 31.2727 1693.71 31.2727C1691.57 31.2727 1689.79 31.7652 1688.37 32.75C1686.96 33.7197 1686.26 34.9545 1686.26 36.4545C1686.26 37.7879 1686.74 38.8409 1687.71 39.6136C1688.68 40.3864 1690.2 41.0303 1692.26 41.5455L1697.44 42.8182C1700.56 43.5758 1702.88 44.7348 1704.41 46.2955C1705.95 47.8409 1706.71 49.8333 1706.71 52.2727C1706.71 54.2727 1706.13 56.0606 1704.98 57.6364C1703.85 59.2121 1702.26 60.4545 1700.21 61.3636C1698.16 62.2727 1695.79 62.7273 1693.07 62.7273C1689.51 62.7273 1686.57 61.9545 1684.23 60.4091C1681.9 58.8636 1680.42 56.6061 1679.8 53.6364L1684.89 52.3636C1685.38 54.2424 1686.29 55.6515 1687.64 56.5909C1689.01 57.5303 1690.79 58 1692.98 58C1695.48 58 1697.47 57.4697 1698.94 56.4091C1700.42 55.3333 1701.16 54.0455 1701.16 52.5455C1701.16 51.3333 1700.74 50.3182 1699.89 49.5C1699.04 48.6667 1697.74 48.0455 1695.98 47.6364L1690.16 46.2727C1686.97 45.5152 1684.62 44.3409 1683.12 42.75C1681.63 41.1439 1680.89 39.1364 1680.89 36.7273C1680.89 34.7576 1681.45 33.0152 1682.55 31.5C1683.67 29.9848 1685.2 28.7955 1687.12 27.9318C1689.06 27.0682 1691.26 26.6364 1693.71 26.6364C1697.16 26.6364 1699.88 27.3939 1701.85 28.9091C1703.83 30.4242 1705.24 32.4242 1706.07 34.9091Z" fill="black"/>
<path d="M369.545 62H363.636L380.727 15.4545H386.545L403.636 62H397.727L383.818 22.8182H383.455L369.545 62ZM371.727 43.8182H395.545V48.8182H371.727V43.8182ZM423.153 27.0909V31.6364H405.062V27.0909H423.153ZM410.335 18.7273H415.699V52C415.699 53.5152 415.919 54.6515 416.358 55.4091C416.813 56.1515 417.388 56.6515 418.085 56.9091C418.797 57.1515 419.547 57.2727 420.335 57.2727C420.926 57.2727 421.411 57.2424 421.79 57.1818C422.169 57.1061 422.472 57.0455 422.699 57L423.79 61.8182C423.426 61.9545 422.919 62.0909 422.267 62.2273C421.616 62.3788 420.79 62.4545 419.79 62.4545C418.275 62.4545 416.79 62.1288 415.335 61.4773C413.896 60.8258 412.699 59.8333 411.744 58.5C410.805 57.1667 410.335 55.4848 410.335 53.4545V18.7273ZM446.403 27.0909V31.6364H428.312V27.0909H446.403ZM433.585 18.7273H438.949V52C438.949 53.5152 439.169 54.6515 439.608 55.4091C440.063 56.1515 440.638 56.6515 441.335 56.9091C442.047 57.1515 442.797 57.2727 443.585 57.2727C444.176 57.2727 444.661 57.2424 445.04 57.1818C445.419 57.1061 445.722 57.0455 445.949 57L447.04 61.8182C446.676 61.9545 446.169 62.0909 445.517 62.2273C444.866 62.3788 444.04 62.4545 443.04 62.4545C441.525 62.4545 440.04 62.1288 438.585 61.4773C437.146 60.8258 435.949 59.8333 434.994 58.5C434.055 57.1667 433.585 55.4848 433.585 53.4545V18.7273ZM454.472 62V27.0909H459.653V32.3636H460.017C460.653 30.6364 461.805 29.2348 463.472 28.1591C465.138 27.0833 467.017 26.5455 469.108 26.5455C469.502 26.5455 469.994 26.553 470.585 26.5682C471.176 26.5833 471.623 26.6061 471.926 26.6364V32.0909C471.744 32.0455 471.328 31.9773 470.676 31.8864C470.04 31.7803 469.366 31.7273 468.653 31.7273C466.956 31.7273 465.441 32.0833 464.108 32.7955C462.79 33.4924 461.744 34.4621 460.972 35.7045C460.214 36.9318 459.835 38.3333 459.835 39.9091V62H454.472ZM488.557 62.8182C486.345 62.8182 484.337 62.4015 482.534 61.5682C480.731 60.7197 479.299 59.5 478.239 57.9091C477.178 56.303 476.648 54.3636 476.648 52.0909C476.648 50.0909 477.042 48.4697 477.83 47.2273C478.617 45.9697 479.67 44.9848 480.989 44.2727C482.307 43.5606 483.761 43.0303 485.352 42.6818C486.958 42.3182 488.572 42.0303 490.193 41.8182C492.314 41.5455 494.034 41.3409 495.352 41.2045C496.686 41.053 497.655 40.803 498.261 40.4545C498.883 40.1061 499.193 39.5 499.193 38.6364V38.4545C499.193 36.2121 498.58 34.4697 497.352 33.2273C496.14 31.9848 494.299 31.3636 491.83 31.3636C489.269 31.3636 487.261 31.9242 485.807 33.0455C484.352 34.1667 483.33 35.3636 482.739 36.6364L477.648 34.8182C478.557 32.697 479.769 31.0455 481.284 29.8636C482.814 28.6667 484.481 27.8333 486.284 27.3636C488.102 26.8788 489.89 26.6364 491.648 26.6364C492.769 26.6364 494.057 26.7727 495.511 27.0455C496.981 27.303 498.398 27.8409 499.761 28.6591C501.14 29.4773 502.284 30.7121 503.193 32.3636C504.102 34.0152 504.557 36.2273 504.557 39V62H499.193V57.2727H498.92C498.557 58.0303 497.951 58.8409 497.102 59.7045C496.254 60.5682 495.125 61.303 493.716 61.9091C492.307 62.5152 490.587 62.8182 488.557 62.8182ZM489.375 58C491.496 58 493.284 57.5833 494.739 56.75C496.208 55.9167 497.314 54.8409 498.057 53.5227C498.814 52.2045 499.193 50.8182 499.193 49.3636V44.4545C498.966 44.7273 498.466 44.9773 497.693 45.2045C496.936 45.4167 496.057 45.6061 495.057 45.7727C494.072 45.9242 493.11 46.0606 492.17 46.1818C491.246 46.2879 490.496 46.3788 489.92 46.4545C488.527 46.6364 487.223 46.9318 486.011 47.3409C484.814 47.7348 483.845 48.3333 483.102 49.1364C482.375 49.9242 482.011 51 482.011 52.3636C482.011 54.2273 482.701 55.6364 484.08 56.5909C485.473 57.5303 487.239 58 489.375 58ZM528.528 62.7273C525.256 62.7273 522.438 61.9545 520.074 60.4091C517.71 58.8636 515.892 56.7348 514.619 54.0227C513.347 51.3106 512.71 48.2121 512.71 44.7273C512.71 41.1818 513.362 38.053 514.665 35.3409C515.983 32.6136 517.816 30.4848 520.165 28.9545C522.528 27.4091 525.286 26.6364 528.438 26.6364C530.892 26.6364 533.104 27.0909 535.074 28C537.044 28.9091 538.657 30.1818 539.915 31.8182C541.172 33.4545 541.953 35.3636 542.256 37.5455H536.892C536.483 35.9545 535.574 34.5455 534.165 33.3182C532.771 32.0758 530.892 31.4545 528.528 31.4545C526.438 31.4545 524.604 32 523.028 33.0909C521.468 34.1667 520.248 35.6894 519.369 37.6591C518.506 39.6136 518.074 41.9091 518.074 44.5455C518.074 47.2424 518.498 49.5909 519.347 51.5909C520.21 53.5909 521.422 55.1439 522.983 56.25C524.559 57.3561 526.407 57.9091 528.528 57.9091C529.922 57.9091 531.188 57.6667 532.324 57.1818C533.46 56.697 534.422 56 535.21 55.0909C535.998 54.1818 536.559 53.0909 536.892 51.8182H542.256C541.953 53.8788 541.203 55.7348 540.006 57.3864C538.824 59.0227 537.256 60.3258 535.301 61.2955C533.362 62.25 531.104 62.7273 528.528 62.7273ZM565.278 27.0909V31.6364H547.188V27.0909H565.278ZM552.46 18.7273H557.824V52C557.824 53.5152 558.044 54.6515 558.483 55.4091C558.938 56.1515 559.513 56.6515 560.21 56.9091C560.922 57.1515 561.672 57.2727 562.46 57.2727C563.051 57.2727 563.536 57.2424 563.915 57.1818C564.294 57.1061 564.597 57.0455 564.824 57L565.915 61.8182C565.551 61.9545 565.044 62.0909 564.392 62.2273C563.741 62.3788 562.915 62.4545 561.915 62.4545C560.4 62.4545 558.915 62.1288 557.46 61.4773C556.021 60.8258 554.824 59.8333 553.869 58.5C552.93 57.1667 552.46 55.4848 552.46 53.4545V18.7273ZM573.347 62V27.0909H578.71V62H573.347ZM576.074 21.2727C575.028 21.2727 574.127 20.9167 573.369 20.2045C572.627 19.4924 572.256 18.6364 572.256 17.6364C572.256 16.6364 572.627 15.7803 573.369 15.0682C574.127 14.3561 575.028 14 576.074 14C577.119 14 578.013 14.3561 578.756 15.0682C579.513 15.7803 579.892 16.6364 579.892 17.6364C579.892 18.6364 579.513 19.4924 578.756 20.2045C578.013 20.9167 577.119 21.2727 576.074 21.2727ZM602.716 62.7273C599.564 62.7273 596.799 61.9773 594.42 60.4773C592.057 58.9773 590.208 56.8788 588.875 54.1818C587.557 51.4848 586.898 48.3333 586.898 44.7273C586.898 41.0909 587.557 37.9167 588.875 35.2045C590.208 32.4924 592.057 30.3864 594.42 28.8864C596.799 27.3864 599.564 26.6364 602.716 26.6364C605.867 26.6364 608.625 27.3864 610.989 28.8864C613.367 30.3864 615.216 32.4924 616.534 35.2045C617.867 37.9167 618.534 41.0909 618.534 44.7273C618.534 48.3333 617.867 51.4848 616.534 54.1818C615.216 56.8788 613.367 58.9773 610.989 60.4773C608.625 61.9773 605.867 62.7273 602.716 62.7273ZM602.716 57.9091C605.11 57.9091 607.08 57.2955 608.625 56.0682C610.17 54.8409 611.314 53.2273 612.057 51.2273C612.799 49.2273 613.17 47.0606 613.17 44.7273C613.17 42.3939 612.799 40.2197 612.057 38.2045C611.314 36.1894 610.17 34.5606 608.625 33.3182C607.08 32.0758 605.11 31.4545 602.716 31.4545C600.322 31.4545 598.352 32.0758 596.807 33.3182C595.261 34.5606 594.117 36.1894 593.375 38.2045C592.633 40.2197 592.261 42.3939 592.261 44.7273C592.261 47.0606 592.633 49.2273 593.375 51.2273C594.117 53.2273 595.261 54.8409 596.807 56.0682C598.352 57.2955 600.322 57.9091 602.716 57.9091ZM632.085 41V62H626.722V27.0909H631.903V32.5455H632.358C633.176 30.7727 634.419 29.3485 636.085 28.2727C637.752 27.1818 639.903 26.6364 642.54 26.6364C644.903 26.6364 646.972 27.1212 648.744 28.0909C650.517 29.0455 651.896 30.5 652.881 32.4545C653.866 34.3939 654.358 36.8485 654.358 39.8182V62H648.994V40.1818C648.994 37.4394 648.282 35.303 646.858 33.7727C645.434 32.2273 643.479 31.4545 640.994 31.4545C639.282 31.4545 637.752 31.8258 636.403 32.5682C635.07 33.3106 634.017 34.3939 633.244 35.8182C632.472 37.2424 632.085 38.9697 632.085 41ZM688.886 34.9091L684.068 36.2727C683.765 35.4697 683.318 34.6894 682.727 33.9318C682.152 33.1591 681.364 32.5227 680.364 32.0227C679.364 31.5227 678.083 31.2727 676.523 31.2727C674.386 31.2727 672.606 31.7652 671.182 32.75C669.773 33.7197 669.068 34.9545 669.068 36.4545C669.068 37.7879 669.553 38.8409 670.523 39.6136C671.492 40.3864 673.008 41.0303 675.068 41.5455L680.25 42.8182C683.371 43.5758 685.697 44.7348 687.227 46.2955C688.758 47.8409 689.523 49.8333 689.523 52.2727C689.523 54.2727 688.947 56.0606 687.795 57.6364C686.659 59.2121 685.068 60.4545 683.023 61.3636C680.977 62.2727 678.598 62.7273 675.886 62.7273C672.326 62.7273 669.379 61.9545 667.045 60.4091C664.712 58.8636 663.235 56.6061 662.614 53.6364L667.705 52.3636C668.189 54.2424 669.106 55.6515 670.455 56.5909C671.818 57.5303 673.598 58 675.795 58C678.295 58 680.28 57.4697 681.75 56.4091C683.235 55.3333 683.977 54.0455 683.977 52.5455C683.977 51.3333 683.553 50.3182 682.705 49.5C681.856 48.6667 680.553 48.0455 678.795 47.6364L672.977 46.2727C669.78 45.5152 667.432 44.3409 665.932 42.75C664.447 41.1439 663.705 39.1364 663.705 36.7273C663.705 34.7576 664.258 33.0152 665.364 31.5C666.485 29.9848 668.008 28.7955 669.932 27.9318C671.871 27.0682 674.068 26.6364 676.523 26.6364C679.977 26.6364 682.689 27.3939 684.659 28.9091C686.644 30.4242 688.053 32.4242 688.886 34.9091Z" fill="black"/>
<path d="M799.636 62V15.4545H805.273V57H826.909V62H799.636ZM849.545 62.7273C846.182 62.7273 843.28 61.9848 840.841 60.5C838.417 59 836.545 56.9091 835.227 54.2273C833.924 51.5303 833.273 48.3939 833.273 44.8182C833.273 41.2424 833.924 38.0909 835.227 35.3636C836.545 32.6212 838.379 30.4848 840.727 28.9545C843.091 27.4091 845.848 26.6364 849 26.6364C850.818 26.6364 852.614 26.9394 854.386 27.5455C856.159 28.1515 857.773 29.1364 859.227 30.5C860.682 31.8485 861.841 33.6364 862.705 35.8636C863.568 38.0909 864 40.8333 864 44.0909V46.3636H837.091V41.7273H858.545C858.545 39.7576 858.152 38 857.364 36.4545C856.591 34.9091 855.485 33.6894 854.045 32.7955C852.621 31.9015 850.939 31.4545 849 31.4545C846.864 31.4545 845.015 31.9848 843.455 33.0455C841.909 34.0909 840.72 35.4545 839.886 37.1364C839.053 38.8182 838.636 40.6212 838.636 42.5455V45.6364C838.636 48.2727 839.091 50.5076 840 52.3409C840.924 54.1591 842.205 55.5455 843.841 56.5C845.477 57.4394 847.379 57.9091 849.545 57.9091C850.955 57.9091 852.227 57.7121 853.364 57.3182C854.515 56.9091 855.508 56.303 856.341 55.5C857.174 54.6818 857.818 53.6667 858.273 52.4545L863.455 53.9091C862.909 55.6667 861.992 57.2121 860.705 58.5455C859.417 59.8636 857.826 60.8939 855.932 61.6364C854.038 62.3636 851.909 62.7273 849.545 62.7273ZM882.432 62.8182C880.22 62.8182 878.212 62.4015 876.409 61.5682C874.606 60.7197 873.174 59.5 872.114 57.9091C871.053 56.303 870.523 54.3636 870.523 52.0909C870.523 50.0909 870.917 48.4697 871.705 47.2273C872.492 45.9697 873.545 44.9848 874.864 44.2727C876.182 43.5606 877.636 43.0303 879.227 42.6818C880.833 42.3182 882.447 42.0303 884.068 41.8182C886.189 41.5455 887.909 41.3409 889.227 41.2045C890.561 41.053 891.53 40.803 892.136 40.4545C892.758 40.1061 893.068 39.5 893.068 38.6364V38.4545C893.068 36.2121 892.455 34.4697 891.227 33.2273C890.015 31.9848 888.174 31.3636 885.705 31.3636C883.144 31.3636 881.136 31.9242 879.682 33.0455C878.227 34.1667 877.205 35.3636 876.614 36.6364L871.523 34.8182C872.432 32.697 873.644 31.0455 875.159 29.8636C876.689 28.6667 878.356 27.8333 880.159 27.3636C881.977 26.8788 883.765 26.6364 885.523 26.6364C886.644 26.6364 887.932 26.7727 889.386 27.0455C890.856 27.303 892.273 27.8409 893.636 28.6591C895.015 29.4773 896.159 30.7121 897.068 32.3636C897.977 34.0152 898.432 36.2273 898.432 39V62H893.068V57.2727H892.795C892.432 58.0303 891.826 58.8409 890.977 59.7045C890.129 60.5682 889 61.303 887.591 61.9091C886.182 62.5152 884.462 62.8182 882.432 62.8182ZM883.25 58C885.371 58 887.159 57.5833 888.614 56.75C890.083 55.9167 891.189 54.8409 891.932 53.5227C892.689 52.2045 893.068 50.8182 893.068 49.3636V44.4545C892.841 44.7273 892.341 44.9773 891.568 45.2045C890.811 45.4167 889.932 45.6061 888.932 45.7727C887.947 45.9242 886.985 46.0606 886.045 46.1818C885.121 46.2879 884.371 46.3788 883.795 46.4545C882.402 46.6364 881.098 46.9318 879.886 47.3409C878.689 47.7348 877.72 48.3333 876.977 49.1364C876.25 49.9242 875.886 51 875.886 52.3636C875.886 54.2273 876.576 55.6364 877.955 56.5909C879.348 57.5303 881.114 58 883.25 58ZM908.222 62V27.0909H913.403V32.3636H913.767C914.403 30.6364 915.555 29.2348 917.222 28.1591C918.888 27.0833 920.767 26.5455 922.858 26.5455C923.252 26.5455 923.744 26.553 924.335 26.5682C924.926 26.5833 925.373 26.6061 925.676 26.6364V32.0909C925.494 32.0455 925.078 31.9773 924.426 31.8864C923.79 31.7803 923.116 31.7273 922.403 31.7273C920.706 31.7273 919.191 32.0833 917.858 32.7955C916.54 33.4924 915.494 34.4621 914.722 35.7045C913.964 36.9318 913.585 38.3333 913.585 39.9091V62H908.222ZM937.398 41V62H932.034V27.0909H937.216V32.5455H937.67C938.489 30.7727 939.731 29.3485 941.398 28.2727C943.064 27.1818 945.216 26.6364 947.852 26.6364C950.216 26.6364 952.284 27.1212 954.057 28.0909C955.83 29.0455 957.208 30.5 958.193 32.4545C959.178 34.3939 959.67 36.8485 959.67 39.8182V62H954.307V40.1818C954.307 37.4394 953.595 35.303 952.17 33.7727C950.746 32.2273 948.792 31.4545 946.307 31.4545C944.595 31.4545 943.064 31.8258 941.716 32.5682C940.383 33.3106 939.33 34.3939 938.557 35.8182C937.784 37.2424 937.398 38.9697 937.398 41ZM969.472 62V27.0909H974.835V62H969.472ZM972.199 21.2727C971.153 21.2727 970.252 20.9167 969.494 20.2045C968.752 19.4924 968.381 18.6364 968.381 17.6364C968.381 16.6364 968.752 15.7803 969.494 15.0682C970.252 14.3561 971.153 14 972.199 14C973.244 14 974.138 14.3561 974.881 15.0682C975.638 15.7803 976.017 16.6364 976.017 17.6364C976.017 18.6364 975.638 19.4924 974.881 20.2045C974.138 20.9167 973.244 21.2727 972.199 21.2727ZM990.023 41V62H984.659V27.0909H989.841V32.5455H990.295C991.114 30.7727 992.356 29.3485 994.023 28.2727C995.689 27.1818 997.841 26.6364 1000.48 26.6364C1002.84 26.6364 1004.91 27.1212 1006.68 28.0909C1008.45 29.0455 1009.83 30.5 1010.82 32.4545C1011.8 34.3939 1012.3 36.8485 1012.3 39.8182V62H1006.93V40.1818C1006.93 37.4394 1006.22 35.303 1004.8 33.7727C1003.37 32.2273 1001.42 31.4545 998.932 31.4545C997.22 31.4545 995.689 31.8258 994.341 32.5682C993.008 33.3106 991.955 34.3939 991.182 35.8182C990.409 37.2424 990.023 38.9697 990.023 41ZM1036.19 75.8182C1033.6 75.8182 1031.37 75.4848 1029.51 74.8182C1027.64 74.1667 1026.09 73.303 1024.85 72.2273C1023.62 71.1667 1022.64 70.0303 1021.91 68.8182L1026.19 65.8182C1026.67 66.4545 1027.29 67.1818 1028.03 68C1028.77 68.8333 1029.79 69.553 1031.07 70.1591C1032.38 70.7803 1034.08 71.0909 1036.19 71.0909C1039.01 71.0909 1041.33 70.4091 1043.16 69.0455C1045 67.6818 1045.91 65.5455 1045.91 62.6364V55.5455H1045.46C1045.07 56.1818 1044.51 56.9697 1043.78 57.9091C1043.07 58.8333 1042.04 59.6591 1040.69 60.3864C1039.35 61.0985 1037.55 61.4545 1035.28 61.4545C1032.46 61.4545 1029.93 60.7879 1027.69 59.4545C1025.46 58.1212 1023.7 56.1818 1022.39 53.6364C1021.1 51.0909 1020.46 48 1020.46 44.3636C1020.46 40.7879 1021.09 37.6742 1022.35 35.0227C1023.6 32.3561 1025.35 30.2955 1027.6 28.8409C1029.84 27.3712 1032.43 26.6364 1035.37 26.6364C1037.64 26.6364 1039.45 27.0152 1040.78 27.7727C1042.13 28.5152 1043.16 29.3636 1043.87 30.3182C1044.6 31.2576 1045.16 32.0303 1045.55 32.6364H1046.1V27.0909H1051.28V63C1051.28 66 1050.6 68.4394 1049.23 70.3182C1047.88 72.2121 1046.07 73.5985 1043.78 74.4773C1041.51 75.3712 1038.98 75.8182 1036.19 75.8182ZM1036.01 56.6364C1038.16 56.6364 1039.98 56.1439 1041.46 55.1591C1042.95 54.1742 1044.07 52.7576 1044.85 50.9091C1045.62 49.0606 1046.01 46.8485 1046.01 44.2727C1046.01 41.7576 1045.63 39.5379 1044.87 37.6136C1044.11 35.6894 1042.99 34.1818 1041.51 33.0909C1040.02 32 1038.19 31.4545 1036.01 31.4545C1033.73 31.4545 1031.84 32.0303 1030.32 33.1818C1028.82 34.3333 1027.7 35.8788 1026.94 37.8182C1026.2 39.7576 1025.82 41.9091 1025.82 44.2727C1025.82 46.697 1026.2 48.8409 1026.96 50.7045C1027.73 52.553 1028.87 54.0076 1030.37 55.0682C1031.88 56.1136 1033.76 56.6364 1036.01 56.6364ZM1079.1 62V27.0909H1084.28V32.5455H1084.73C1085.46 30.6818 1086.63 29.2348 1088.26 28.2045C1089.88 27.1591 1091.82 26.6364 1094.1 26.6364C1096.4 26.6364 1098.32 27.1591 1099.85 28.2045C1101.39 29.2348 1102.6 30.6818 1103.46 32.5455H1103.82C1104.72 30.7424 1106.06 29.3106 1107.85 28.25C1109.63 27.1742 1111.78 26.6364 1114.28 26.6364C1117.4 26.6364 1119.95 27.6136 1121.94 29.5682C1123.92 31.5076 1124.91 34.5303 1124.91 38.6364V62H1119.55V38.6364C1119.55 36.0606 1118.85 34.2197 1117.44 33.1136C1116.03 32.0076 1114.37 31.4545 1112.46 31.4545C1110.01 31.4545 1108.1 32.197 1106.76 33.6818C1105.41 35.1515 1104.73 37.0152 1104.73 39.2727V62H1099.28V38.0909C1099.28 36.1061 1098.63 34.5076 1097.35 33.2955C1096.06 32.0682 1094.4 31.4545 1092.37 31.4545C1090.98 31.4545 1089.67 31.8258 1088.46 32.5682C1087.26 33.3106 1086.29 34.3409 1085.55 35.6591C1084.82 36.9621 1084.46 38.4697 1084.46 40.1818V62H1079.1ZM1144.99 62.8182C1142.78 62.8182 1140.77 62.4015 1138.97 61.5682C1137.17 60.7197 1135.74 59.5 1134.68 57.9091C1133.62 56.303 1133.09 54.3636 1133.09 52.0909C1133.09 50.0909 1133.48 48.4697 1134.27 47.2273C1135.05 45.9697 1136.11 44.9848 1137.43 44.2727C1138.74 43.5606 1140.2 43.0303 1141.79 42.6818C1143.4 42.3182 1145.01 42.0303 1146.63 41.8182C1148.75 41.5455 1150.47 41.3409 1151.79 41.2045C1153.12 41.053 1154.09 40.803 1154.7 40.4545C1155.32 40.1061 1155.63 39.5 1155.63 38.6364V38.4545C1155.63 36.2121 1155.02 34.4697 1153.79 33.2273C1152.58 31.9848 1150.74 31.3636 1148.27 31.3636C1145.71 31.3636 1143.7 31.9242 1142.24 33.0455C1140.79 34.1667 1139.77 35.3636 1139.18 36.6364L1134.09 34.8182C1134.99 32.697 1136.21 31.0455 1137.72 29.8636C1139.25 28.6667 1140.92 27.8333 1142.72 27.3636C1144.54 26.8788 1146.33 26.6364 1148.09 26.6364C1149.21 26.6364 1150.49 26.7727 1151.95 27.0455C1153.42 27.303 1154.84 27.8409 1156.2 28.6591C1157.58 29.4773 1158.72 30.7121 1159.63 32.3636C1160.54 34.0152 1160.99 36.2273 1160.99 39V62H1155.63V57.2727H1155.36C1154.99 58.0303 1154.39 58.8409 1153.54 59.7045C1152.69 60.5682 1151.56 61.303 1150.15 61.9091C1148.74 62.5152 1147.02 62.8182 1144.99 62.8182ZM1145.81 58C1147.93 58 1149.72 57.5833 1151.18 56.75C1152.65 55.9167 1153.75 54.8409 1154.49 53.5227C1155.25 52.2045 1155.63 50.8182 1155.63 49.3636V44.4545C1155.4 44.7273 1154.9 44.9773 1154.13 45.2045C1153.37 45.4167 1152.49 45.6061 1151.49 45.7727C1150.51 45.9242 1149.55 46.0606 1148.61 46.1818C1147.68 46.2879 1146.93 46.3788 1146.36 46.4545C1144.96 46.6364 1143.66 46.9318 1142.45 47.3409C1141.25 47.7348 1140.28 48.3333 1139.54 49.1364C1138.81 49.9242 1138.45 51 1138.45 52.3636C1138.45 54.2273 1139.14 55.6364 1140.52 56.5909C1141.91 57.5303 1143.68 58 1145.81 58ZM1185.97 27.0909V31.6364H1167.88V27.0909H1185.97ZM1173.15 18.7273H1178.51V52C1178.51 53.5152 1178.73 54.6515 1179.17 55.4091C1179.63 56.1515 1180.2 56.6515 1180.9 56.9091C1181.61 57.1515 1182.36 57.2727 1183.15 57.2727C1183.74 57.2727 1184.22 57.2424 1184.6 57.1818C1184.98 57.1061 1185.28 57.0455 1185.51 57L1186.6 61.8182C1186.24 61.9545 1185.73 62.0909 1185.08 62.2273C1184.43 62.3788 1183.6 62.4545 1182.6 62.4545C1181.09 62.4545 1179.6 62.1288 1178.15 61.4773C1176.71 60.8258 1175.51 59.8333 1174.56 58.5C1173.62 57.1667 1173.15 55.4848 1173.15 53.4545V18.7273ZM1208.3 62.7273C1204.93 62.7273 1202.03 61.9848 1199.59 60.5C1197.17 59 1195.3 56.9091 1193.98 54.2273C1192.67 51.5303 1192.02 48.3939 1192.02 44.8182C1192.02 41.2424 1192.67 38.0909 1193.98 35.3636C1195.3 32.6212 1197.13 30.4848 1199.48 28.9545C1201.84 27.4091 1204.6 26.6364 1207.75 26.6364C1209.57 26.6364 1211.36 26.9394 1213.14 27.5455C1214.91 28.1515 1216.52 29.1364 1217.98 30.5C1219.43 31.8485 1220.59 33.6364 1221.45 35.8636C1222.32 38.0909 1222.75 40.8333 1222.75 44.0909V46.3636H1195.84V41.7273H1217.3C1217.3 39.7576 1216.9 38 1216.11 36.4545C1215.34 34.9091 1214.23 33.6894 1212.8 32.7955C1211.37 31.9015 1209.69 31.4545 1207.75 31.4545C1205.61 31.4545 1203.77 31.9848 1202.2 33.0455C1200.66 34.0909 1199.47 35.4545 1198.64 37.1364C1197.8 38.8182 1197.39 40.6212 1197.39 42.5455V45.6364C1197.39 48.2727 1197.84 50.5076 1198.75 52.3409C1199.67 54.1591 1200.95 55.5455 1202.59 56.5C1204.23 57.4394 1206.13 57.9091 1208.3 57.9091C1209.7 57.9091 1210.98 57.7121 1212.11 57.3182C1213.27 56.9091 1214.26 56.303 1215.09 55.5C1215.92 54.6818 1216.57 53.6667 1217.02 52.4545L1222.2 53.9091C1221.66 55.6667 1220.74 57.2121 1219.45 58.5455C1218.17 59.8636 1216.58 60.8939 1214.68 61.6364C1212.79 62.3636 1210.66 62.7273 1208.3 62.7273ZM1230.91 62V27.0909H1236.09V32.3636H1236.45C1237.09 30.6364 1238.24 29.2348 1239.91 28.1591C1241.58 27.0833 1243.45 26.5455 1245.55 26.5455C1245.94 26.5455 1246.43 26.553 1247.02 26.5682C1247.61 26.5833 1248.06 26.6061 1248.36 26.6364V32.0909C1248.18 32.0455 1247.77 31.9773 1247.11 31.8864C1246.48 31.7803 1245.8 31.7273 1245.09 31.7273C1243.39 31.7273 1241.88 32.0833 1240.55 32.7955C1239.23 33.4924 1238.18 34.4621 1237.41 35.7045C1236.65 36.9318 1236.27 38.3333 1236.27 39.9091V62H1230.91ZM1254.72 62V27.0909H1260.09V62H1254.72ZM1257.45 21.2727C1256.4 21.2727 1255.5 20.9167 1254.74 20.2045C1254 19.4924 1253.63 18.6364 1253.63 17.6364C1253.63 16.6364 1254 15.7803 1254.74 15.0682C1255.5 14.3561 1256.4 14 1257.45 14C1258.49 14 1259.39 14.3561 1260.13 15.0682C1260.89 15.7803 1261.27 16.6364 1261.27 17.6364C1261.27 18.6364 1260.89 19.4924 1260.13 20.2045C1259.39 20.9167 1258.49 21.2727 1257.45 21.2727ZM1280.18 62.8182C1277.97 62.8182 1275.96 62.4015 1274.16 61.5682C1272.36 60.7197 1270.92 59.5 1269.86 57.9091C1268.8 56.303 1268.27 54.3636 1268.27 52.0909C1268.27 50.0909 1268.67 48.4697 1269.45 47.2273C1270.24 45.9697 1271.3 44.9848 1272.61 44.2727C1273.93 43.5606 1275.39 43.0303 1276.98 42.6818C1278.58 42.3182 1280.2 42.0303 1281.82 41.8182C1283.94 41.5455 1285.66 41.3409 1286.98 41.2045C1288.31 41.053 1289.28 40.803 1289.89 40.4545C1290.51 40.1061 1290.82 39.5 1290.82 38.6364V38.4545C1290.82 36.2121 1290.2 34.4697 1288.98 33.2273C1287.77 31.9848 1285.92 31.3636 1283.45 31.3636C1280.89 31.3636 1278.89 31.9242 1277.43 33.0455C1275.98 34.1667 1274.95 35.3636 1274.36 36.6364L1269.27 34.8182C1270.18 32.697 1271.39 31.0455 1272.91 29.8636C1274.44 28.6667 1276.11 27.8333 1277.91 27.3636C1279.73 26.8788 1281.52 26.6364 1283.27 26.6364C1284.39 26.6364 1285.68 26.7727 1287.14 27.0455C1288.61 27.303 1290.02 27.8409 1291.39 28.6591C1292.77 29.4773 1293.91 30.7121 1294.82 32.3636C1295.73 34.0152 1296.18 36.2273 1296.18 39V62H1290.82V57.2727H1290.55C1290.18 58.0303 1289.58 58.8409 1288.73 59.7045C1287.88 60.5682 1286.75 61.303 1285.34 61.9091C1283.93 62.5152 1282.21 62.8182 1280.18 62.8182ZM1281 58C1283.12 58 1284.91 57.5833 1286.36 56.75C1287.83 55.9167 1288.94 54.8409 1289.68 53.5227C1290.44 52.2045 1290.82 50.8182 1290.82 49.3636V44.4545C1290.59 44.7273 1290.09 44.9773 1289.32 45.2045C1288.56 45.4167 1287.68 45.6061 1286.68 45.7727C1285.7 45.9242 1284.73 46.0606 1283.8 46.1818C1282.87 46.2879 1282.12 46.3788 1281.55 46.4545C1280.15 46.6364 1278.85 46.9318 1277.64 47.3409C1276.44 47.7348 1275.47 48.3333 1274.73 49.1364C1274 49.9242 1273.64 51 1273.64 52.3636C1273.64 54.2273 1274.33 55.6364 1275.7 56.5909C1277.1 57.5303 1278.86 58 1281 58ZM1311.34 15.4545V62H1305.97V15.4545H1311.34Z" fill="black"/>
<rect x="1832" width="88" height="80" fill="#FFFCFC"/>
<path d="M1833 81V0H1922V81H1833Z" stroke="black"/>
<rect x="150" y="1" width="92" height="81" fill="#F8F8F8"/>
<path d="M150 80H241.5M150 80V0.5M150 80L241.5 0.5M241.5 80V0.5M241.5 80L150 0.5M241.5 0.5H150" stroke="black"/>
<path d="M166.227 77V68.2727H167.523V69.5909H167.614C167.773 69.1591 168.061 68.8087 168.477 68.5398C168.894 68.2708 169.364 68.1364 169.886 68.1364C169.985 68.1364 170.108 68.1383 170.256 68.142C170.403 68.1458 170.515 68.1515 170.591 68.1591V69.5227C170.545 69.5114 170.441 69.4943 170.278 69.4716C170.119 69.4451 169.951 69.4318 169.773 69.4318C169.348 69.4318 168.97 69.5208 168.636 69.6989C168.307 69.8731 168.045 70.1155 167.852 70.4261C167.663 70.733 167.568 71.0833 167.568 71.4773V77H166.227ZM171.93 77V75.9773L176.885 69.6136V69.5227H172.089V68.2727H178.612V69.3409L173.794 75.6591V75.75H178.771V77H171.93ZM183.405 77.2045C182.852 77.2045 182.35 77.1004 181.899 76.892C181.448 76.6799 181.09 76.375 180.825 75.9773C180.56 75.5758 180.428 75.0909 180.428 74.5227C180.428 74.0227 180.526 73.6174 180.723 73.3068C180.92 72.9924 181.183 72.7462 181.513 72.5682C181.842 72.3902 182.206 72.2576 182.604 72.1705C183.005 72.0795 183.409 72.0076 183.814 71.9545C184.344 71.8864 184.774 71.8352 185.104 71.8011C185.437 71.7633 185.679 71.7008 185.831 71.6136C185.986 71.5265 186.064 71.375 186.064 71.1591V71.1136C186.064 70.553 185.911 70.1174 185.604 69.8068C185.301 69.4962 184.84 69.3409 184.223 69.3409C183.583 69.3409 183.081 69.4811 182.717 69.7614C182.354 70.0417 182.098 70.3409 181.95 70.6591L180.678 70.2045C180.905 69.6742 181.208 69.2614 181.587 68.9659C181.969 68.6667 182.386 68.4583 182.837 68.3409C183.291 68.2197 183.738 68.1591 184.178 68.1591C184.458 68.1591 184.78 68.1932 185.143 68.2614C185.511 68.3258 185.865 68.4602 186.206 68.6648C186.551 68.8693 186.837 69.178 187.064 69.5909C187.291 70.0038 187.405 70.5568 187.405 71.25V77H186.064V75.8182H185.996C185.905 76.0076 185.753 76.2102 185.541 76.4261C185.329 76.642 185.047 76.8258 184.695 76.9773C184.342 77.1288 183.912 77.2045 183.405 77.2045ZM183.609 76C184.14 76 184.587 75.8958 184.95 75.6875C185.318 75.4792 185.594 75.2102 185.78 74.8807C185.969 74.5511 186.064 74.2045 186.064 73.8409V72.6136C186.007 72.6818 185.882 72.7443 185.689 72.8011C185.5 72.8542 185.28 72.9015 185.03 72.9432C184.784 72.9811 184.543 73.0152 184.308 73.0455C184.077 73.072 183.89 73.0947 183.746 73.1136C183.397 73.1591 183.071 73.233 182.768 73.3352C182.469 73.4337 182.227 73.5833 182.041 73.7841C181.859 73.9811 181.768 74.25 181.768 74.5909C181.768 75.0568 181.941 75.4091 182.286 75.6477C182.634 75.8826 183.075 76 183.609 76ZM195.693 65.3636V77H194.352V65.3636H195.693ZM201.695 77.1818C200.907 77.1818 200.215 76.9943 199.621 76.6193C199.03 76.2443 198.568 75.7197 198.234 75.0455C197.905 74.3712 197.74 73.5833 197.74 72.6818C197.74 71.7727 197.905 70.9792 198.234 70.3011C198.568 69.6231 199.03 69.0966 199.621 68.7216C200.215 68.3466 200.907 68.1591 201.695 68.1591C202.482 68.1591 203.172 68.3466 203.763 68.7216C204.357 69.0966 204.82 69.6231 205.149 70.3011C205.482 70.9792 205.649 71.7727 205.649 72.6818C205.649 73.5833 205.482 74.3712 205.149 75.0455C204.82 75.7197 204.357 76.2443 203.763 76.6193C203.172 76.9943 202.482 77.1818 201.695 77.1818ZM201.695 75.9773C202.293 75.9773 202.786 75.8239 203.172 75.517C203.558 75.2102 203.844 74.8068 204.03 74.3068C204.215 73.8068 204.308 73.2652 204.308 72.6818C204.308 72.0985 204.215 71.5549 204.03 71.0511C203.844 70.5473 203.558 70.1402 203.172 69.8295C202.786 69.5189 202.293 69.3636 201.695 69.3636C201.096 69.3636 200.604 69.5189 200.217 69.8295C199.831 70.1402 199.545 70.5473 199.359 71.0511C199.174 71.5549 199.081 72.0985 199.081 72.6818C199.081 73.2652 199.174 73.8068 199.359 74.3068C199.545 74.8068 199.831 75.2102 200.217 75.517C200.604 75.8239 201.096 75.9773 201.695 75.9773ZM211.219 80.4545C210.571 80.4545 210.014 80.3712 209.548 80.2045C209.082 80.0417 208.694 79.8258 208.384 79.5568C208.077 79.2917 207.832 79.0076 207.651 78.7045L208.719 77.9545C208.84 78.1136 208.993 78.2955 209.179 78.5C209.365 78.7083 209.618 78.8883 209.94 79.0398C210.266 79.1951 210.692 79.2727 211.219 79.2727C211.923 79.2727 212.505 79.1023 212.963 78.7614C213.421 78.4205 213.651 77.8864 213.651 77.1591V75.3864H213.537C213.438 75.5455 213.298 75.7424 213.116 75.9773C212.938 76.2083 212.681 76.4148 212.344 76.5966C212.01 76.7746 211.56 76.8636 210.991 76.8636C210.287 76.8636 209.654 76.697 209.094 76.3636C208.537 76.0303 208.096 75.5455 207.77 74.9091C207.448 74.2727 207.287 73.5 207.287 72.5909C207.287 71.697 207.444 70.9186 207.759 70.2557C208.073 69.589 208.51 69.0739 209.071 68.7102C209.632 68.3428 210.279 68.1591 211.014 68.1591C211.582 68.1591 212.033 68.2538 212.366 68.4432C212.704 68.6288 212.961 68.8409 213.139 69.0795C213.321 69.3144 213.461 69.5076 213.56 69.6591H213.696V68.2727H214.991V77.25C214.991 78 214.821 78.6098 214.48 79.0795C214.143 79.553 213.688 79.8996 213.116 80.1193C212.548 80.3428 211.916 80.4545 211.219 80.4545ZM211.173 75.6591C211.711 75.6591 212.166 75.536 212.537 75.2898C212.908 75.0436 213.19 74.6894 213.384 74.2273C213.577 73.7652 213.673 73.2121 213.673 72.5682C213.673 71.9394 213.579 71.3845 213.389 70.9034C213.2 70.4223 212.92 70.0455 212.548 69.7727C212.177 69.5 211.719 69.3636 211.173 69.3636C210.605 69.3636 210.132 69.5076 209.753 69.7955C209.378 70.0833 209.096 70.4697 208.906 70.9545C208.721 71.4394 208.628 71.9773 208.628 72.5682C208.628 73.1742 208.723 73.7102 208.912 74.1761C209.105 74.6383 209.389 75.0019 209.764 75.267C210.143 75.5284 210.613 75.6591 211.173 75.6591ZM220.991 77.1818C220.204 77.1818 219.512 76.9943 218.918 76.6193C218.327 76.2443 217.865 75.7197 217.531 75.0455C217.202 74.3712 217.037 73.5833 217.037 72.6818C217.037 71.7727 217.202 70.9792 217.531 70.3011C217.865 69.6231 218.327 69.0966 218.918 68.7216C219.512 68.3466 220.204 68.1591 220.991 68.1591C221.779 68.1591 222.469 68.3466 223.06 68.7216C223.654 69.0966 224.116 69.6231 224.446 70.3011C224.779 70.9792 224.946 71.7727 224.946 72.6818C224.946 73.5833 224.779 74.3712 224.446 75.0455C224.116 75.7197 223.654 76.2443 223.06 76.6193C222.469 76.9943 221.779 77.1818 220.991 77.1818ZM220.991 75.9773C221.59 75.9773 222.082 75.8239 222.469 75.517C222.855 75.2102 223.141 74.8068 223.327 74.3068C223.512 73.8068 223.605 73.2652 223.605 72.6818C223.605 72.0985 223.512 71.5549 223.327 71.0511C223.141 70.5473 222.855 70.1402 222.469 69.8295C222.082 69.5189 221.59 69.3636 220.991 69.3636C220.393 69.3636 219.901 69.5189 219.514 69.8295C219.128 70.1402 218.842 70.5473 218.656 71.0511C218.471 71.5549 218.378 72.0985 218.378 72.6818C218.378 73.2652 218.471 73.8068 218.656 74.3068C218.842 74.8068 219.128 75.2102 219.514 75.517C219.901 75.8239 220.393 75.9773 220.991 75.9773Z" fill="black"/>
<path d="M1921 80.5L1832.5 0M1921 0L1832.5 80.5" stroke="black"/>
<path d="M1920 0L1919.5 82" stroke="black"/>
</g>
<defs>
<clipPath id="clip0_0_1">
<rect width="1920" height="1080" fill="white"/>
</clipPath>
</defs>
</svg>
