<svg width="1920" height="400" viewBox="0 0 1920 400" fill="none" xmlns="http://www.w3.org/2000/svg">
<rect width="1920" height="400" fill="#F5F5F5"/>
<rect width="1920" height="400" fill="white"/>
<path d="M284.239 56H281.068C280.881 55.0881 280.553 54.2869 280.084 53.5966C279.624 52.9062 279.061 52.3267 278.396 51.858C277.74 51.3807 277.011 51.0227 276.21 50.7841C275.409 50.5455 274.574 50.4261 273.705 50.4261C272.119 50.4261 270.683 50.8267 269.396 51.6278C268.118 52.429 267.099 53.6094 266.341 55.169C265.591 56.7287 265.216 58.642 265.216 60.9091C265.216 63.1761 265.591 65.0895 266.341 66.6491C267.099 68.2088 268.118 69.3892 269.396 70.1903C270.683 70.9915 272.119 71.392 273.705 71.392C274.574 71.392 275.409 71.2727 276.21 71.0341C277.011 70.7955 277.74 70.4418 278.396 69.973C279.061 69.4957 279.624 68.9119 280.084 68.2216C280.553 67.5227 280.881 66.7216 281.068 65.8182H284.239C284 67.1562 283.565 68.3537 282.935 69.4105C282.304 70.4673 281.52 71.3665 280.582 72.108C279.645 72.8409 278.592 73.3991 277.425 73.7827C276.266 74.1662 275.026 74.358 273.705 74.358C271.472 74.358 269.486 73.8125 267.747 72.7216C266.009 71.6307 264.641 70.0795 263.643 68.0682C262.646 66.0568 262.148 63.6705 262.148 60.9091C262.148 58.1477 262.646 55.7614 263.643 53.75C264.641 51.7386 266.009 50.1875 267.747 49.0966C269.486 48.0057 271.472 47.4602 273.705 47.4602C275.026 47.4602 276.266 47.652 277.425 48.0355C278.592 48.419 279.645 48.9815 280.582 49.723C281.52 50.456 282.304 51.3509 282.935 52.4077C283.565 53.456 284 54.6534 284.239 56ZM296.93 74.4091C295.157 74.4091 293.602 73.9872 292.264 73.1435C290.934 72.2997 289.895 71.1193 289.145 69.6023C288.403 68.0852 288.032 66.3125 288.032 64.2841C288.032 62.2386 288.403 60.4531 289.145 58.9276C289.895 57.402 290.934 56.2173 292.264 55.3736C293.602 54.5298 295.157 54.108 296.93 54.108C298.703 54.108 300.254 54.5298 301.583 55.3736C302.922 56.2173 303.961 57.402 304.703 58.9276C305.453 60.4531 305.828 62.2386 305.828 64.2841C305.828 66.3125 305.453 68.0852 304.703 69.6023C303.961 71.1193 302.922 72.2997 301.583 73.1435C300.254 73.9872 298.703 74.4091 296.93 74.4091ZM296.93 71.6989C298.277 71.6989 299.385 71.3537 300.254 70.6634C301.123 69.973 301.767 69.0653 302.184 67.9403C302.602 66.8153 302.811 65.5966 302.811 64.2841C302.811 62.9716 302.602 61.7486 302.184 60.6151C301.767 59.4815 301.123 58.5653 300.254 57.8665C299.385 57.1676 298.277 56.8182 296.93 56.8182C295.583 56.8182 294.475 57.1676 293.606 57.8665C292.737 58.5653 292.093 59.4815 291.676 60.6151C291.258 61.7486 291.049 62.9716 291.049 64.2841C291.049 65.5966 291.258 66.8153 291.676 67.9403C292.093 69.0653 292.737 69.973 293.606 70.6634C294.475 71.3537 295.583 71.6989 296.93 71.6989ZM313.45 62.1875V74H310.433V54.3636H313.348V57.4318H313.604C314.064 56.4347 314.763 55.6335 315.7 55.0284C316.638 54.4148 317.848 54.108 319.331 54.108C320.661 54.108 321.824 54.3807 322.821 54.9261C323.818 55.4631 324.594 56.2812 325.148 57.3807C325.702 58.4716 325.979 59.8523 325.979 61.5227V74H322.962V61.7273C322.962 60.1847 322.561 58.983 321.76 58.1222C320.959 57.2528 319.859 56.8182 318.462 56.8182C317.499 56.8182 316.638 57.027 315.879 57.4446C315.129 57.8622 314.537 58.4716 314.102 59.2727C313.668 60.0739 313.45 61.0455 313.45 62.1875ZM340.032 54.3636V56.9205H329.855V54.3636H340.032ZM332.821 49.6591H335.838V68.375C335.838 69.2273 335.962 69.8665 336.209 70.2926C336.465 70.7102 336.789 70.9915 337.181 71.1364C337.581 71.2727 338.003 71.3409 338.446 71.3409C338.779 71.3409 339.051 71.3239 339.265 71.2898C339.478 71.2472 339.648 71.2131 339.776 71.1875L340.39 73.8977C340.185 73.9744 339.9 74.0511 339.533 74.1278C339.167 74.2131 338.702 74.2557 338.14 74.2557C337.287 74.2557 336.452 74.0724 335.634 73.706C334.824 73.3395 334.151 72.7812 333.614 72.0312C333.086 71.2812 332.821 70.3352 332.821 69.1932V49.6591ZM350.348 74.4602C349.104 74.4602 347.975 74.2259 346.961 73.7571C345.946 73.2798 345.141 72.5938 344.544 71.6989C343.948 70.7955 343.65 69.7045 343.65 68.4261C343.65 67.3011 343.871 66.3892 344.314 65.6903C344.757 64.983 345.35 64.429 346.091 64.0284C346.833 63.6278 347.651 63.3295 348.546 63.1335C349.449 62.929 350.357 62.767 351.269 62.6477C352.462 62.4943 353.429 62.3793 354.171 62.3026C354.921 62.2173 355.466 62.0767 355.807 61.8807C356.157 61.6847 356.331 61.3437 356.331 60.858V60.7557C356.331 59.4943 355.986 58.5142 355.296 57.8153C354.614 57.1165 353.578 56.767 352.189 56.767C350.749 56.767 349.62 57.0824 348.801 57.7131C347.983 58.3437 347.408 59.017 347.076 59.733L344.212 58.7102C344.723 57.517 345.405 56.5881 346.257 55.9233C347.118 55.25 348.056 54.7812 349.07 54.517C350.093 54.2443 351.098 54.108 352.087 54.108C352.718 54.108 353.442 54.1847 354.26 54.3381C355.087 54.483 355.884 54.7855 356.651 55.2457C357.426 55.706 358.07 56.4006 358.581 57.3295C359.093 58.2585 359.348 59.5028 359.348 61.0625V74H356.331V71.3409H356.178C355.973 71.767 355.632 72.223 355.155 72.7088C354.678 73.1946 354.043 73.608 353.25 73.9489C352.458 74.2898 351.49 74.4602 350.348 74.4602ZM350.809 71.75C352.002 71.75 353.007 71.5156 353.826 71.0469C354.652 70.5781 355.275 69.973 355.692 69.2315C356.118 68.4901 356.331 67.7102 356.331 66.892V64.1307C356.203 64.2841 355.922 64.4247 355.488 64.5526C355.061 64.6719 354.567 64.7784 354.005 64.8722C353.451 64.9574 352.909 65.0341 352.381 65.1023C351.861 65.1619 351.439 65.2131 351.115 65.2557C350.331 65.358 349.598 65.5241 348.917 65.7543C348.243 65.9759 347.698 66.3125 347.28 66.7642C346.871 67.2074 346.667 67.8125 346.667 68.5795C346.667 69.6278 347.054 70.4205 347.83 70.9574C348.614 71.4858 349.607 71.75 350.809 71.75ZM372.832 74.4091C370.991 74.4091 369.406 73.9744 368.077 73.1051C366.747 72.2358 365.724 71.0384 365.009 69.5128C364.293 67.9872 363.935 66.2443 363.935 64.2841C363.935 62.2898 364.301 60.5298 365.034 59.0043C365.776 57.4702 366.807 56.2727 368.128 55.4119C369.457 54.5426 371.009 54.108 372.781 54.108C374.162 54.108 375.406 54.3636 376.514 54.875C377.622 55.3864 378.53 56.1023 379.237 57.0227C379.945 57.9432 380.384 59.017 380.554 60.2443H377.537C377.307 59.3494 376.795 58.5568 376.003 57.8665C375.219 57.1676 374.162 56.8182 372.832 56.8182C371.656 56.8182 370.625 57.125 369.739 57.7386C368.861 58.3437 368.175 59.2003 367.68 60.3082C367.195 61.4077 366.952 62.6989 366.952 64.1818C366.952 65.6989 367.19 67.0199 367.668 68.1449C368.153 69.2699 368.835 70.1435 369.713 70.7656C370.599 71.3878 371.639 71.6989 372.832 71.6989C373.616 71.6989 374.328 71.5625 374.967 71.2898C375.607 71.017 376.148 70.625 376.591 70.1136C377.034 69.6023 377.349 68.9886 377.537 68.2727H380.554C380.384 69.4318 379.962 70.4759 379.288 71.4048C378.624 72.3253 377.741 73.0582 376.642 73.6037C375.551 74.1406 374.281 74.4091 372.832 74.4091ZM393.504 54.3636V56.9205H383.328V54.3636H393.504ZM386.294 49.6591H389.311V68.375C389.311 69.2273 389.435 69.8665 389.682 70.2926C389.938 70.7102 390.261 70.9915 390.653 71.1364C391.054 71.2727 391.476 71.3409 391.919 71.3409C392.251 71.3409 392.524 71.3239 392.737 71.2898C392.95 71.2472 393.121 71.2131 393.249 71.1875L393.862 73.8977C393.658 73.9744 393.372 74.0511 393.006 74.1278C392.639 74.2131 392.175 74.2557 391.612 74.2557C390.76 74.2557 389.925 74.0724 389.107 73.706C388.297 73.3395 387.624 72.7812 387.087 72.0312C386.558 71.2812 386.294 70.3352 386.294 69.1932V49.6591Z" fill="black"/>
<path d="M944.17 67V40.8182H947.341V64.1875H959.511V67H944.17ZM971.989 67.4091C970.216 67.4091 968.661 66.9872 967.322 66.1435C965.993 65.2997 964.953 64.1193 964.203 62.6023C963.462 61.0852 963.091 59.3125 963.091 57.2841C963.091 55.2386 963.462 53.4531 964.203 51.9276C964.953 50.402 965.993 49.2173 967.322 48.3736C968.661 47.5298 970.216 47.108 971.989 47.108C973.761 47.108 975.313 47.5298 976.642 48.3736C977.98 49.2173 979.02 50.402 979.761 51.9276C980.511 53.4531 980.886 55.2386 980.886 57.2841C980.886 59.3125 980.511 61.0852 979.761 62.6023C979.02 64.1193 977.98 65.2997 976.642 66.1435C975.313 66.9872 973.761 67.4091 971.989 67.4091ZM971.989 64.6989C973.335 64.6989 974.443 64.3537 975.312 63.6634C976.182 62.973 976.825 62.0653 977.243 60.9403C977.661 59.8153 977.869 58.5966 977.869 57.2841C977.869 55.9716 977.661 54.7486 977.243 53.6151C976.825 52.4815 976.182 51.5653 975.312 50.8665C974.443 50.1676 973.335 49.8182 971.989 49.8182C970.642 49.8182 969.534 50.1676 968.665 50.8665C967.795 51.5653 967.152 52.4815 966.734 53.6151C966.317 54.7486 966.108 55.9716 966.108 57.2841C966.108 58.5966 966.317 59.8153 966.734 60.9403C967.152 62.0653 967.795 62.973 968.665 63.6634C969.534 64.3537 970.642 64.6989 971.989 64.6989ZM993.469 67.4091C991.628 67.4091 990.043 66.9744 988.713 66.1051C987.384 65.2358 986.361 64.0384 985.645 62.5128C984.929 60.9872 984.571 59.2443 984.571 57.2841C984.571 55.2898 984.938 53.5298 985.671 52.0043C986.412 50.4702 987.444 49.2727 988.765 48.4119C990.094 47.5426 991.645 47.108 993.418 47.108C994.799 47.108 996.043 47.3636 997.151 47.875C998.259 48.3864 999.167 49.1023 999.874 50.0227C1000.58 50.9432 1001.02 52.017 1001.19 53.2443H998.174C997.944 52.3494 997.432 51.5568 996.64 50.8665C995.855 50.1676 994.799 49.8182 993.469 49.8182C992.293 49.8182 991.262 50.125 990.375 50.7386C989.498 51.3437 988.811 52.2003 988.317 53.3082C987.831 54.4077 987.588 55.6989 987.588 57.1818C987.588 58.6989 987.827 60.0199 988.304 61.1449C988.79 62.2699 989.472 63.1435 990.35 63.7656C991.236 64.3878 992.276 64.6989 993.469 64.6989C994.253 64.6989 994.965 64.5625 995.604 64.2898C996.243 64.017 996.784 63.625 997.228 63.1136C997.671 62.6023 997.986 61.9886 998.174 61.2727H1001.19C1001.02 62.4318 1000.6 63.4759 999.925 64.4048C999.26 65.3253 998.378 66.0582 997.279 66.6037C996.188 67.1406 994.918 67.4091 993.469 67.4091ZM1011.38 67.4602C1010.14 67.4602 1009.01 67.2259 1007.99 66.7571C1006.98 66.2798 1006.17 65.5938 1005.58 64.6989C1004.98 63.7955 1004.68 62.7045 1004.68 61.4261C1004.68 60.3011 1004.9 59.3892 1005.35 58.6903C1005.79 57.983 1006.38 57.429 1007.12 57.0284C1007.86 56.6278 1008.68 56.3295 1009.58 56.1335C1010.48 55.929 1011.39 55.767 1012.3 55.6477C1013.49 55.4943 1014.46 55.3793 1015.2 55.3026C1015.95 55.2173 1016.5 55.0767 1016.84 54.8807C1017.19 54.6847 1017.36 54.3437 1017.36 53.858V53.7557C1017.36 52.4943 1017.02 51.5142 1016.33 50.8153C1015.65 50.1165 1014.61 49.767 1013.22 49.767C1011.78 49.767 1010.65 50.0824 1009.83 50.7131C1009.01 51.3437 1008.44 52.017 1008.11 52.733L1005.24 51.7102C1005.75 50.517 1006.44 49.5881 1007.29 48.9233C1008.15 48.25 1009.09 47.7812 1010.1 47.517C1011.12 47.2443 1012.13 47.108 1013.12 47.108C1013.75 47.108 1014.47 47.1847 1015.29 47.3381C1016.12 47.483 1016.92 47.7855 1017.68 48.2457C1018.46 48.706 1019.1 49.4006 1019.61 50.3295C1020.12 51.2585 1020.38 52.5028 1020.38 54.0625V67H1017.36V64.3409H1017.21C1017 64.767 1016.66 65.223 1016.19 65.7088C1015.71 66.1946 1015.07 66.608 1014.28 66.9489C1013.49 67.2898 1012.52 67.4602 1011.38 67.4602ZM1011.84 64.75C1013.03 64.75 1014.04 64.5156 1014.86 64.0469C1015.68 63.5781 1016.31 62.973 1016.72 62.2315C1017.15 61.4901 1017.36 60.7102 1017.36 59.892V57.1307C1017.23 57.2841 1016.95 57.4247 1016.52 57.5526C1016.09 57.6719 1015.6 57.7784 1015.04 57.8722C1014.48 57.9574 1013.94 58.0341 1013.41 58.1023C1012.89 58.1619 1012.47 58.2131 1012.15 58.2557C1011.36 58.358 1010.63 58.5241 1009.95 58.7543C1009.27 58.9759 1008.73 59.3125 1008.31 59.7642C1007.9 60.2074 1007.7 60.8125 1007.7 61.5795C1007.7 62.6278 1008.09 63.4205 1008.86 63.9574C1009.65 64.4858 1010.64 64.75 1011.84 64.75ZM1034.43 47.3636V49.9205H1024.25V47.3636H1034.43ZM1027.22 42.6591H1030.23V61.375C1030.23 62.2273 1030.36 62.8665 1030.6 63.2926C1030.86 63.7102 1031.18 63.9915 1031.58 64.1364C1031.98 64.2727 1032.4 64.3409 1032.84 64.3409C1033.17 64.3409 1033.45 64.3239 1033.66 64.2898C1033.87 64.2472 1034.04 64.2131 1034.17 64.1875L1034.78 66.8977C1034.58 66.9744 1034.29 67.0511 1033.93 67.1278C1033.56 67.2131 1033.1 67.2557 1032.53 67.2557C1031.68 67.2557 1030.85 67.0724 1030.03 66.706C1029.22 66.3395 1028.55 65.7812 1028.01 65.0312C1027.48 64.2812 1027.22 63.3352 1027.22 62.1932V42.6591ZM1038.96 67V47.3636H1041.98V67H1038.96ZM1040.5 44.0909C1039.91 44.0909 1039.4 43.8906 1038.98 43.4901C1038.56 43.0895 1038.35 42.608 1038.35 42.0455C1038.35 41.483 1038.56 41.0014 1038.98 40.6009C1039.4 40.2003 1039.91 40 1040.5 40C1041.09 40 1041.59 40.2003 1042.01 40.6009C1042.43 41.0014 1042.65 41.483 1042.65 42.0455C1042.65 42.608 1042.43 43.0895 1042.01 43.4901C1041.59 43.8906 1041.09 44.0909 1040.5 44.0909ZM1055.48 67.4091C1053.71 67.4091 1052.16 66.9872 1050.82 66.1435C1049.49 65.2997 1048.45 64.1193 1047.7 62.6023C1046.96 61.0852 1046.59 59.3125 1046.59 57.2841C1046.59 55.2386 1046.96 53.4531 1047.7 51.9276C1048.45 50.402 1049.49 49.2173 1050.82 48.3736C1052.16 47.5298 1053.71 47.108 1055.48 47.108C1057.26 47.108 1058.81 47.5298 1060.14 48.3736C1061.48 49.2173 1062.52 50.402 1063.26 51.9276C1064.01 53.4531 1064.38 55.2386 1064.38 57.2841C1064.38 59.3125 1064.01 61.0852 1063.26 62.6023C1062.52 64.1193 1061.48 65.2997 1060.14 66.1435C1058.81 66.9872 1057.26 67.4091 1055.48 67.4091ZM1055.48 64.6989C1056.83 64.6989 1057.94 64.3537 1058.81 63.6634C1059.68 62.973 1060.32 62.0653 1060.74 60.9403C1061.16 59.8153 1061.37 58.5966 1061.37 57.2841C1061.37 55.9716 1061.16 54.7486 1060.74 53.6151C1060.32 52.4815 1059.68 51.5653 1058.81 50.8665C1057.94 50.1676 1056.83 49.8182 1055.48 49.8182C1054.14 49.8182 1053.03 50.1676 1052.16 50.8665C1051.29 51.5653 1050.65 52.4815 1050.23 53.6151C1049.81 54.7486 1049.6 55.9716 1049.6 57.2841C1049.6 58.5966 1049.81 59.8153 1050.23 60.9403C1050.65 62.0653 1051.29 62.973 1052.16 63.6634C1053.03 64.3537 1054.14 64.6989 1055.48 64.6989ZM1072 55.1875V67H1068.99V47.3636H1071.9V50.4318H1072.16C1072.62 49.4347 1073.32 48.6335 1074.25 48.0284C1075.19 47.4148 1076.4 47.108 1077.89 47.108C1079.22 47.108 1080.38 47.3807 1081.38 47.9261C1082.37 48.4631 1083.15 49.2812 1083.7 50.3807C1084.26 51.4716 1084.53 52.8523 1084.53 54.5227V67H1081.52V54.7273C1081.52 53.1847 1081.12 51.983 1080.31 51.1222C1079.51 50.2528 1078.41 49.8182 1077.02 49.8182C1076.05 49.8182 1075.19 50.027 1074.43 50.4446C1073.68 50.8622 1073.09 51.4716 1072.66 52.2727C1072.22 53.0739 1072 54.0455 1072 55.1875Z" fill="black"/>
<path d="M1651.25 67H1643.17V40.8182H1651.61C1654.15 40.8182 1656.32 41.3423 1658.13 42.3906C1659.93 43.4304 1661.32 44.9261 1662.28 46.8778C1663.25 48.821 1663.73 51.1477 1663.73 53.858C1663.73 56.5852 1663.24 58.9332 1662.27 60.902C1661.3 62.8622 1659.88 64.3707 1658.03 65.4276C1656.17 66.4759 1653.91 67 1651.25 67ZM1646.34 64.1875H1651.05C1653.21 64.1875 1655 63.7699 1656.43 62.9347C1657.85 62.0994 1658.91 60.9105 1659.61 59.3679C1660.31 57.8253 1660.66 55.9886 1660.66 53.858C1660.66 51.7443 1660.31 49.9247 1659.62 48.3991C1658.93 46.8651 1657.9 45.6889 1656.53 44.8707C1655.16 44.044 1653.45 43.6307 1651.4 43.6307H1646.34V64.1875ZM1676.87 67.4091C1674.98 67.4091 1673.35 66.9915 1671.97 66.1562C1670.61 65.3125 1669.56 64.1364 1668.82 62.6278C1668.08 61.1108 1667.72 59.3466 1667.72 57.3352C1667.72 55.3239 1668.08 53.5511 1668.82 52.017C1669.56 50.4744 1670.59 49.2727 1671.91 48.4119C1673.24 47.5426 1674.79 47.108 1676.56 47.108C1677.59 47.108 1678.6 47.2784 1679.59 47.6193C1680.59 47.9602 1681.5 48.5142 1682.32 49.2812C1683.13 50.0398 1683.79 51.0455 1684.27 52.2983C1684.76 53.5511 1685 55.0937 1685 56.9261V58.2045H1669.86V55.5966H1681.93C1681.93 54.4886 1681.71 53.5 1681.27 52.6307C1680.83 51.7614 1680.21 51.0753 1679.4 50.5724C1678.6 50.0696 1677.65 49.8182 1676.56 49.8182C1675.36 49.8182 1674.32 50.1165 1673.44 50.7131C1672.57 51.3011 1671.9 52.0682 1671.44 53.0142C1670.97 53.9602 1670.73 54.9744 1670.73 56.0568V57.7955C1670.73 59.2784 1670.99 60.5355 1671.5 61.5668C1672.02 62.5895 1672.74 63.3693 1673.66 63.9062C1674.58 64.4347 1675.65 64.6989 1676.87 64.6989C1677.66 64.6989 1678.38 64.5881 1679.02 64.3665C1679.66 64.1364 1680.22 63.7955 1680.69 63.3438C1681.16 62.8835 1681.52 62.3125 1681.78 61.6307L1684.69 62.4489C1684.39 63.4375 1683.87 64.3068 1683.15 65.0568C1682.42 65.7983 1681.53 66.3778 1680.46 66.7955C1679.4 67.2045 1678.2 67.4091 1676.87 67.4091ZM1698.13 47.3636V49.9205H1687.95V47.3636H1698.13ZM1690.92 42.6591H1693.94V61.375C1693.94 62.2273 1694.06 62.8665 1694.31 63.2926C1694.56 63.7102 1694.89 63.9915 1695.28 64.1364C1695.68 64.2727 1696.1 64.3409 1696.54 64.3409C1696.88 64.3409 1697.15 64.3239 1697.36 64.2898C1697.58 64.2472 1697.75 64.2131 1697.87 64.1875L1698.49 66.8977C1698.28 66.9744 1698 67.0511 1697.63 67.1278C1697.26 67.2131 1696.8 67.2557 1696.24 67.2557C1695.38 67.2557 1694.55 67.0724 1693.73 66.706C1692.92 66.3395 1692.25 65.7812 1691.71 65.0312C1691.18 64.2812 1690.92 63.3352 1690.92 62.1932V42.6591ZM1708.45 67.4602C1707.2 67.4602 1706.07 67.2259 1705.06 66.7571C1704.04 66.2798 1703.24 65.5938 1702.64 64.6989C1702.05 63.7955 1701.75 62.7045 1701.75 61.4261C1701.75 60.3011 1701.97 59.3892 1702.41 58.6903C1702.86 57.983 1703.45 57.429 1704.19 57.0284C1704.93 56.6278 1705.75 56.3295 1706.64 56.1335C1707.55 55.929 1708.45 55.767 1709.37 55.6477C1710.56 55.4943 1711.53 55.3793 1712.27 55.3026C1713.02 55.2173 1713.56 55.0767 1713.9 54.8807C1714.25 54.6847 1714.43 54.3437 1714.43 53.858V53.7557C1714.43 52.4943 1714.08 51.5142 1713.39 50.8153C1712.71 50.1165 1711.68 49.767 1710.29 49.767C1708.85 49.767 1707.72 50.0824 1706.9 50.7131C1706.08 51.3437 1705.51 52.017 1705.17 52.733L1702.31 51.7102C1702.82 50.517 1703.5 49.5881 1704.36 48.9233C1705.22 48.25 1706.15 47.7812 1707.17 47.517C1708.19 47.2443 1709.2 47.108 1710.18 47.108C1710.82 47.108 1711.54 47.1847 1712.36 47.3381C1713.18 47.483 1713.98 47.7855 1714.75 48.2457C1715.52 48.706 1716.17 49.4006 1716.68 50.3295C1717.19 51.2585 1717.45 52.5028 1717.45 54.0625V67H1714.43V64.3409H1714.28C1714.07 64.767 1713.73 65.223 1713.25 65.7088C1712.78 66.1946 1712.14 66.608 1711.35 66.9489C1710.56 67.2898 1709.59 67.4602 1708.45 67.4602ZM1708.91 64.75C1710.1 64.75 1711.11 64.5156 1711.92 64.0469C1712.75 63.5781 1713.37 62.973 1713.79 62.2315C1714.22 61.4901 1714.43 60.7102 1714.43 59.892V57.1307C1714.3 57.2841 1714.02 57.4247 1713.59 57.5526C1713.16 57.6719 1712.66 57.7784 1712.1 57.8722C1711.55 57.9574 1711.01 58.0341 1710.48 58.1023C1709.96 58.1619 1709.54 58.2131 1709.21 58.2557C1708.43 58.358 1707.7 58.5241 1707.01 58.7543C1706.34 58.9759 1705.8 59.3125 1705.38 59.7642C1704.97 60.2074 1704.76 60.8125 1704.76 61.5795C1704.76 62.6278 1705.15 63.4205 1705.93 63.9574C1706.71 64.4858 1707.7 64.75 1708.91 64.75ZM1722.95 67V47.3636H1725.97V67H1722.95ZM1724.49 44.0909C1723.9 44.0909 1723.39 43.8906 1722.97 43.4901C1722.55 43.0895 1722.34 42.608 1722.34 42.0455C1722.34 41.483 1722.55 41.0014 1722.97 40.6009C1723.39 40.2003 1723.9 40 1724.49 40C1725.07 40 1725.58 40.2003 1726 40.6009C1726.42 41.0014 1726.63 41.483 1726.63 42.0455C1726.63 42.608 1726.42 43.0895 1726 43.4901C1725.58 43.8906 1725.07 44.0909 1724.49 44.0909ZM1734.51 40.8182V67H1731.5V40.8182H1734.51ZM1753.95 51.7614L1751.24 52.5284C1751.07 52.0767 1750.82 51.6378 1750.48 51.2116C1750.16 50.777 1749.72 50.419 1749.15 50.1378C1748.59 49.8565 1747.87 49.7159 1746.99 49.7159C1745.79 49.7159 1744.79 49.9929 1743.99 50.5469C1743.2 51.0923 1742.8 51.7869 1742.8 52.6307C1742.8 53.3807 1743.07 53.973 1743.62 54.4077C1744.16 54.8423 1745.02 55.2045 1746.18 55.4943L1749.09 56.2102C1750.85 56.6364 1752.15 57.2884 1753.01 58.1662C1753.88 59.0355 1754.31 60.1562 1754.31 61.5284C1754.31 62.6534 1753.98 63.6591 1753.33 64.5455C1752.69 65.4318 1751.8 66.1307 1750.65 66.642C1749.5 67.1534 1748.16 67.4091 1746.64 67.4091C1744.63 67.4091 1742.97 66.9744 1741.66 66.1051C1740.35 65.2358 1739.52 63.9659 1739.17 62.2955L1742.03 61.5795C1742.31 62.6364 1742.82 63.429 1743.58 63.9574C1744.35 64.4858 1745.35 64.75 1746.58 64.75C1747.99 64.75 1749.11 64.4517 1749.93 63.8551C1750.77 63.25 1751.19 62.5256 1751.19 61.6818C1751.19 61 1750.95 60.429 1750.47 59.9688C1749.99 59.5 1749.26 59.1506 1748.27 58.9205L1745 58.1534C1743.2 57.7273 1741.88 57.0668 1741.04 56.1719C1740.2 55.2685 1739.78 54.1392 1739.78 52.7841C1739.78 51.6761 1740.09 50.696 1740.72 49.8438C1741.35 48.9915 1742.2 48.3224 1743.29 47.8366C1744.38 47.3509 1745.61 47.108 1746.99 47.108C1748.94 47.108 1750.46 47.5341 1751.57 48.3864C1752.69 49.2386 1753.48 50.3636 1753.95 51.7614Z" fill="black"/>
<rect x="153" y="108" width="381" height="207" fill="#D9D9D9"/>
<rect x="1515" y="108" width="381" height="207" fill="#D9D9D9"/>
<rect x="834" y="108" width="381" height="207" fill="#D9D9D9"/>
<path d="M166.761 136V121.455H171.676C172.817 121.455 173.75 121.661 174.474 122.072C175.204 122.48 175.743 123.031 176.094 123.727C176.444 124.423 176.619 125.2 176.619 126.057C176.619 126.914 176.444 127.693 176.094 128.393C175.748 129.094 175.213 129.653 174.489 130.07C173.764 130.482 172.836 130.688 171.705 130.688H168.182V129.125H171.648C172.429 129.125 173.056 128.99 173.53 128.72C174.003 128.45 174.347 128.086 174.56 127.626C174.777 127.162 174.886 126.639 174.886 126.057C174.886 125.474 174.777 124.954 174.56 124.494C174.347 124.035 174.001 123.675 173.523 123.415C173.045 123.15 172.41 123.017 171.619 123.017H168.523V136H166.761ZM180.906 129.438V136H179.229V121.455H180.906V126.795H181.048C181.303 126.232 181.687 125.785 182.198 125.453C182.714 125.117 183.401 124.949 184.258 124.949C185.001 124.949 185.652 125.098 186.211 125.396C186.77 125.69 187.203 126.142 187.511 126.753C187.823 127.359 187.979 128.131 187.979 129.068V136H186.303V129.182C186.303 128.315 186.078 127.645 185.629 127.172C185.183 126.694 184.566 126.455 183.775 126.455C183.226 126.455 182.733 126.571 182.298 126.803C181.867 127.035 181.526 127.373 181.275 127.818C181.029 128.263 180.906 128.803 180.906 129.438ZM195.478 136.227C194.493 136.227 193.629 135.993 192.885 135.524C192.147 135.055 191.569 134.4 191.152 133.557C190.74 132.714 190.534 131.729 190.534 130.602C190.534 129.466 190.74 128.474 191.152 127.626C191.569 126.779 192.147 126.121 192.885 125.652C193.629 125.183 194.493 124.949 195.478 124.949C196.462 124.949 197.324 125.183 198.063 125.652C198.806 126.121 199.384 126.779 199.796 127.626C200.212 128.474 200.421 129.466 200.421 130.602C200.421 131.729 200.212 132.714 199.796 133.557C199.384 134.4 198.806 135.055 198.063 135.524C197.324 135.993 196.462 136.227 195.478 136.227ZM195.478 134.722C196.226 134.722 196.841 134.53 197.324 134.146C197.807 133.763 198.165 133.259 198.397 132.634C198.629 132.009 198.745 131.331 198.745 130.602C198.745 129.873 198.629 129.194 198.397 128.564C198.165 127.934 197.807 127.425 197.324 127.037C196.841 126.649 196.226 126.455 195.478 126.455C194.73 126.455 194.114 126.649 193.631 127.037C193.148 127.425 192.791 127.934 192.559 128.564C192.327 129.194 192.211 129.873 192.211 130.602C192.211 131.331 192.327 132.009 192.559 132.634C192.791 133.259 193.148 133.763 193.631 134.146C194.114 134.53 194.73 134.722 195.478 134.722ZM204.656 129.438V136H202.979V125.091H204.599V126.795H204.741C204.996 126.241 205.385 125.796 205.906 125.46C206.426 125.119 207.099 124.949 207.923 124.949C208.661 124.949 209.308 125.1 209.862 125.403C210.415 125.702 210.846 126.156 211.154 126.767C211.462 127.373 211.616 128.14 211.616 129.068V136H209.94V129.182C209.94 128.325 209.717 127.657 209.272 127.179C208.827 126.696 208.216 126.455 207.44 126.455C206.905 126.455 206.426 126.571 206.005 126.803C205.588 127.035 205.259 127.373 205.018 127.818C204.776 128.263 204.656 128.803 204.656 129.438ZM219.252 136.227C218.201 136.227 217.295 135.995 216.532 135.531C215.775 135.062 215.19 134.409 214.778 133.571C214.371 132.728 214.167 131.748 214.167 130.631C214.167 129.513 214.371 128.528 214.778 127.676C215.19 126.819 215.763 126.152 216.497 125.673C217.235 125.19 218.097 124.949 219.082 124.949C219.65 124.949 220.211 125.044 220.765 125.233C221.319 125.422 221.824 125.73 222.278 126.156C222.733 126.578 223.095 127.136 223.365 127.832C223.635 128.528 223.77 129.385 223.77 130.403V131.114H215.36V129.665H222.065C222.065 129.049 221.942 128.5 221.696 128.017C221.454 127.534 221.109 127.153 220.659 126.874C220.214 126.594 219.688 126.455 219.082 126.455C218.414 126.455 217.837 126.62 217.349 126.952C216.866 127.278 216.494 127.705 216.234 128.23C215.974 128.756 215.843 129.319 215.843 129.92V130.886C215.843 131.71 215.985 132.409 216.27 132.982C216.558 133.55 216.958 133.983 217.47 134.281C217.981 134.575 218.575 134.722 219.252 134.722C219.693 134.722 220.091 134.66 220.446 134.537C220.806 134.409 221.116 134.22 221.376 133.969C221.636 133.713 221.838 133.396 221.98 133.017L223.599 133.472C223.429 134.021 223.142 134.504 222.74 134.92C222.337 135.332 221.84 135.654 221.248 135.886C220.656 136.114 219.991 136.227 219.252 136.227ZM243.706 121.455V136H242.001L234.075 124.58H233.933V136H232.172V121.455H233.876L241.831 132.903H241.973V121.455H243.706ZM253.878 131.54V125.091H255.554V136H253.878V134.153H253.764C253.509 134.707 253.111 135.179 252.571 135.567C252.031 135.95 251.349 136.142 250.526 136.142C249.844 136.142 249.238 135.993 248.707 135.695C248.177 135.392 247.76 134.937 247.457 134.331C247.154 133.72 247.003 132.951 247.003 132.023V125.091H248.679V131.909C248.679 132.705 248.902 133.339 249.347 133.812C249.796 134.286 250.369 134.523 251.065 134.523C251.482 134.523 251.906 134.416 252.337 134.203C252.772 133.99 253.137 133.663 253.43 133.223C253.729 132.783 253.878 132.222 253.878 131.54ZM258.624 136V125.091H260.243V126.795H260.385C260.613 126.213 260.98 125.761 261.486 125.439C261.993 125.112 262.601 124.949 263.311 124.949C264.031 124.949 264.63 125.112 265.108 125.439C265.591 125.761 265.968 126.213 266.238 126.795H266.351C266.631 126.232 267.05 125.785 267.608 125.453C268.167 125.117 268.837 124.949 269.618 124.949C270.594 124.949 271.391 125.254 272.012 125.865C272.632 126.471 272.942 127.416 272.942 128.699V136H271.266V128.699C271.266 127.894 271.046 127.319 270.605 126.973C270.165 126.627 269.647 126.455 269.05 126.455C268.283 126.455 267.689 126.687 267.267 127.151C266.846 127.61 266.635 128.192 266.635 128.898V136H264.931V128.528C264.931 127.908 264.73 127.409 264.327 127.03C263.925 126.646 263.406 126.455 262.772 126.455C262.336 126.455 261.929 126.571 261.55 126.803C261.176 127.035 260.873 127.357 260.641 127.768C260.414 128.176 260.3 128.647 260.3 129.182V136H258.624ZM276.234 136V121.455H277.91V126.824H278.052C278.175 126.634 278.346 126.393 278.564 126.099C278.786 125.801 279.103 125.536 279.515 125.304C279.932 125.067 280.495 124.949 281.206 124.949C282.124 124.949 282.934 125.179 283.635 125.638C284.335 126.097 284.882 126.748 285.275 127.591C285.668 128.434 285.865 129.428 285.865 130.574C285.865 131.729 285.668 132.731 285.275 133.578C284.882 134.421 284.338 135.074 283.642 135.538C282.946 135.998 282.143 136.227 281.234 136.227C280.533 136.227 279.972 136.111 279.551 135.879C279.129 135.643 278.805 135.375 278.578 135.077C278.35 134.774 278.175 134.523 278.052 134.324H277.853V136H276.234ZM277.882 130.545C277.882 131.369 278.002 132.096 278.244 132.726C278.485 133.351 278.838 133.841 279.302 134.196C279.766 134.546 280.334 134.722 281.007 134.722C281.708 134.722 282.292 134.537 282.761 134.168C283.234 133.794 283.59 133.292 283.826 132.662C284.068 132.027 284.189 131.322 284.189 130.545C284.189 129.778 284.07 129.087 283.833 128.472C283.601 127.851 283.249 127.361 282.775 127.001C282.306 126.637 281.717 126.455 281.007 126.455C280.325 126.455 279.752 126.627 279.288 126.973C278.824 127.314 278.474 127.792 278.237 128.408C278 129.018 277.882 129.731 277.882 130.545ZM293.002 136.227C291.951 136.227 291.045 135.995 290.282 135.531C289.525 135.062 288.94 134.409 288.528 133.571C288.121 132.728 287.917 131.748 287.917 130.631C287.917 129.513 288.121 128.528 288.528 127.676C288.94 126.819 289.513 126.152 290.247 125.673C290.985 125.19 291.847 124.949 292.832 124.949C293.4 124.949 293.961 125.044 294.515 125.233C295.069 125.422 295.574 125.73 296.028 126.156C296.483 126.578 296.845 127.136 297.115 127.832C297.385 128.528 297.52 129.385 297.52 130.403V131.114H289.11V129.665H295.815C295.815 129.049 295.692 128.5 295.446 128.017C295.204 127.534 294.859 127.153 294.409 126.874C293.964 126.594 293.438 126.455 292.832 126.455C292.164 126.455 291.587 126.62 291.099 126.952C290.616 127.278 290.244 127.705 289.984 128.23C289.724 128.756 289.593 129.319 289.593 129.92V130.886C289.593 131.71 289.735 132.409 290.02 132.982C290.308 133.55 290.708 133.983 291.22 134.281C291.731 134.575 292.325 134.722 293.002 134.722C293.443 134.722 293.841 134.66 294.196 134.537C294.556 134.409 294.866 134.22 295.126 133.969C295.386 133.713 295.588 133.396 295.73 133.017L297.349 133.472C297.179 134.021 296.892 134.504 296.49 134.92C296.087 135.332 295.59 135.654 294.998 135.886C294.406 136.114 293.741 136.227 293.002 136.227ZM300.069 136V125.091H301.689V126.739H301.802C302.001 126.199 302.361 125.761 302.882 125.425C303.403 125.089 303.99 124.92 304.643 124.92C304.766 124.92 304.92 124.923 305.105 124.928C305.289 124.932 305.429 124.939 305.524 124.949V126.653C305.467 126.639 305.337 126.618 305.133 126.589C304.934 126.556 304.724 126.54 304.501 126.54C303.971 126.54 303.497 126.651 303.081 126.874C302.669 127.091 302.342 127.394 302.1 127.783C301.864 128.166 301.745 128.604 301.745 129.097V136H300.069ZM314.357 136.114C314.007 136.114 313.706 135.988 313.455 135.737C313.204 135.486 313.079 135.186 313.079 134.835C313.079 134.485 313.204 134.184 313.455 133.933C313.706 133.682 314.007 133.557 314.357 133.557C314.708 133.557 315.008 133.682 315.259 133.933C315.51 134.184 315.636 134.485 315.636 134.835C315.636 135.067 315.576 135.28 315.458 135.474C315.344 135.669 315.191 135.825 314.996 135.943C314.807 136.057 314.594 136.114 314.357 136.114ZM314.357 128.017C314.007 128.017 313.706 127.892 313.455 127.641C313.204 127.39 313.079 127.089 313.079 126.739C313.079 126.388 313.204 126.088 313.455 125.837C313.706 125.586 314.007 125.46 314.357 125.46C314.708 125.46 315.008 125.586 315.259 125.837C315.51 126.088 315.636 126.388 315.636 126.739C315.636 126.971 315.576 127.184 315.458 127.378C315.344 127.572 315.191 127.728 314.996 127.847C314.807 127.96 314.594 128.017 314.357 128.017Z" fill="black"/>
<path d="M1528.25 140H1523.76V125.455H1528.45C1529.86 125.455 1531.07 125.746 1532.07 126.328C1533.07 126.906 1533.84 127.737 1534.38 128.821C1534.91 129.901 1535.18 131.193 1535.18 132.699C1535.18 134.214 1534.91 135.518 1534.37 136.612C1533.83 137.701 1533.05 138.539 1532.01 139.126C1530.98 139.709 1529.73 140 1528.25 140ZM1525.52 138.438H1528.14C1529.34 138.438 1530.34 138.205 1531.13 137.741C1531.92 137.277 1532.51 136.617 1532.89 135.76C1533.28 134.903 1533.48 133.883 1533.48 132.699C1533.48 131.525 1533.29 130.514 1532.9 129.666C1532.52 128.814 1531.95 128.161 1531.18 127.706C1530.42 127.247 1529.47 127.017 1528.34 127.017H1525.52V138.438ZM1542.48 140.227C1541.43 140.227 1540.53 139.995 1539.76 139.531C1539.01 139.062 1538.42 138.409 1538.01 137.571C1537.6 136.728 1537.4 135.748 1537.4 134.631C1537.4 133.513 1537.6 132.528 1538.01 131.676C1538.42 130.819 1538.99 130.152 1539.73 129.673C1540.47 129.19 1541.33 128.949 1542.31 128.949C1542.88 128.949 1543.44 129.044 1544 129.233C1544.55 129.422 1545.05 129.73 1545.51 130.156C1545.96 130.578 1546.33 131.136 1546.6 131.832C1546.87 132.528 1547 133.385 1547 134.403V135.114H1538.59V133.665H1545.3C1545.3 133.049 1545.17 132.5 1544.93 132.017C1544.68 131.534 1544.34 131.153 1543.89 130.874C1543.44 130.594 1542.92 130.455 1542.31 130.455C1541.64 130.455 1541.07 130.62 1540.58 130.952C1540.1 131.278 1539.72 131.705 1539.46 132.23C1539.2 132.756 1539.07 133.319 1539.07 133.92V134.886C1539.07 135.71 1539.22 136.409 1539.5 136.982C1539.79 137.55 1540.19 137.983 1540.7 138.281C1541.21 138.575 1541.81 138.722 1542.48 138.722C1542.92 138.722 1543.32 138.66 1543.68 138.537C1544.04 138.409 1544.35 138.22 1544.61 137.969C1544.87 137.713 1545.07 137.396 1545.21 137.017L1546.83 137.472C1546.66 138.021 1546.37 138.504 1545.97 138.92C1545.57 139.332 1545.07 139.654 1544.48 139.886C1543.89 140.114 1543.22 140.227 1542.48 140.227ZM1557.28 131.534L1555.77 131.96C1555.68 131.709 1555.54 131.465 1555.35 131.229C1555.17 130.987 1554.93 130.788 1554.61 130.632C1554.3 130.476 1553.9 130.398 1553.41 130.398C1552.75 130.398 1552.19 130.552 1551.74 130.859C1551.3 131.162 1551.08 131.548 1551.08 132.017C1551.08 132.434 1551.24 132.763 1551.54 133.004C1551.84 133.246 1552.31 133.447 1552.96 133.608L1554.58 134.006C1555.55 134.242 1556.28 134.605 1556.76 135.092C1557.24 135.575 1557.48 136.198 1557.48 136.96C1557.48 137.585 1557.3 138.144 1556.94 138.636C1556.58 139.129 1556.08 139.517 1555.44 139.801C1554.81 140.085 1554.06 140.227 1553.21 140.227C1552.1 140.227 1551.18 139.986 1550.45 139.503C1549.72 139.02 1549.26 138.314 1549.07 137.386L1550.66 136.989C1550.81 137.576 1551.1 138.016 1551.52 138.31C1551.94 138.603 1552.5 138.75 1553.19 138.75C1553.97 138.75 1554.59 138.584 1555.05 138.253C1555.51 137.917 1555.74 137.514 1555.74 137.045C1555.74 136.667 1555.61 136.349 1555.35 136.094C1555.08 135.833 1554.67 135.639 1554.12 135.511L1552.31 135.085C1551.31 134.848 1550.57 134.482 1550.1 133.984C1549.64 133.482 1549.41 132.855 1549.41 132.102C1549.41 131.487 1549.58 130.942 1549.93 130.469C1550.28 129.995 1550.75 129.624 1551.35 129.354C1551.96 129.084 1552.65 128.949 1553.41 128.949C1554.49 128.949 1555.34 129.186 1555.96 129.659C1556.58 130.133 1557.02 130.758 1557.28 131.534ZM1564.43 140.227C1563.41 140.227 1562.53 139.986 1561.79 139.503C1561.05 139.02 1560.48 138.355 1560.08 137.507C1559.69 136.66 1559.49 135.691 1559.49 134.602C1559.49 133.494 1559.69 132.517 1560.1 131.669C1560.51 130.817 1561.08 130.152 1561.82 129.673C1562.56 129.19 1563.42 128.949 1564.4 128.949C1565.17 128.949 1565.86 129.091 1566.48 129.375C1567.09 129.659 1567.6 130.057 1567.99 130.568C1568.38 131.08 1568.63 131.676 1568.72 132.358H1567.04C1566.92 131.861 1566.63 131.42 1566.19 131.037C1565.76 130.649 1565.17 130.455 1564.43 130.455C1563.78 130.455 1563.2 130.625 1562.71 130.966C1562.22 131.302 1561.84 131.778 1561.57 132.393C1561.3 133.004 1561.16 133.722 1561.16 134.545C1561.16 135.388 1561.3 136.122 1561.56 136.747C1561.83 137.372 1562.21 137.857 1562.7 138.203C1563.19 138.549 1563.77 138.722 1564.43 138.722C1564.87 138.722 1565.26 138.646 1565.62 138.494C1565.97 138.343 1566.27 138.125 1566.52 137.841C1566.77 137.557 1566.94 137.216 1567.04 136.818H1568.72C1568.63 137.462 1568.39 138.042 1568.02 138.558C1567.65 139.07 1567.16 139.477 1566.55 139.78C1565.94 140.078 1565.24 140.227 1564.43 140.227ZM1571.17 140V129.091H1572.79V130.739H1572.9C1573.1 130.199 1573.46 129.761 1573.98 129.425C1574.5 129.089 1575.09 128.92 1575.74 128.92C1575.87 128.92 1576.02 128.923 1576.21 128.928C1576.39 128.932 1576.53 128.939 1576.63 128.949V130.653C1576.57 130.639 1576.44 130.618 1576.23 130.589C1576.04 130.556 1575.83 130.54 1575.6 130.54C1575.07 130.54 1574.6 130.651 1574.18 130.874C1573.77 131.091 1573.44 131.394 1573.2 131.783C1572.97 132.166 1572.85 132.604 1572.85 133.097V140H1571.17ZM1578.61 140V129.091H1580.29V140H1578.61ZM1579.46 127.273C1579.14 127.273 1578.86 127.161 1578.62 126.939C1578.39 126.716 1578.27 126.449 1578.27 126.136C1578.27 125.824 1578.39 125.556 1578.62 125.334C1578.86 125.111 1579.14 125 1579.46 125C1579.79 125 1580.07 125.111 1580.3 125.334C1580.54 125.556 1580.66 125.824 1580.66 126.136C1580.66 126.449 1580.54 126.716 1580.3 126.939C1580.07 127.161 1579.79 127.273 1579.46 127.273ZM1583.36 144.091V129.091H1584.98V130.824H1585.18C1585.3 130.634 1585.47 130.393 1585.69 130.099C1585.91 129.801 1586.23 129.536 1586.64 129.304C1587.06 129.067 1587.62 128.949 1588.33 128.949C1589.25 128.949 1590.06 129.179 1590.76 129.638C1591.46 130.097 1592.01 130.748 1592.4 131.591C1592.79 132.434 1592.99 133.428 1592.99 134.574C1592.99 135.729 1592.79 136.731 1592.4 137.578C1592.01 138.421 1591.46 139.074 1590.77 139.538C1590.07 139.998 1589.27 140.227 1588.36 140.227C1587.66 140.227 1587.1 140.111 1586.68 139.879C1586.25 139.643 1585.93 139.375 1585.7 139.077C1585.47 138.774 1585.3 138.523 1585.18 138.324H1585.03V144.091H1583.36ZM1585.01 134.545C1585.01 135.369 1585.13 136.096 1585.37 136.726C1585.61 137.351 1585.96 137.841 1586.43 138.196C1586.89 138.546 1587.46 138.722 1588.13 138.722C1588.83 138.722 1589.42 138.537 1589.89 138.168C1590.36 137.794 1590.71 137.292 1590.95 136.662C1591.19 136.027 1591.31 135.322 1591.31 134.545C1591.31 133.778 1591.19 133.087 1590.96 132.472C1590.73 131.851 1590.37 131.361 1589.9 131.001C1589.43 130.637 1588.84 130.455 1588.13 130.455C1587.45 130.455 1586.88 130.627 1586.41 130.973C1585.95 131.314 1585.6 131.792 1585.36 132.408C1585.12 133.018 1585.01 133.731 1585.01 134.545ZM1600.29 129.091V130.511H1594.64V129.091H1600.29ZM1596.28 126.477H1597.96V136.875C1597.96 137.348 1598.03 137.704 1598.17 137.94C1598.31 138.172 1598.49 138.329 1598.71 138.409C1598.93 138.485 1599.16 138.523 1599.41 138.523C1599.59 138.523 1599.75 138.513 1599.86 138.494C1599.98 138.471 1600.08 138.452 1600.15 138.438L1600.49 139.943C1600.38 139.986 1600.22 140.028 1600.01 140.071C1599.81 140.118 1599.55 140.142 1599.24 140.142C1598.77 140.142 1598.3 140.04 1597.85 139.837C1597.4 139.633 1597.02 139.323 1596.72 138.906C1596.43 138.49 1596.28 137.964 1596.28 137.33V126.477ZM1602.81 140V129.091H1604.49V140H1602.81ZM1603.66 127.273C1603.34 127.273 1603.06 127.161 1602.82 126.939C1602.59 126.716 1602.47 126.449 1602.47 126.136C1602.47 125.824 1602.59 125.556 1602.82 125.334C1603.06 125.111 1603.34 125 1603.66 125C1603.99 125 1604.27 125.111 1604.5 125.334C1604.74 125.556 1604.86 125.824 1604.86 126.136C1604.86 126.449 1604.74 126.716 1604.5 126.939C1604.27 127.161 1603.99 127.273 1603.66 127.273ZM1611.99 140.227C1611 140.227 1610.14 139.993 1609.4 139.524C1608.66 139.055 1608.08 138.4 1607.66 137.557C1607.25 136.714 1607.05 135.729 1607.05 134.602C1607.05 133.466 1607.25 132.474 1607.66 131.626C1608.08 130.779 1608.66 130.121 1609.4 129.652C1610.14 129.183 1611 128.949 1611.99 128.949C1612.97 128.949 1613.84 129.183 1614.57 129.652C1615.32 130.121 1615.9 130.779 1616.31 131.626C1616.72 132.474 1616.93 133.466 1616.93 134.602C1616.93 135.729 1616.72 136.714 1616.31 137.557C1615.9 138.4 1615.32 139.055 1614.57 139.524C1613.84 139.993 1612.97 140.227 1611.99 140.227ZM1611.99 138.722C1612.74 138.722 1613.35 138.53 1613.84 138.146C1614.32 137.763 1614.68 137.259 1614.91 136.634C1615.14 136.009 1615.26 135.331 1615.26 134.602C1615.26 133.873 1615.14 133.194 1614.91 132.564C1614.68 131.934 1614.32 131.425 1613.84 131.037C1613.35 130.649 1612.74 130.455 1611.99 130.455C1611.24 130.455 1610.63 130.649 1610.14 131.037C1609.66 131.425 1609.3 131.934 1609.07 132.564C1608.84 133.194 1608.72 133.873 1608.72 134.602C1608.72 135.331 1608.84 136.009 1609.07 136.634C1609.3 137.259 1609.66 137.763 1610.14 138.146C1610.63 138.53 1611.24 138.722 1611.99 138.722ZM1621.17 133.438V140H1619.49V129.091H1621.11V130.795H1621.25C1621.51 130.241 1621.9 129.796 1622.42 129.46C1622.94 129.119 1623.61 128.949 1624.43 128.949C1625.17 128.949 1625.82 129.1 1626.37 129.403C1626.93 129.702 1627.36 130.156 1627.67 130.767C1627.97 131.373 1628.13 132.14 1628.13 133.068V140H1626.45V133.182C1626.45 132.325 1626.23 131.657 1625.78 131.179C1625.34 130.696 1624.73 130.455 1623.95 130.455C1623.42 130.455 1622.94 130.571 1622.52 130.803C1622.1 131.035 1621.77 131.373 1621.53 131.818C1621.29 132.263 1621.17 132.803 1621.17 133.438ZM1641.25 140.227C1640.26 140.227 1639.4 139.993 1638.65 139.524C1637.92 139.055 1637.34 138.4 1636.92 137.557C1636.51 136.714 1636.3 135.729 1636.3 134.602C1636.3 133.466 1636.51 132.474 1636.92 131.626C1637.34 130.779 1637.92 130.121 1638.65 129.652C1639.4 129.183 1640.26 128.949 1641.25 128.949C1642.23 128.949 1643.09 129.183 1643.83 129.652C1644.58 130.121 1645.15 130.779 1645.57 131.626C1645.98 132.474 1646.19 133.466 1646.19 134.602C1646.19 135.729 1645.98 136.714 1645.57 137.557C1645.15 138.4 1644.58 139.055 1643.83 139.524C1643.09 139.993 1642.23 140.227 1641.25 140.227ZM1641.25 138.722C1642 138.722 1642.61 138.53 1643.09 138.146C1643.58 137.763 1643.93 137.259 1644.17 136.634C1644.4 136.009 1644.51 135.331 1644.51 134.602C1644.51 133.873 1644.4 133.194 1644.17 132.564C1643.93 131.934 1643.58 131.425 1643.09 131.037C1642.61 130.649 1642 130.455 1641.25 130.455C1640.5 130.455 1639.88 130.649 1639.4 131.037C1638.92 131.425 1638.56 131.934 1638.33 132.564C1638.1 133.194 1637.98 133.873 1637.98 134.602C1637.98 135.331 1638.1 136.009 1638.33 136.634C1638.56 137.259 1638.92 137.763 1639.4 138.146C1639.88 138.53 1640.5 138.722 1641.25 138.722ZM1653.61 129.091V130.511H1647.73V129.091H1653.61ZM1649.49 140V127.585C1649.49 126.96 1649.63 126.439 1649.93 126.023C1650.22 125.606 1650.6 125.294 1651.07 125.085C1651.54 124.877 1652.03 124.773 1652.56 124.773C1652.97 124.773 1653.3 124.806 1653.56 124.872C1653.82 124.938 1654.02 125 1654.15 125.057L1653.66 126.506C1653.58 126.477 1653.46 126.442 1653.31 126.399C1653.16 126.357 1652.97 126.335 1652.73 126.335C1652.17 126.335 1651.77 126.475 1651.53 126.754C1651.28 127.034 1651.16 127.443 1651.16 127.983V140H1649.49ZM1664.05 140L1660.73 129.091H1662.49L1664.85 137.443H1664.96L1667.29 129.091H1669.08L1671.38 137.415H1671.5L1673.85 129.091H1675.62L1672.29 140H1670.64L1668.26 131.619H1668.09L1665.7 140H1664.05ZM1679.51 133.438V140H1677.83V125.455H1679.51V130.795H1679.65C1679.9 130.232 1680.29 129.785 1680.8 129.453C1681.32 129.117 1682 128.949 1682.86 128.949C1683.6 128.949 1684.25 129.098 1684.81 129.396C1685.37 129.69 1685.8 130.142 1686.11 130.753C1686.42 131.359 1686.58 132.131 1686.58 133.068V140H1684.9V133.182C1684.9 132.315 1684.68 131.645 1684.23 131.172C1683.79 130.694 1683.17 130.455 1682.38 130.455C1681.83 130.455 1681.33 130.571 1680.9 130.803C1680.47 131.035 1680.13 131.373 1679.88 131.818C1679.63 132.263 1679.51 132.803 1679.51 133.438ZM1692.86 140.256C1692.17 140.256 1691.54 140.125 1690.98 139.865C1690.41 139.6 1689.96 139.219 1689.63 138.722C1689.3 138.22 1689.14 137.614 1689.14 136.903C1689.14 136.278 1689.26 135.772 1689.51 135.384C1689.75 134.991 1690.08 134.683 1690.49 134.46C1690.9 134.238 1691.36 134.072 1691.86 133.963C1692.36 133.849 1692.86 133.759 1693.37 133.693C1694.03 133.608 1694.57 133.544 1694.98 133.501C1695.4 133.454 1695.7 133.376 1695.89 133.267C1696.08 133.158 1696.18 132.969 1696.18 132.699V132.642C1696.18 131.941 1695.99 131.397 1695.61 131.009C1695.23 130.62 1694.65 130.426 1693.88 130.426C1693.08 130.426 1692.45 130.601 1692 130.952C1691.54 131.302 1691.22 131.676 1691.04 132.074L1689.45 131.506C1689.73 130.843 1690.11 130.327 1690.58 129.957C1691.06 129.583 1691.58 129.323 1692.15 129.176C1692.72 129.025 1693.27 128.949 1693.82 128.949C1694.17 128.949 1694.58 128.991 1695.03 129.077C1695.49 129.157 1695.93 129.325 1696.36 129.581C1696.79 129.837 1697.15 130.223 1697.43 130.739C1697.72 131.255 1697.86 131.946 1697.86 132.812V140H1696.18V138.523H1696.1C1695.98 138.759 1695.79 139.013 1695.53 139.283C1695.26 139.553 1694.91 139.782 1694.47 139.972C1694.03 140.161 1693.49 140.256 1692.86 140.256ZM1693.11 138.75C1693.78 138.75 1694.33 138.62 1694.79 138.359C1695.25 138.099 1695.59 137.763 1695.83 137.351C1696.06 136.939 1696.18 136.506 1696.18 136.051V134.517C1696.11 134.602 1695.95 134.68 1695.71 134.751C1695.48 134.818 1695.2 134.877 1694.89 134.929C1694.58 134.976 1694.28 135.019 1693.99 135.057C1693.7 135.09 1693.46 135.118 1693.28 135.142C1692.85 135.199 1692.44 135.291 1692.06 135.419C1691.69 135.542 1691.39 135.729 1691.15 135.98C1690.93 136.226 1690.81 136.562 1690.81 136.989C1690.81 137.571 1691.03 138.011 1691.46 138.31C1691.89 138.603 1692.45 138.75 1693.11 138.75ZM1705.66 129.091V130.511H1700.01V129.091H1705.66ZM1701.66 126.477H1703.33V136.875C1703.33 137.348 1703.4 137.704 1703.54 137.94C1703.68 138.172 1703.86 138.329 1704.08 138.409C1704.3 138.485 1704.53 138.523 1704.78 138.523C1704.97 138.523 1705.12 138.513 1705.24 138.494C1705.35 138.471 1705.45 138.452 1705.52 138.438L1705.86 139.943C1705.75 139.986 1705.59 140.028 1705.38 140.071C1705.18 140.118 1704.92 140.142 1704.61 140.142C1704.14 140.142 1703.67 140.04 1703.22 139.837C1702.77 139.633 1702.39 139.323 1702.1 138.906C1701.8 138.49 1701.66 137.964 1701.66 137.33V126.477ZM1714.03 140V125.455H1718.95C1720.09 125.455 1721.02 125.649 1721.75 126.037C1722.48 126.42 1723.02 126.948 1723.37 127.621C1723.72 128.293 1723.89 129.058 1723.89 129.915C1723.89 130.772 1723.72 131.532 1723.37 132.195C1723.02 132.857 1722.48 133.378 1721.75 133.757C1721.03 134.131 1720.1 134.318 1718.98 134.318H1715V132.727H1718.92C1719.7 132.727 1720.32 132.614 1720.8 132.386C1721.27 132.159 1721.62 131.837 1721.83 131.42C1722.05 130.999 1722.16 130.497 1722.16 129.915C1722.16 129.332 1722.05 128.823 1721.83 128.388C1721.62 127.952 1721.27 127.616 1720.79 127.379C1720.31 127.138 1719.68 127.017 1718.89 127.017H1715.8V140H1714.03ZM1720.88 133.466L1724.46 140H1722.42L1718.89 133.466H1720.88ZM1726.34 140V138.722L1734.19 127.017H1726.26V125.455H1736.29V126.733L1728.45 138.438H1736.37V140H1726.34ZM1739.92 140H1738.08L1743.42 125.455H1745.24L1750.58 140H1748.73L1744.38 127.756H1744.27L1739.92 140ZM1740.61 134.318H1748.05V135.881H1740.61V134.318ZM1758.24 140V129.091H1759.92V140H1758.24ZM1759.09 127.273C1758.77 127.273 1758.48 127.161 1758.25 126.939C1758.02 126.716 1757.9 126.449 1757.9 126.136C1757.9 125.824 1758.02 125.556 1758.25 125.334C1758.48 125.111 1758.77 125 1759.09 125C1759.42 125 1759.7 125.111 1759.93 125.334C1760.17 125.556 1760.29 125.824 1760.29 126.136C1760.29 126.449 1760.17 126.716 1759.93 126.939C1759.7 127.161 1759.42 127.273 1759.09 127.273ZM1770.71 131.534L1769.21 131.96C1769.11 131.709 1768.97 131.465 1768.79 131.229C1768.61 130.987 1768.36 130.788 1768.05 130.632C1767.74 130.476 1767.34 130.398 1766.85 130.398C1766.18 130.398 1765.63 130.552 1765.18 130.859C1764.74 131.162 1764.52 131.548 1764.52 132.017C1764.52 132.434 1764.67 132.763 1764.98 133.004C1765.28 133.246 1765.75 133.447 1766.4 133.608L1768.02 134.006C1768.99 134.242 1769.72 134.605 1770.2 135.092C1770.67 135.575 1770.91 136.198 1770.91 136.96C1770.91 137.585 1770.73 138.144 1770.37 138.636C1770.02 139.129 1769.52 139.517 1768.88 139.801C1768.24 140.085 1767.5 140.227 1766.65 140.227C1765.54 140.227 1764.62 139.986 1763.89 139.503C1763.16 139.02 1762.7 138.314 1762.5 137.386L1764.1 136.989C1764.25 137.576 1764.53 138.016 1764.95 138.31C1765.38 138.603 1765.94 138.75 1766.62 138.75C1767.4 138.75 1768.03 138.584 1768.48 138.253C1768.95 137.917 1769.18 137.514 1769.18 137.045C1769.18 136.667 1769.05 136.349 1768.78 136.094C1768.52 135.833 1768.11 135.639 1767.56 135.511L1765.74 135.085C1764.74 134.848 1764.01 134.482 1763.54 133.984C1763.08 133.482 1762.85 132.855 1762.85 132.102C1762.85 131.487 1763.02 130.942 1763.36 130.469C1763.71 129.995 1764.19 129.624 1764.79 129.354C1765.4 129.084 1766.08 128.949 1766.85 128.949C1767.93 128.949 1768.78 129.186 1769.39 129.659C1770.01 130.133 1770.45 130.758 1770.71 131.534ZM1774.66 140.114C1774.31 140.114 1774.01 139.988 1773.76 139.737C1773.51 139.486 1773.38 139.186 1773.38 138.835C1773.38 138.485 1773.51 138.184 1773.76 137.933C1774.01 137.682 1774.31 137.557 1774.66 137.557C1775.01 137.557 1775.31 137.682 1775.56 137.933C1775.81 138.184 1775.94 138.485 1775.94 138.835C1775.94 139.067 1775.88 139.28 1775.76 139.474C1775.65 139.669 1775.49 139.825 1775.3 139.943C1775.11 140.057 1774.89 140.114 1774.66 140.114ZM1774.66 132.017C1774.31 132.017 1774.01 131.892 1773.76 131.641C1773.51 131.39 1773.38 131.089 1773.38 130.739C1773.38 130.388 1773.51 130.088 1773.76 129.837C1774.01 129.586 1774.31 129.46 1774.66 129.46C1775.01 129.46 1775.31 129.586 1775.56 129.837C1775.81 130.088 1775.94 130.388 1775.94 130.739C1775.94 130.971 1775.88 131.184 1775.76 131.378C1775.65 131.572 1775.49 131.728 1775.3 131.847C1775.11 131.96 1774.89 132.017 1774.66 132.017Z" fill="black"/>
<path d="M855.358 197H853.511L858.852 182.455H860.67L866.011 197H864.165L859.818 184.756H859.705L855.358 197ZM856.04 191.318H863.483V192.881H856.04V191.318ZM872.169 197.227C871.26 197.227 870.457 196.998 869.761 196.538C869.065 196.074 868.521 195.421 868.128 194.578C867.735 193.731 867.538 192.729 867.538 191.574C867.538 190.428 867.735 189.434 868.128 188.591C868.521 187.748 869.068 187.097 869.768 186.638C870.469 186.179 871.279 185.949 872.197 185.949C872.908 185.949 873.469 186.067 873.881 186.304C874.297 186.536 874.615 186.801 874.832 187.099C875.055 187.393 875.228 187.634 875.351 187.824H875.493V182.455H877.169V197H875.55V195.324H875.351C875.228 195.523 875.053 195.774 874.825 196.077C874.598 196.375 874.274 196.643 873.852 196.879C873.431 197.111 872.87 197.227 872.169 197.227ZM872.396 195.722C873.069 195.722 873.637 195.546 874.101 195.196C874.565 194.841 874.918 194.351 875.159 193.726C875.401 193.096 875.521 192.369 875.521 191.545C875.521 190.731 875.403 190.018 875.166 189.408C874.929 188.792 874.579 188.314 874.115 187.973C873.651 187.627 873.078 187.455 872.396 187.455C871.686 187.455 871.094 187.637 870.621 188.001C870.152 188.361 869.799 188.851 869.562 189.472C869.33 190.087 869.214 190.778 869.214 191.545C869.214 192.322 869.333 193.027 869.57 193.662C869.811 194.292 870.166 194.794 870.635 195.168C871.108 195.537 871.696 195.722 872.396 195.722ZM884.591 197.227C883.682 197.227 882.879 196.998 882.183 196.538C881.487 196.074 880.943 195.421 880.55 194.578C880.157 193.731 879.96 192.729 879.96 191.574C879.96 190.428 880.157 189.434 880.55 188.591C880.943 187.748 881.49 187.097 882.19 186.638C882.891 186.179 883.701 185.949 884.619 185.949C885.33 185.949 885.891 186.067 886.303 186.304C886.719 186.536 887.036 186.801 887.254 187.099C887.477 187.393 887.65 187.634 887.773 187.824H887.915V182.455H889.591V197H887.972V195.324H887.773C887.65 195.523 887.474 195.774 887.247 196.077C887.02 196.375 886.696 196.643 886.274 196.879C885.853 197.111 885.292 197.227 884.591 197.227ZM884.818 195.722C885.491 195.722 886.059 195.546 886.523 195.196C886.987 194.841 887.339 194.351 887.581 193.726C887.822 193.096 887.943 192.369 887.943 191.545C887.943 190.731 887.825 190.018 887.588 189.408C887.351 188.792 887.001 188.314 886.537 187.973C886.073 187.627 885.5 187.455 884.818 187.455C884.108 187.455 883.516 187.637 883.043 188.001C882.574 188.361 882.221 188.851 881.984 189.472C881.752 190.087 881.636 190.778 881.636 191.545C881.636 192.322 881.755 193.027 881.991 193.662C882.233 194.292 882.588 194.794 883.057 195.168C883.53 195.537 884.117 195.722 884.818 195.722ZM892.893 197V186.091H894.513V187.739H894.626C894.825 187.199 895.185 186.761 895.706 186.425C896.227 186.089 896.814 185.92 897.467 185.92C897.59 185.92 897.744 185.923 897.929 185.928C898.114 185.932 898.253 185.939 898.348 185.949V187.653C898.291 187.639 898.161 187.618 897.957 187.589C897.759 187.556 897.548 187.54 897.325 187.54C896.795 187.54 896.321 187.651 895.905 187.874C895.493 188.091 895.166 188.394 894.925 188.783C894.688 189.166 894.57 189.604 894.57 190.097V197H892.893ZM904.577 197.227C903.526 197.227 902.619 196.995 901.857 196.531C901.099 196.062 900.514 195.409 900.102 194.571C899.695 193.728 899.491 192.748 899.491 191.631C899.491 190.513 899.695 189.528 900.102 188.676C900.514 187.819 901.087 187.152 901.821 186.673C902.56 186.19 903.421 185.949 904.406 185.949C904.974 185.949 905.536 186.044 906.089 186.233C906.643 186.422 907.148 186.73 907.602 187.156C908.057 187.578 908.419 188.136 908.689 188.832C908.959 189.528 909.094 190.385 909.094 191.403V192.114H900.685V190.665H907.389C907.389 190.049 907.266 189.5 907.02 189.017C906.778 188.534 906.433 188.153 905.983 187.874C905.538 187.594 905.012 187.455 904.406 187.455C903.739 187.455 903.161 187.62 902.673 187.952C902.19 188.278 901.819 188.705 901.558 189.23C901.298 189.756 901.168 190.319 901.168 190.92V191.886C901.168 192.71 901.31 193.409 901.594 193.982C901.883 194.55 902.283 194.983 902.794 195.281C903.305 195.575 903.9 195.722 904.577 195.722C905.017 195.722 905.415 195.66 905.77 195.537C906.13 195.409 906.44 195.22 906.7 194.969C906.961 194.713 907.162 194.396 907.304 194.017L908.923 194.472C908.753 195.021 908.466 195.504 908.064 195.92C907.661 196.332 907.164 196.654 906.572 196.886C905.981 197.114 905.315 197.227 904.577 197.227ZM919.371 188.534L917.865 188.96C917.77 188.709 917.631 188.465 917.446 188.229C917.266 187.987 917.02 187.788 916.707 187.632C916.395 187.476 915.995 187.398 915.507 187.398C914.839 187.398 914.283 187.552 913.838 187.859C913.398 188.162 913.178 188.548 913.178 189.017C913.178 189.434 913.329 189.763 913.632 190.004C913.935 190.246 914.409 190.447 915.053 190.608L916.672 191.006C917.647 191.242 918.374 191.605 918.852 192.092C919.33 192.575 919.57 193.198 919.57 193.96C919.57 194.585 919.39 195.144 919.03 195.636C918.675 196.129 918.178 196.517 917.538 196.801C916.899 197.085 916.156 197.227 915.308 197.227C914.196 197.227 913.275 196.986 912.545 196.503C911.816 196.02 911.355 195.314 911.161 194.386L912.751 193.989C912.903 194.576 913.189 195.016 913.611 195.31C914.037 195.603 914.593 195.75 915.28 195.75C916.061 195.75 916.681 195.584 917.141 195.253C917.605 194.917 917.837 194.514 917.837 194.045C917.837 193.667 917.704 193.349 917.439 193.094C917.174 192.833 916.767 192.639 916.217 192.511L914.399 192.085C913.4 191.848 912.666 191.482 912.197 190.984C911.733 190.482 911.501 189.855 911.501 189.102C911.501 188.487 911.674 187.942 912.02 187.469C912.37 186.995 912.846 186.624 913.447 186.354C914.054 186.084 914.74 185.949 915.507 185.949C916.587 185.949 917.434 186.186 918.05 186.659C918.67 187.133 919.11 187.758 919.371 188.534ZM929.82 188.534L928.314 188.96C928.22 188.709 928.08 188.465 927.895 188.229C927.715 187.987 927.469 187.788 927.157 187.632C926.844 187.476 926.444 187.398 925.956 187.398C925.289 187.398 924.732 187.552 924.287 187.859C923.847 188.162 923.627 188.548 923.627 189.017C923.627 189.434 923.778 189.763 924.081 190.004C924.384 190.246 924.858 190.447 925.502 190.608L927.121 191.006C928.096 191.242 928.823 191.605 929.301 192.092C929.78 192.575 930.019 193.198 930.019 193.96C930.019 194.585 929.839 195.144 929.479 195.636C929.124 196.129 928.627 196.517 927.988 196.801C927.348 197.085 926.605 197.227 925.757 197.227C924.645 197.227 923.724 196.986 922.995 196.503C922.266 196.02 921.804 195.314 921.61 194.386L923.201 193.989C923.352 194.576 923.639 195.016 924.06 195.31C924.486 195.603 925.042 195.75 925.729 195.75C926.51 195.75 927.131 195.584 927.59 195.253C928.054 194.917 928.286 194.514 928.286 194.045C928.286 193.667 928.153 193.349 927.888 193.094C927.623 192.833 927.216 192.639 926.667 192.511L924.848 192.085C923.849 191.848 923.115 191.482 922.647 190.984C922.183 190.482 921.951 189.855 921.951 189.102C921.951 188.487 922.123 187.942 922.469 187.469C922.819 186.995 923.295 186.624 923.897 186.354C924.503 186.084 925.189 185.949 925.956 185.949C927.036 185.949 927.883 186.186 928.499 186.659C929.119 187.133 929.56 187.758 929.82 188.534ZM933.763 197.114C933.413 197.114 933.112 196.988 932.862 196.737C932.611 196.486 932.485 196.186 932.485 195.835C932.485 195.485 932.611 195.184 932.862 194.933C933.112 194.682 933.413 194.557 933.763 194.557C934.114 194.557 934.415 194.682 934.665 194.933C934.916 195.184 935.042 195.485 935.042 195.835C935.042 196.067 934.983 196.28 934.864 196.474C934.751 196.669 934.597 196.825 934.403 196.943C934.213 197.057 934 197.114 933.763 197.114ZM933.763 189.017C933.413 189.017 933.112 188.892 932.862 188.641C932.611 188.39 932.485 188.089 932.485 187.739C932.485 187.388 932.611 187.088 932.862 186.837C933.112 186.586 933.413 186.46 933.763 186.46C934.114 186.46 934.415 186.586 934.665 186.837C934.916 187.088 935.042 187.388 935.042 187.739C935.042 187.971 934.983 188.184 934.864 188.378C934.751 188.572 934.597 188.728 934.403 188.847C934.213 188.96 934 189.017 933.763 189.017Z" fill="black"/>
<path d="M854.761 140V125.455H859.676C860.817 125.455 861.75 125.661 862.474 126.072C863.204 126.48 863.743 127.031 864.094 127.727C864.444 128.423 864.619 129.2 864.619 130.057C864.619 130.914 864.444 131.693 864.094 132.393C863.748 133.094 863.213 133.653 862.489 134.07C861.764 134.482 860.836 134.688 859.705 134.688H856.182V133.125H859.648C860.429 133.125 861.056 132.99 861.53 132.72C862.003 132.45 862.347 132.086 862.56 131.626C862.777 131.162 862.886 130.639 862.886 130.057C862.886 129.474 862.777 128.954 862.56 128.494C862.347 128.035 862.001 127.675 861.523 127.415C861.045 127.15 860.41 127.017 859.619 127.017H856.523V140H854.761ZM871.544 140.227C870.559 140.227 869.695 139.993 868.952 139.524C868.213 139.055 867.635 138.4 867.219 137.557C866.807 136.714 866.601 135.729 866.601 134.602C866.601 133.466 866.807 132.474 867.219 131.626C867.635 130.779 868.213 130.121 868.952 129.652C869.695 129.183 870.559 128.949 871.544 128.949C872.529 128.949 873.391 129.183 874.129 129.652C874.873 130.121 875.45 130.779 875.862 131.626C876.279 132.474 876.487 133.466 876.487 134.602C876.487 135.729 876.279 136.714 875.862 137.557C875.45 138.4 874.873 139.055 874.129 139.524C873.391 139.993 872.529 140.227 871.544 140.227ZM871.544 138.722C872.292 138.722 872.908 138.53 873.391 138.146C873.874 137.763 874.231 137.259 874.463 136.634C874.695 136.009 874.811 135.331 874.811 134.602C874.811 133.873 874.695 133.194 874.463 132.564C874.231 131.934 873.874 131.425 873.391 131.037C872.908 130.649 872.292 130.455 871.544 130.455C870.796 130.455 870.18 130.649 869.697 131.037C869.214 131.425 868.857 131.934 868.625 132.564C868.393 133.194 868.277 133.873 868.277 134.602C868.277 135.331 868.393 136.009 868.625 136.634C868.857 137.259 869.214 137.763 869.697 138.146C870.18 138.53 870.796 138.722 871.544 138.722ZM886.773 131.534L885.267 131.96C885.173 131.709 885.033 131.465 884.848 131.229C884.668 130.987 884.422 130.788 884.11 130.632C883.797 130.476 883.397 130.398 882.909 130.398C882.242 130.398 881.685 130.552 881.24 130.859C880.8 131.162 880.58 131.548 880.58 132.017C880.58 132.434 880.731 132.763 881.034 133.004C881.337 133.246 881.811 133.447 882.455 133.608L884.074 134.006C885.05 134.242 885.776 134.605 886.255 135.092C886.733 135.575 886.972 136.198 886.972 136.96C886.972 137.585 886.792 138.144 886.432 138.636C886.077 139.129 885.58 139.517 884.941 139.801C884.301 140.085 883.558 140.227 882.711 140.227C881.598 140.227 880.677 139.986 879.948 139.503C879.219 139.02 878.757 138.314 878.563 137.386L880.154 136.989C880.305 137.576 880.592 138.016 881.013 138.31C881.439 138.603 881.996 138.75 882.682 138.75C883.463 138.75 884.084 138.584 884.543 138.253C885.007 137.917 885.239 137.514 885.239 137.045C885.239 136.667 885.106 136.349 884.841 136.094C884.576 135.833 884.169 135.639 883.62 135.511L881.801 135.085C880.802 134.848 880.069 134.482 879.6 133.984C879.136 133.482 878.904 132.855 878.904 132.102C878.904 131.487 879.077 130.942 879.422 130.469C879.773 129.995 880.248 129.624 880.85 129.354C881.456 129.084 882.142 128.949 882.909 128.949C883.989 128.949 884.837 129.186 885.452 129.659C886.072 130.133 886.513 130.758 886.773 131.534ZM894.239 129.091V130.511H888.586V129.091H894.239ZM890.234 126.477H891.91V136.875C891.91 137.348 891.978 137.704 892.116 137.94C892.258 138.172 892.438 138.329 892.656 138.409C892.878 138.485 893.112 138.523 893.359 138.523C893.543 138.523 893.695 138.513 893.813 138.494C893.932 138.471 894.026 138.452 894.097 138.438L894.438 139.943C894.325 139.986 894.166 140.028 893.962 140.071C893.759 140.118 893.501 140.142 893.188 140.142C892.715 140.142 892.251 140.04 891.796 139.837C891.346 139.633 890.972 139.323 890.674 138.906C890.38 138.49 890.234 137.964 890.234 137.33V126.477ZM914.317 130H912.556C912.452 129.493 912.27 129.048 912.009 128.665C911.754 128.281 911.441 127.959 911.072 127.699C910.707 127.434 910.302 127.235 909.857 127.102C909.412 126.97 908.948 126.903 908.465 126.903C907.585 126.903 906.787 127.126 906.072 127.571C905.362 128.016 904.796 128.672 904.374 129.538C903.958 130.405 903.749 131.468 903.749 132.727C903.749 133.987 903.958 135.05 904.374 135.916C904.796 136.783 905.362 137.438 906.072 137.884C906.787 138.329 907.585 138.551 908.465 138.551C908.948 138.551 909.412 138.485 909.857 138.352C910.302 138.22 910.707 138.023 911.072 137.763C911.441 137.498 911.754 137.173 912.009 136.79C912.27 136.402 912.452 135.956 912.556 135.455H914.317C914.185 136.198 913.943 136.863 913.593 137.45C913.243 138.037 912.807 138.537 912.286 138.949C911.765 139.356 911.181 139.666 910.532 139.879C909.888 140.092 909.199 140.199 908.465 140.199C907.225 140.199 906.121 139.896 905.156 139.29C904.19 138.684 903.43 137.822 902.876 136.705C902.322 135.587 902.045 134.261 902.045 132.727C902.045 131.193 902.322 129.867 902.876 128.75C903.43 127.633 904.19 126.771 905.156 126.165C906.121 125.559 907.225 125.256 908.465 125.256C909.199 125.256 909.888 125.362 910.532 125.575C911.181 125.788 911.765 126.101 912.286 126.513C912.807 126.92 913.243 127.417 913.593 128.004C913.943 128.587 914.185 129.252 914.317 130ZM921.368 140.227C920.383 140.227 919.519 139.993 918.776 139.524C918.037 139.055 917.46 138.4 917.043 137.557C916.631 136.714 916.425 135.729 916.425 134.602C916.425 133.466 916.631 132.474 917.043 131.626C917.46 130.779 918.037 130.121 918.776 129.652C919.519 129.183 920.383 128.949 921.368 128.949C922.353 128.949 923.215 129.183 923.953 129.652C924.697 130.121 925.275 130.779 925.686 131.626C926.103 132.474 926.311 133.466 926.311 134.602C926.311 135.729 926.103 136.714 925.686 137.557C925.275 138.4 924.697 139.055 923.953 139.524C923.215 139.993 922.353 140.227 921.368 140.227ZM921.368 138.722C922.116 138.722 922.732 138.53 923.215 138.146C923.698 137.763 924.055 137.259 924.287 136.634C924.519 136.009 924.635 135.331 924.635 134.602C924.635 133.873 924.519 133.194 924.287 132.564C924.055 131.934 923.698 131.425 923.215 131.037C922.732 130.649 922.116 130.455 921.368 130.455C920.62 130.455 920.005 130.649 919.522 131.037C919.039 131.425 918.681 131.934 918.449 132.564C918.217 133.194 918.101 133.873 918.101 134.602C918.101 135.331 918.217 136.009 918.449 136.634C918.681 137.259 919.039 137.763 919.522 138.146C920.005 138.53 920.62 138.722 921.368 138.722ZM932.989 140.227C932.08 140.227 931.278 139.998 930.582 139.538C929.886 139.074 929.341 138.421 928.948 137.578C928.555 136.731 928.359 135.729 928.359 134.574C928.359 133.428 928.555 132.434 928.948 131.591C929.341 130.748 929.888 130.097 930.589 129.638C931.29 129.179 932.099 128.949 933.018 128.949C933.728 128.949 934.289 129.067 934.701 129.304C935.118 129.536 935.435 129.801 935.653 130.099C935.875 130.393 936.048 130.634 936.171 130.824H936.313V125.455H937.989V140H936.37V138.324H936.171C936.048 138.523 935.873 138.774 935.646 139.077C935.418 139.375 935.094 139.643 934.673 139.879C934.251 140.111 933.69 140.227 932.989 140.227ZM933.217 138.722C933.889 138.722 934.457 138.546 934.921 138.196C935.385 137.841 935.738 137.351 935.979 136.726C936.221 136.096 936.342 135.369 936.342 134.545C936.342 133.731 936.223 133.018 935.987 132.408C935.75 131.792 935.399 131.314 934.935 130.973C934.471 130.627 933.898 130.455 933.217 130.455C932.506 130.455 931.915 130.637 931.441 131.001C930.972 131.361 930.62 131.851 930.383 132.472C930.151 133.087 930.035 133.778 930.035 134.545C930.035 135.322 930.153 136.027 930.39 136.662C930.631 137.292 930.987 137.794 931.455 138.168C931.929 138.537 932.516 138.722 933.217 138.722ZM945.866 140.227C944.815 140.227 943.908 139.995 943.146 139.531C942.388 139.062 941.803 138.409 941.391 137.571C940.984 136.728 940.781 135.748 940.781 134.631C940.781 133.513 940.984 132.528 941.391 131.676C941.803 130.819 942.376 130.152 943.11 129.673C943.849 129.19 944.71 128.949 945.695 128.949C946.263 128.949 946.825 129.044 947.379 129.233C947.933 129.422 948.437 129.73 948.891 130.156C949.346 130.578 949.708 131.136 949.978 131.832C950.248 132.528 950.383 133.385 950.383 134.403V135.114H941.974V133.665H948.678C948.678 133.049 948.555 132.5 948.309 132.017C948.067 131.534 947.722 131.153 947.272 130.874C946.827 130.594 946.301 130.455 945.695 130.455C945.028 130.455 944.45 130.62 943.962 130.952C943.479 131.278 943.108 131.705 942.847 132.23C942.587 132.756 942.457 133.319 942.457 133.92V134.886C942.457 135.71 942.599 136.409 942.883 136.982C943.172 137.55 943.572 137.983 944.083 138.281C944.594 138.575 945.189 138.722 945.866 138.722C946.306 138.722 946.704 138.66 947.059 138.537C947.419 138.409 947.729 138.22 947.989 137.969C948.25 137.713 948.451 137.396 948.593 137.017L950.212 137.472C950.042 138.021 949.755 138.504 949.353 138.92C948.951 139.332 948.453 139.654 947.862 139.886C947.27 140.114 946.604 140.227 945.866 140.227ZM959.779 140.114C959.429 140.114 959.128 139.988 958.877 139.737C958.626 139.486 958.501 139.186 958.501 138.835C958.501 138.485 958.626 138.184 958.877 137.933C959.128 137.682 959.429 137.557 959.779 137.557C960.129 137.557 960.43 137.682 960.681 137.933C960.932 138.184 961.058 138.485 961.058 138.835C961.058 139.067 960.998 139.28 960.88 139.474C960.766 139.669 960.612 139.825 960.418 139.943C960.229 140.057 960.016 140.114 959.779 140.114ZM959.779 132.017C959.429 132.017 959.128 131.892 958.877 131.641C958.626 131.39 958.501 131.089 958.501 130.739C958.501 130.388 958.626 130.088 958.877 129.837C959.128 129.586 959.429 129.46 959.779 129.46C960.129 129.46 960.43 129.586 960.681 129.837C960.932 130.088 961.058 130.388 961.058 130.739C961.058 130.971 960.998 131.184 960.88 131.378C960.766 131.572 960.612 131.728 960.418 131.847C960.229 131.96 960.016 132.017 959.779 132.017Z" fill="black"/>
<path d="M166.761 192V177.455H175.54V179.017H168.523V183.932H175.085V185.494H168.523V190.438H175.653V192H166.761ZM178.487 192V181.091H180.107V182.795H180.249C180.476 182.213 180.843 181.761 181.349 181.439C181.856 181.112 182.464 180.949 183.175 180.949C183.894 180.949 184.493 181.112 184.972 181.439C185.455 181.761 185.831 182.213 186.101 182.795H186.214C186.494 182.232 186.913 181.785 187.472 181.453C188.03 181.117 188.7 180.949 189.482 180.949C190.457 180.949 191.255 181.254 191.875 181.865C192.495 182.471 192.805 183.416 192.805 184.699V192H191.129V184.699C191.129 183.894 190.909 183.319 190.469 182.973C190.028 182.627 189.51 182.455 188.913 182.455C188.146 182.455 187.552 182.687 187.131 183.151C186.709 183.61 186.499 184.192 186.499 184.898V192H184.794V184.528C184.794 183.908 184.593 183.409 184.19 183.03C183.788 182.646 183.269 182.455 182.635 182.455C182.199 182.455 181.792 182.571 181.413 182.803C181.039 183.035 180.736 183.357 180.504 183.768C180.277 184.176 180.163 184.647 180.163 185.182V192H178.487ZM199.08 192.256C198.389 192.256 197.762 192.125 197.198 191.865C196.635 191.6 196.187 191.219 195.856 190.722C195.524 190.22 195.359 189.614 195.359 188.903C195.359 188.278 195.482 187.772 195.728 187.384C195.974 186.991 196.303 186.683 196.715 186.46C197.127 186.238 197.582 186.072 198.079 185.963C198.581 185.849 199.085 185.759 199.592 185.693C200.254 185.608 200.792 185.544 201.204 185.501C201.621 185.454 201.924 185.376 202.113 185.267C202.307 185.158 202.404 184.969 202.404 184.699V184.642C202.404 183.941 202.212 183.397 201.829 183.009C201.45 182.62 200.875 182.426 200.103 182.426C199.303 182.426 198.675 182.601 198.221 182.952C197.766 183.302 197.447 183.676 197.262 184.074L195.671 183.506C195.955 182.843 196.334 182.327 196.808 181.957C197.286 181.583 197.807 181.323 198.37 181.176C198.938 181.025 199.497 180.949 200.046 180.949C200.397 180.949 200.799 180.991 201.254 181.077C201.713 181.157 202.156 181.325 202.582 181.581C203.013 181.837 203.37 182.223 203.654 182.739C203.938 183.255 204.08 183.946 204.08 184.812V192H202.404V190.523H202.319C202.205 190.759 202.016 191.013 201.751 191.283C201.486 191.553 201.133 191.782 200.692 191.972C200.252 192.161 199.715 192.256 199.08 192.256ZM199.336 190.75C199.999 190.75 200.558 190.62 201.012 190.359C201.471 190.099 201.817 189.763 202.049 189.351C202.286 188.939 202.404 188.506 202.404 188.051V186.517C202.333 186.602 202.177 186.68 201.935 186.751C201.699 186.818 201.424 186.877 201.112 186.929C200.804 186.976 200.503 187.019 200.21 187.057C199.921 187.09 199.686 187.118 199.506 187.142C199.071 187.199 198.664 187.291 198.285 187.419C197.911 187.542 197.608 187.729 197.376 187.98C197.148 188.226 197.035 188.562 197.035 188.989C197.035 189.571 197.25 190.011 197.681 190.31C198.117 190.603 198.668 190.75 199.336 190.75ZM207.14 192V181.091H208.816V192H207.14ZM207.992 179.273C207.665 179.273 207.383 179.161 207.147 178.939C206.915 178.716 206.799 178.449 206.799 178.136C206.799 177.824 206.915 177.556 207.147 177.334C207.383 177.111 207.665 177 207.992 177C208.319 177 208.598 177.111 208.83 177.334C209.067 177.556 209.185 177.824 209.185 178.136C209.185 178.449 209.067 178.716 208.83 178.939C208.598 179.161 208.319 179.273 207.992 179.273ZM213.562 177.455V192H211.886V177.455H213.562ZM223.478 192.114C223.128 192.114 222.827 191.988 222.576 191.737C222.325 191.486 222.2 191.186 222.2 190.835C222.2 190.485 222.325 190.184 222.576 189.933C222.827 189.682 223.128 189.557 223.478 189.557C223.829 189.557 224.129 189.682 224.38 189.933C224.631 190.184 224.757 190.485 224.757 190.835C224.757 191.067 224.698 191.28 224.579 191.474C224.466 191.669 224.312 191.825 224.118 191.943C223.928 192.057 223.715 192.114 223.478 192.114ZM223.478 184.017C223.128 184.017 222.827 183.892 222.576 183.641C222.325 183.39 222.2 183.089 222.2 182.739C222.2 182.388 222.325 182.088 222.576 181.837C222.827 181.586 223.128 181.46 223.478 181.46C223.829 181.46 224.129 181.586 224.38 181.837C224.631 182.088 224.757 182.388 224.757 182.739C224.757 182.971 224.698 183.184 224.579 183.378C224.466 183.572 224.312 183.728 224.118 183.847C223.928 183.96 223.715 184.017 223.478 184.017Z" fill="black"/>
<rect x="9" y="6" width="92" height="81" fill="#F8F8F8"/>
<path d="M9 86.5H100.5M9 86.5V7M9 86.5L100.5 7M100.5 86.5V7M100.5 86.5L9 7M100.5 7H9" stroke="black"/>
<path d="M25.2273 83V74.2727H26.5227V75.5909H26.6136C26.7727 75.1591 27.0606 74.8087 27.4773 74.5398C27.8939 74.2708 28.3636 74.1364 28.8864 74.1364C28.9848 74.1364 29.108 74.1383 29.2557 74.142C29.4034 74.1458 29.5152 74.1515 29.5909 74.1591V75.5227C29.5455 75.5114 29.4413 75.4943 29.2784 75.4716C29.1193 75.4451 28.9508 75.4318 28.7727 75.4318C28.3485 75.4318 27.9697 75.5208 27.6364 75.6989C27.3068 75.8731 27.0455 76.1155 26.8523 76.4261C26.6629 76.733 26.5682 77.0833 26.5682 77.4773V83H25.2273ZM30.9304 83V81.9773L35.8849 75.6136V75.5227H31.0895V74.2727H37.6122V75.3409L32.794 81.6591V81.75H37.7713V83H30.9304ZM42.4048 83.2045C41.8518 83.2045 41.3499 83.1004 40.8991 82.892C40.4484 82.6799 40.0904 82.375 39.8253 81.9773C39.5601 81.5758 39.4276 81.0909 39.4276 80.5227C39.4276 80.0227 39.526 79.6174 39.723 79.3068C39.92 78.9924 40.1832 78.7462 40.5128 78.5682C40.8423 78.3902 41.206 78.2576 41.6037 78.1705C42.0052 78.0795 42.4086 78.0076 42.8139 77.9545C43.3442 77.8864 43.7741 77.8352 44.1037 77.8011C44.437 77.7633 44.6795 77.7008 44.831 77.6136C44.9863 77.5265 45.0639 77.375 45.0639 77.1591V77.1136C45.0639 76.553 44.9105 76.1174 44.6037 75.8068C44.3007 75.4962 43.8404 75.3409 43.223 75.3409C42.5829 75.3409 42.081 75.4811 41.7173 75.7614C41.3537 76.0417 41.098 76.3409 40.9503 76.6591L39.6776 76.2045C39.9048 75.6742 40.2079 75.2614 40.5866 74.9659C40.9692 74.6667 41.3859 74.4583 41.8366 74.3409C42.2912 74.2197 42.7382 74.1591 43.1776 74.1591C43.4579 74.1591 43.7798 74.1932 44.1435 74.2614C44.5109 74.3258 44.8651 74.4602 45.206 74.6648C45.5507 74.8693 45.8366 75.178 46.0639 75.5909C46.2912 76.0038 46.4048 76.5568 46.4048 77.25V83H45.0639V81.8182H44.9957C44.9048 82.0076 44.7533 82.2102 44.5412 82.4261C44.3291 82.642 44.0469 82.8258 43.6946 82.9773C43.3423 83.1288 42.9124 83.2045 42.4048 83.2045ZM42.6094 82C43.1397 82 43.5866 81.8958 43.9503 81.6875C44.3177 81.4792 44.5942 81.2102 44.7798 80.8807C44.9692 80.5511 45.0639 80.2045 45.0639 79.8409V78.6136C45.0071 78.6818 44.8821 78.7443 44.6889 78.8011C44.4995 78.8542 44.2798 78.9015 44.0298 78.9432C43.7836 78.9811 43.5431 79.0152 43.3082 79.0455C43.0772 79.072 42.8897 79.0947 42.7457 79.1136C42.3973 79.1591 42.0715 79.233 41.7685 79.3352C41.4692 79.4337 41.2268 79.5833 41.0412 79.7841C40.8594 79.9811 40.7685 80.25 40.7685 80.5909C40.7685 81.0568 40.9408 81.4091 41.2855 81.6477C41.634 81.8826 42.0753 82 42.6094 82ZM54.6932 71.3636V83H53.3523V71.3636H54.6932ZM60.6946 83.1818C59.9067 83.1818 59.2154 82.9943 58.6207 82.6193C58.0298 82.2443 57.5677 81.7197 57.2344 81.0455C56.9048 80.3712 56.7401 79.5833 56.7401 78.6818C56.7401 77.7727 56.9048 76.9792 57.2344 76.3011C57.5677 75.6231 58.0298 75.0966 58.6207 74.7216C59.2154 74.3466 59.9067 74.1591 60.6946 74.1591C61.4825 74.1591 62.1719 74.3466 62.7628 74.7216C63.3575 75.0966 63.8196 75.6231 64.1491 76.3011C64.4825 76.9792 64.6491 77.7727 64.6491 78.6818C64.6491 79.5833 64.4825 80.3712 64.1491 81.0455C63.8196 81.7197 63.3575 82.2443 62.7628 82.6193C62.1719 82.9943 61.4825 83.1818 60.6946 83.1818ZM60.6946 81.9773C61.2931 81.9773 61.7855 81.8239 62.1719 81.517C62.5582 81.2102 62.8442 80.8068 63.0298 80.3068C63.2154 79.8068 63.3082 79.2652 63.3082 78.6818C63.3082 78.0985 63.2154 77.5549 63.0298 77.0511C62.8442 76.5473 62.5582 76.1402 62.1719 75.8295C61.7855 75.5189 61.2931 75.3636 60.6946 75.3636C60.0961 75.3636 59.6037 75.5189 59.2173 75.8295C58.831 76.1402 58.545 76.5473 58.3594 77.0511C58.1738 77.5549 58.081 78.0985 58.081 78.6818C58.081 79.2652 58.1738 79.8068 58.3594 80.3068C58.545 80.8068 58.831 81.2102 59.2173 81.517C59.6037 81.8239 60.0961 81.9773 60.6946 81.9773ZM70.2188 86.4545C69.571 86.4545 69.0142 86.3712 68.5483 86.2045C68.0824 86.0417 67.6941 85.8258 67.3835 85.5568C67.0767 85.2917 66.8324 85.0076 66.6506 84.7045L67.7188 83.9545C67.84 84.1136 67.9934 84.2955 68.179 84.5C68.3646 84.7083 68.6184 84.8883 68.9403 85.0398C69.2661 85.1951 69.6922 85.2727 70.2188 85.2727C70.9233 85.2727 71.5047 85.1023 71.9631 84.7614C72.4214 84.4205 72.6506 83.8864 72.6506 83.1591V81.3864H72.5369C72.4384 81.5455 72.2983 81.7424 72.1165 81.9773C71.9384 82.2083 71.6809 82.4148 71.3438 82.5966C71.0104 82.7746 70.5597 82.8636 69.9915 82.8636C69.2869 82.8636 68.6544 82.697 68.0938 82.3636C67.5369 82.0303 67.0956 81.5455 66.7699 80.9091C66.4479 80.2727 66.2869 79.5 66.2869 78.5909C66.2869 77.697 66.4441 76.9186 66.7585 76.2557C67.0729 75.589 67.5104 75.0739 68.071 74.7102C68.6316 74.3428 69.2794 74.1591 70.0142 74.1591C70.5824 74.1591 71.0331 74.2538 71.3665 74.4432C71.7036 74.6288 71.9612 74.8409 72.1392 75.0795C72.321 75.3144 72.4612 75.5076 72.5597 75.6591H72.696V74.2727H73.9915V83.25C73.9915 84 73.821 84.6098 73.4801 85.0795C73.143 85.553 72.6884 85.8996 72.1165 86.1193C71.5483 86.3428 70.9157 86.4545 70.2188 86.4545ZM70.1733 81.6591C70.7112 81.6591 71.1657 81.536 71.5369 81.2898C71.9081 81.0436 72.1903 80.6894 72.3835 80.2273C72.5767 79.7652 72.6733 79.2121 72.6733 78.5682C72.6733 77.9394 72.5786 77.3845 72.3892 76.9034C72.1998 76.4223 71.9195 76.0455 71.5483 75.7727C71.1771 75.5 70.7188 75.3636 70.1733 75.3636C69.6051 75.3636 69.1316 75.5076 68.7528 75.7955C68.3778 76.0833 68.0956 76.4697 67.9062 76.9545C67.7206 77.4394 67.6278 77.9773 67.6278 78.5682C67.6278 79.1742 67.7225 79.7102 67.9119 80.1761C68.1051 80.6383 68.3892 81.0019 68.7642 81.267C69.143 81.5284 69.6127 81.6591 70.1733 81.6591ZM79.9915 83.1818C79.2036 83.1818 78.5123 82.9943 77.9176 82.6193C77.3267 82.2443 76.8646 81.7197 76.5312 81.0455C76.2017 80.3712 76.0369 79.5833 76.0369 78.6818C76.0369 77.7727 76.2017 76.9792 76.5312 76.3011C76.8646 75.6231 77.3267 75.0966 77.9176 74.7216C78.5123 74.3466 79.2036 74.1591 79.9915 74.1591C80.7794 74.1591 81.4688 74.3466 82.0597 74.7216C82.6544 75.0966 83.1165 75.6231 83.446 76.3011C83.7794 76.9792 83.946 77.7727 83.946 78.6818C83.946 79.5833 83.7794 80.3712 83.446 81.0455C83.1165 81.7197 82.6544 82.2443 82.0597 82.6193C81.4688 82.9943 80.7794 83.1818 79.9915 83.1818ZM79.9915 81.9773C80.59 81.9773 81.0824 81.8239 81.4688 81.517C81.8551 81.2102 82.1411 80.8068 82.3267 80.3068C82.5123 79.8068 82.6051 79.2652 82.6051 78.6818C82.6051 78.0985 82.5123 77.5549 82.3267 77.0511C82.1411 76.5473 81.8551 76.1402 81.4688 75.8295C81.0824 75.5189 80.59 75.3636 79.9915 75.3636C79.393 75.3636 78.9006 75.5189 78.5142 75.8295C78.1278 76.1402 77.8419 76.5473 77.6562 77.0511C77.4706 77.5549 77.3778 78.0985 77.3778 78.6818C77.3778 79.2652 77.4706 79.8068 77.6562 80.3068C77.8419 80.8068 78.1278 81.2102 78.5142 81.517C78.9006 81.8239 79.393 81.9773 79.9915 81.9773Z" fill="black"/>
</svg>
